SplineFontDB: 3.2
FontName: Utilik-Display
FullName: Utilik Display
FamilyName: Utilik Display
Weight: Regular
Copyright: Copyright (c) 2022 RandomMaerks (Bao Nguyen)
Version: 1.0
ItalicAngle: 0
UnderlinePosition: 153
UnderlineWidth: 102
Ascent: 1638
Descent: 410
InvalidEm: 0
sfntRevision: 0x00010000
LayerCount: 2
Layer: 0 1 "Back" 1
Layer: 1 1 "Fore" 0
XUID: [1021 301 932173752 23855]
StyleMap: 0x0040
FSType: 4
OS2Version: 2
OS2_WeightWidthSlopeOnly: 0
OS2_UseTypoMetrics: 0
CreationTime: 1647759218
ModificationTime: 1647759848
PfmFamily: 81
TTFWeight: 400
TTFWidth: 5
LineGap: 0
VLineGap: 0
Panose: 0 0 4 0 0 0 0 0 0 0
OS2TypoAscent: 1638
OS2TypoAOffset: 0
OS2TypoDescent: -409
OS2TypoDOffset: 0
OS2TypoLinegap: 0
OS2WinAscent: 1638
OS2WinAOffset: 0
OS2WinDescent: 409
OS2WinDOffset: 0
HheadAscent: 1638
HheadAOffset: 0
HheadDescent: -409
HheadDOffset: 0
OS2SubXSize: 1024
OS2SubYSize: 1024
OS2SubXOff: 0
OS2SubYOff: -204
OS2SupXSize: 1024
OS2SupYSize: 1024
OS2SupXOff: 0
OS2SupYOff: 1024
OS2StrikeYSize: 102
OS2StrikeYPos: 409
OS2CapHeight: 1160
OS2XHeight: 887
OS2Vendor: 'FSTR'
OS2CodePages: 200101ff.cdff0000
OS2UnicodeRanges: 20000003.00000000.00000000.00000000
Lookup: 258 0 0 "'kern' Horizontal Kerning in Latin lookup 0" { "'kern' Horizontal Kerning in Latin lookup 0 subtable"  } ['kern' ('latn' <'dflt' > ) ]
MarkAttachClasses: 1
DEI: 91125
ShortTable: maxp 16
  1
  0
  329
  152
  38
  0
  0
  2
  0
  0
  0
  0
  0
  0
  0
  0
EndShort
LangName: 1033 "Copyright RandomMaerks 2022+AAogHAAA-Utilik" "" "Regular" "Utilik Display" "" "1.0" "" "" "" "RandomMaerks" "" "" "https://app.gumroad.com/randommaerks"
Encoding: UnicodeBmp
Compacted: 1
UnicodeInterp: none
NameList: AGL For New Fonts
DisplaySize: -48
AntiAlias: 1
FitToEm: 0
WinInfo: 0 38 14
BeginPrivate: 0
EndPrivate
BeginChars: 65537 329

StartChar: .notdef
Encoding: 65536 -1 0
Width: 1396
Flags: W
LayerCount: 2
Fore
SplineSet
1191 50 m 1,0,-1
 630 799 l 1,1,-1
 69 50 l 1,2,-1
 1191 50 l 1,0,-1
50 69 m 1,3,-1
 610 819 l 1,4,-1
 50 1569 l 1,5,-1
 50 69 l 1,6,-1
 50 69 l 1,3,-1
1210 69 m 1,7,-1
 1210 1569 l 1,8,-1
 649 819 l 1,9,-1
 1210 69 l 1,10,-1
 1210 69 l 1,7,-1
630 838 m 1,11,-1
 1191 1588 l 1,12,-1
 69 1588 l 1,13,-1
 630 838 l 1,14,-1
 630 838 l 1,11,-1
0 0 m 1,15,-1
 0 1638 l 1,16,-1
 1260 1638 l 1,17,-1
 1260 0 l 1,18,-1
 0 0 l 1,15,-1
EndSplineSet
EndChar

StartChar: exclam
Encoding: 33 33 2
Width: 273
Flags: W
LayerCount: 2
Fore
SplineSet
0 0 m 1,0,-1
 0 68 l 1,1,-1
 68 68 l 1,2,-1
 68 0 l 1,3,-1
 0 0 l 1,0,-1
0 273 m 1,4,-1
 0 341 l 1,5,-1
 68 341 l 1,6,-1
 68 273 l 1,7,-1
 0 273 l 1,4,-1
0 409 m 1,8,-1
 0 477 l 1,9,-1
 68 477 l 1,10,-1
 68 409 l 1,11,-1
 0 409 l 1,8,-1
0 546 m 1,12,-1
 0 614 l 1,13,-1
 68 614 l 1,14,-1
 68 546 l 1,15,-1
 0 546 l 1,12,-1
0 682 m 1,16,-1
 0 750 l 1,17,-1
 68 750 l 1,18,-1
 68 682 l 1,19,-1
 0 682 l 1,16,-1
0 819 m 1,20,-1
 0 887 l 1,21,-1
 68 887 l 1,22,-1
 68 819 l 1,23,-1
 0 819 l 1,20,-1
0 955 m 1,24,-1
 0 1024 l 1,25,-1
 68 1024 l 1,26,-1
 68 955 l 1,27,-1
 0 955 l 1,24,-1
0 1092 m 1,28,-1
 0 1160 l 1,29,-1
 68 1160 l 1,30,-1
 68 1092 l 1,31,-1
 0 1092 l 1,28,-1
EndSplineSet
Validated: 1
EndChar

StartChar: quotedbl
Encoding: 34 34 3
Width: 546
Flags: W
LayerCount: 2
Fore
SplineSet
0 955 m 1,0,-1
 0 1024 l 1,1,-1
 68 1024 l 1,2,-1
 68 955 l 1,3,-1
 0 955 l 1,0,-1
273 955 m 1,4,-1
 273 1024 l 1,5,-1
 341 1024 l 1,6,-1
 341 955 l 1,7,-1
 273 955 l 1,4,-1
0 1092 m 1,8,-1
 0 1160 l 1,9,-1
 68 1160 l 1,10,-1
 68 1092 l 1,11,-1
 0 1092 l 1,8,-1
273 1092 m 1,12,-1
 273 1160 l 1,13,-1
 341 1160 l 1,14,-1
 341 1092 l 1,15,-1
 273 1092 l 1,12,-1
EndSplineSet
Validated: 1
EndChar

StartChar: numbersign
Encoding: 35 35 4
Width: 1092
Flags: W
LayerCount: 2
Fore
SplineSet
273 0 m 1,0,-1
 273 68 l 1,1,-1
 341 68 l 1,2,-1
 341 0 l 1,3,-1
 273 0 l 1,0,-1
546 0 m 1,4,-1
 546 68 l 1,5,-1
 614 68 l 1,6,-1
 614 0 l 1,7,-1
 546 0 l 1,4,-1
273 136 m 1,8,-1
 273 204 l 1,9,-1
 341 204 l 1,10,-1
 341 136 l 1,11,-1
 273 136 l 1,8,-1
546 136 m 1,12,-1
 546 204 l 1,13,-1
 614 204 l 1,14,-1
 614 136 l 1,15,-1
 546 136 l 1,12,-1
273 273 m 1,16,-1
 273 341 l 1,17,-1
 341 341 l 1,18,-1
 341 273 l 1,19,-1
 273 273 l 1,16,-1
546 273 m 1,20,-1
 546 341 l 1,21,-1
 614 341 l 1,22,-1
 614 273 l 1,23,-1
 546 273 l 1,20,-1
0 409 m 1,24,-1
 0 477 l 1,25,-1
 68 477 l 1,26,-1
 68 409 l 1,27,-1
 0 409 l 1,24,-1
136 409 m 1,28,-1
 136 477 l 1,29,-1
 204 477 l 1,30,-1
 204 409 l 1,31,-1
 136 409 l 1,28,-1
273 409 m 1,32,-1
 273 477 l 1,33,-1
 341 477 l 1,34,-1
 341 409 l 1,35,-1
 273 409 l 1,32,-1
409 409 m 1,36,-1
 409 477 l 1,37,-1
 477 477 l 1,38,-1
 477 409 l 1,39,-1
 409 409 l 1,36,-1
546 409 m 1,40,-1
 546 477 l 1,41,-1
 614 477 l 1,42,-1
 614 409 l 1,43,-1
 546 409 l 1,40,-1
682 409 m 1,44,-1
 682 477 l 1,45,-1
 750 477 l 1,46,-1
 750 409 l 1,47,-1
 682 409 l 1,44,-1
819 409 m 1,48,-1
 819 477 l 1,49,-1
 887 477 l 1,50,-1
 887 409 l 1,51,-1
 819 409 l 1,48,-1
273 546 m 1,52,-1
 273 614 l 1,53,-1
 341 614 l 1,54,-1
 341 546 l 1,55,-1
 273 546 l 1,52,-1
546 546 m 1,56,-1
 546 614 l 1,57,-1
 614 614 l 1,58,-1
 614 546 l 1,59,-1
 546 546 l 1,56,-1
0 682 m 1,60,-1
 0 750 l 1,61,-1
 68 750 l 1,62,-1
 68 682 l 1,63,-1
 0 682 l 1,60,-1
136 682 m 1,64,-1
 136 750 l 1,65,-1
 204 750 l 1,66,-1
 204 682 l 1,67,-1
 136 682 l 1,64,-1
273 682 m 1,68,-1
 273 750 l 1,69,-1
 341 750 l 1,70,-1
 341 682 l 1,71,-1
 273 682 l 1,68,-1
409 682 m 1,72,-1
 409 750 l 1,73,-1
 477 750 l 1,74,-1
 477 682 l 1,75,-1
 409 682 l 1,72,-1
546 682 m 1,76,-1
 546 750 l 1,77,-1
 614 750 l 1,78,-1
 614 682 l 1,79,-1
 546 682 l 1,76,-1
682 682 m 1,80,-1
 682 750 l 1,81,-1
 750 750 l 1,82,-1
 750 682 l 1,83,-1
 682 682 l 1,80,-1
819 682 m 1,84,-1
 819 750 l 1,85,-1
 887 750 l 1,86,-1
 887 682 l 1,87,-1
 819 682 l 1,84,-1
273 819 m 1,88,-1
 273 887 l 1,89,-1
 341 887 l 1,90,-1
 341 819 l 1,91,-1
 273 819 l 1,88,-1
546 819 m 1,92,-1
 546 887 l 1,93,-1
 614 887 l 1,94,-1
 614 819 l 1,95,-1
 546 819 l 1,92,-1
273 955 m 1,96,-1
 273 1024 l 1,97,-1
 341 1024 l 1,98,-1
 341 955 l 1,99,-1
 273 955 l 1,96,-1
546 955 m 1,100,-1
 546 1024 l 1,101,-1
 614 1024 l 1,102,-1
 614 955 l 1,103,-1
 546 955 l 1,100,-1
273 1092 m 1,104,-1
 273 1160 l 1,105,-1
 341 1160 l 1,106,-1
 341 1092 l 1,107,-1
 273 1092 l 1,104,-1
546 1092 m 1,108,-1
 546 1160 l 1,109,-1
 614 1160 l 1,110,-1
 614 1092 l 1,111,-1
 546 1092 l 1,108,-1
EndSplineSet
Validated: 1
EndChar

StartChar: dollar
Encoding: 36 36 5
Width: 819
Flags: W
LayerCount: 2
Fore
SplineSet
273 -136 m 1,0,-1
 273 -68 l 1,1,-1
 341 -68 l 1,2,-1
 341 -136 l 1,3,-1
 273 -136 l 1,0,-1
273 0 m 1,4,-1
 273 68 l 1,5,-1
 341 68 l 1,6,-1
 341 0 l 1,7,-1
 273 0 l 1,4,-1
136 136 m 1,8,-1
 136 204 l 1,9,-1
 204 204 l 1,10,-1
 204 136 l 1,11,-1
 136 136 l 1,8,-1
273 136 m 1,12,-1
 273 204 l 1,13,-1
 341 204 l 1,14,-1
 341 136 l 1,15,-1
 273 136 l 1,12,-1
409 136 m 1,16,-1
 409 204 l 1,17,-1
 477 204 l 1,18,-1
 477 136 l 1,19,-1
 409 136 l 1,16,-1
0 273 m 1,20,-1
 0 341 l 1,21,-1
 68 341 l 1,22,-1
 68 273 l 1,23,-1
 0 273 l 1,20,-1
546 273 m 1,24,-1
 546 341 l 1,25,-1
 614 341 l 1,26,-1
 614 273 l 1,27,-1
 546 273 l 1,24,-1
546 409 m 1,28,-1
 546 477 l 1,29,-1
 614 477 l 1,30,-1
 614 409 l 1,31,-1
 546 409 l 1,28,-1
136 546 m 1,32,-1
 136 614 l 1,33,-1
 204 614 l 1,34,-1
 204 546 l 1,35,-1
 136 546 l 1,32,-1
273 546 m 1,36,-1
 273 614 l 1,37,-1
 341 614 l 1,38,-1
 341 546 l 1,39,-1
 273 546 l 1,36,-1
409 546 m 1,40,-1
 409 614 l 1,41,-1
 477 614 l 1,42,-1
 477 546 l 1,43,-1
 409 546 l 1,40,-1
0 682 m 1,44,-1
 0 750 l 1,45,-1
 68 750 l 1,46,-1
 68 682 l 1,47,-1
 0 682 l 1,44,-1
136 819 m 1,48,-1
 136 887 l 1,49,-1
 204 887 l 1,50,-1
 204 819 l 1,51,-1
 136 819 l 1,48,-1
273 819 m 1,52,-1
 273 887 l 1,53,-1
 341 887 l 1,54,-1
 341 819 l 1,55,-1
 273 819 l 1,52,-1
409 819 m 1,56,-1
 409 887 l 1,57,-1
 477 887 l 1,58,-1
 477 819 l 1,59,-1
 409 819 l 1,56,-1
273 955 m 1,60,-1
 273 1024 l 1,61,-1
 341 1024 l 1,62,-1
 341 955 l 1,63,-1
 273 955 l 1,60,-1
273 1092 m 1,64,-1
 273 1160 l 1,65,-1
 341 1160 l 1,66,-1
 341 1092 l 1,67,-1
 273 1092 l 1,64,-1
EndSplineSet
Validated: 1
EndChar

StartChar: percent
Encoding: 37 37 6
Width: 1092
Flags: W
LayerCount: 2
Fore
SplineSet
136 0 m 1,0,-1
 136 68 l 1,1,-1
 204 68 l 1,2,-1
 204 0 l 1,3,-1
 136 0 l 1,0,-1
682 0 m 1,4,-1
 682 68 l 1,5,-1
 750 68 l 1,6,-1
 750 0 l 1,7,-1
 682 0 l 1,4,-1
136 136 m 1,8,-1
 136 204 l 1,9,-1
 204 204 l 1,10,-1
 204 136 l 1,11,-1
 136 136 l 1,8,-1
546 136 m 1,12,-1
 546 204 l 1,13,-1
 614 204 l 1,14,-1
 614 136 l 1,15,-1
 546 136 l 1,12,-1
819 136 m 1,16,-1
 819 204 l 1,17,-1
 887 204 l 1,18,-1
 887 136 l 1,19,-1
 819 136 l 1,16,-1
273 273 m 1,20,-1
 273 341 l 1,21,-1
 341 341 l 1,22,-1
 341 273 l 1,23,-1
 273 273 l 1,20,-1
546 273 m 1,24,-1
 546 341 l 1,25,-1
 614 341 l 1,26,-1
 614 273 l 1,27,-1
 546 273 l 1,24,-1
819 273 m 1,28,-1
 819 341 l 1,29,-1
 887 341 l 1,30,-1
 887 273 l 1,31,-1
 819 273 l 1,28,-1
273 409 m 1,32,-1
 273 477 l 1,33,-1
 341 477 l 1,34,-1
 341 409 l 1,35,-1
 273 409 l 1,32,-1
682 409 m 1,36,-1
 682 477 l 1,37,-1
 750 477 l 1,38,-1
 750 409 l 1,39,-1
 682 409 l 1,36,-1
409 546 m 1,40,-1
 409 614 l 1,41,-1
 477 614 l 1,42,-1
 477 546 l 1,43,-1
 409 546 l 1,40,-1
136 682 m 1,44,-1
 136 750 l 1,45,-1
 204 750 l 1,46,-1
 204 682 l 1,47,-1
 136 682 l 1,44,-1
546 682 m 1,48,-1
 546 750 l 1,49,-1
 614 750 l 1,50,-1
 614 682 l 1,51,-1
 546 682 l 1,48,-1
0 819 m 1,52,-1
 0 887 l 1,53,-1
 68 887 l 1,54,-1
 68 819 l 1,55,-1
 0 819 l 1,52,-1
273 819 m 1,56,-1
 273 887 l 1,57,-1
 341 887 l 1,58,-1
 341 819 l 1,59,-1
 273 819 l 1,56,-1
546 819 m 1,60,-1
 546 887 l 1,61,-1
 614 887 l 1,62,-1
 614 819 l 1,63,-1
 546 819 l 1,60,-1
0 955 m 1,64,-1
 0 1024 l 1,65,-1
 68 1024 l 1,66,-1
 68 955 l 1,67,-1
 0 955 l 1,64,-1
273 955 m 1,68,-1
 273 1024 l 1,69,-1
 341 1024 l 1,70,-1
 341 955 l 1,71,-1
 273 955 l 1,68,-1
682 955 m 1,72,-1
 682 1024 l 1,73,-1
 750 1024 l 1,74,-1
 750 955 l 1,75,-1
 682 955 l 1,72,-1
136 1092 m 1,76,-1
 136 1160 l 1,77,-1
 204 1160 l 1,78,-1
 204 1092 l 1,79,-1
 136 1092 l 1,76,-1
682 1092 m 1,80,-1
 682 1160 l 1,81,-1
 750 1160 l 1,82,-1
 750 1092 l 1,83,-1
 682 1092 l 1,80,-1
EndSplineSet
Validated: 1
EndChar

StartChar: ampersand
Encoding: 38 38 7
Width: 955
Flags: W
LayerCount: 2
Fore
SplineSet
136 0 m 1,0,-1
 136 68 l 1,1,-1
 204 68 l 1,2,-1
 204 0 l 1,3,-1
 136 0 l 1,0,-1
273 0 m 1,4,-1
 273 68 l 1,5,-1
 341 68 l 1,6,-1
 341 0 l 1,7,-1
 273 0 l 1,4,-1
682 0 m 1,8,-1
 682 68 l 1,9,-1
 750 68 l 1,10,-1
 750 0 l 1,11,-1
 682 0 l 1,8,-1
0 136 m 1,12,-1
 0 204 l 1,13,-1
 68 204 l 1,14,-1
 68 136 l 1,15,-1
 0 136 l 1,12,-1
409 136 m 1,16,-1
 409 204 l 1,17,-1
 477 204 l 1,18,-1
 477 136 l 1,19,-1
 409 136 l 1,16,-1
682 136 m 1,20,-1
 682 204 l 1,21,-1
 750 204 l 1,22,-1
 750 136 l 1,23,-1
 682 136 l 1,20,-1
0 273 m 1,24,-1
 0 341 l 1,25,-1
 68 341 l 1,26,-1
 68 273 l 1,27,-1
 0 273 l 1,24,-1
546 273 m 1,28,-1
 546 341 l 1,29,-1
 614 341 l 1,30,-1
 614 273 l 1,31,-1
 546 273 l 1,28,-1
0 409 m 1,32,-1
 0 477 l 1,33,-1
 68 477 l 1,34,-1
 68 409 l 1,35,-1
 0 409 l 1,32,-1
409 409 m 1,36,-1
 409 477 l 1,37,-1
 477 477 l 1,38,-1
 477 409 l 1,39,-1
 409 409 l 1,36,-1
682 409 m 1,40,-1
 682 477 l 1,41,-1
 750 477 l 1,42,-1
 750 409 l 1,43,-1
 682 409 l 1,40,-1
136 546 m 1,44,-1
 136 614 l 1,45,-1
 204 614 l 1,46,-1
 204 546 l 1,47,-1
 136 546 l 1,44,-1
273 546 m 1,48,-1
 273 614 l 1,49,-1
 341 614 l 1,50,-1
 341 546 l 1,51,-1
 273 546 l 1,48,-1
682 546 m 1,52,-1
 682 614 l 1,53,-1
 750 614 l 1,54,-1
 750 546 l 1,55,-1
 682 546 l 1,52,-1
273 682 m 1,56,-1
 273 750 l 1,57,-1
 341 750 l 1,58,-1
 341 682 l 1,59,-1
 273 682 l 1,56,-1
409 682 m 1,60,-1
 409 750 l 1,61,-1
 477 750 l 1,62,-1
 477 682 l 1,63,-1
 409 682 l 1,60,-1
136 819 m 1,64,-1
 136 887 l 1,65,-1
 204 887 l 1,66,-1
 204 819 l 1,67,-1
 136 819 l 1,64,-1
546 819 m 1,68,-1
 546 887 l 1,69,-1
 614 887 l 1,70,-1
 614 819 l 1,71,-1
 546 819 l 1,68,-1
136 955 m 1,72,-1
 136 1024 l 1,73,-1
 204 1024 l 1,74,-1
 204 955 l 1,75,-1
 136 955 l 1,72,-1
546 955 m 1,76,-1
 546 1024 l 1,77,-1
 614 1024 l 1,78,-1
 614 955 l 1,79,-1
 546 955 l 1,76,-1
273 1092 m 1,80,-1
 273 1160 l 1,81,-1
 341 1160 l 1,82,-1
 341 1092 l 1,83,-1
 273 1092 l 1,80,-1
409 1092 m 1,84,-1
 409 1160 l 1,85,-1
 477 1160 l 1,86,-1
 477 1092 l 1,87,-1
 409 1092 l 1,84,-1
EndSplineSet
Validated: 1
EndChar

StartChar: quotesingle
Encoding: 39 39 8
Width: 273
Flags: W
LayerCount: 2
Fore
SplineSet
0 955 m 1,0,-1
 0 1024 l 1,1,-1
 68 1024 l 1,2,-1
 68 955 l 1,3,-1
 0 955 l 1,0,-1
0 1092 m 1,4,-1
 0 1160 l 1,5,-1
 68 1160 l 1,6,-1
 68 1092 l 1,7,-1
 0 1092 l 1,4,-1
EndSplineSet
Validated: 1
EndChar

StartChar: parenleft
Encoding: 40 40 9
Width: 546
Flags: W
LayerCount: 2
Fore
SplineSet
273 0 m 1,0,-1
 273 68 l 1,1,-1
 341 68 l 1,2,-1
 341 0 l 1,3,-1
 273 0 l 1,0,-1
136 136 m 1,4,-1
 136 204 l 1,5,-1
 204 204 l 1,6,-1
 204 136 l 1,7,-1
 136 136 l 1,4,-1
0 273 m 1,8,-1
 0 341 l 1,9,-1
 68 341 l 1,10,-1
 68 273 l 1,11,-1
 0 273 l 1,8,-1
0 409 m 1,12,-1
 0 477 l 1,13,-1
 68 477 l 1,14,-1
 68 409 l 1,15,-1
 0 409 l 1,12,-1
0 546 m 1,16,-1
 0 614 l 1,17,-1
 68 614 l 1,18,-1
 68 546 l 1,19,-1
 0 546 l 1,16,-1
0 682 m 1,20,-1
 0 750 l 1,21,-1
 68 750 l 1,22,-1
 68 682 l 1,23,-1
 0 682 l 1,20,-1
0 819 m 1,24,-1
 0 887 l 1,25,-1
 68 887 l 1,26,-1
 68 819 l 1,27,-1
 0 819 l 1,24,-1
136 955 m 1,28,-1
 136 1024 l 1,29,-1
 204 1024 l 1,30,-1
 204 955 l 1,31,-1
 136 955 l 1,28,-1
273 1092 m 1,32,-1
 273 1160 l 1,33,-1
 341 1160 l 1,34,-1
 341 1092 l 1,35,-1
 273 1092 l 1,32,-1
EndSplineSet
Validated: 1
EndChar

StartChar: parenright
Encoding: 41 41 10
Width: 546
Flags: W
LayerCount: 2
Fore
SplineSet
0 0 m 1,0,-1
 0 68 l 1,1,-1
 68 68 l 1,2,-1
 68 0 l 1,3,-1
 0 0 l 1,0,-1
136 136 m 1,4,-1
 136 204 l 1,5,-1
 204 204 l 1,6,-1
 204 136 l 1,7,-1
 136 136 l 1,4,-1
273 273 m 1,8,-1
 273 341 l 1,9,-1
 341 341 l 1,10,-1
 341 273 l 1,11,-1
 273 273 l 1,8,-1
273 409 m 1,12,-1
 273 477 l 1,13,-1
 341 477 l 1,14,-1
 341 409 l 1,15,-1
 273 409 l 1,12,-1
273 546 m 1,16,-1
 273 614 l 1,17,-1
 341 614 l 1,18,-1
 341 546 l 1,19,-1
 273 546 l 1,16,-1
273 682 m 1,20,-1
 273 750 l 1,21,-1
 341 750 l 1,22,-1
 341 682 l 1,23,-1
 273 682 l 1,20,-1
273 819 m 1,24,-1
 273 887 l 1,25,-1
 341 887 l 1,26,-1
 341 819 l 1,27,-1
 273 819 l 1,24,-1
136 955 m 1,28,-1
 136 1024 l 1,29,-1
 204 1024 l 1,30,-1
 204 955 l 1,31,-1
 136 955 l 1,28,-1
0 1092 m 1,32,-1
 0 1160 l 1,33,-1
 68 1160 l 1,34,-1
 68 1092 l 1,35,-1
 0 1092 l 1,32,-1
EndSplineSet
Validated: 1
EndChar

StartChar: asterisk
Encoding: 42 42 11
Width: 546
Flags: W
LayerCount: 2
Fore
SplineSet
0 819 m 1,0,-1
 0 887 l 1,1,-1
 68 887 l 1,2,-1
 68 819 l 1,3,-1
 0 819 l 1,0,-1
273 819 m 1,4,-1
 273 887 l 1,5,-1
 341 887 l 1,6,-1
 341 819 l 1,7,-1
 273 819 l 1,4,-1
136 955 m 1,8,-1
 136 1024 l 1,9,-1
 204 1024 l 1,10,-1
 204 955 l 1,11,-1
 136 955 l 1,8,-1
0 1092 m 1,12,-1
 0 1160 l 1,13,-1
 68 1160 l 1,14,-1
 68 1092 l 1,15,-1
 0 1092 l 1,12,-1
273 1092 m 1,16,-1
 273 1160 l 1,17,-1
 341 1160 l 1,18,-1
 341 1092 l 1,19,-1
 273 1092 l 1,16,-1
EndSplineSet
Validated: 1
EndChar

StartChar: plus
Encoding: 43 43 12
Width: 819
Flags: W
LayerCount: 2
Fore
SplineSet
273 136 m 1,0,-1
 273 204 l 1,1,-1
 341 204 l 1,2,-1
 341 136 l 1,3,-1
 273 136 l 1,0,-1
273 273 m 1,4,-1
 273 341 l 1,5,-1
 341 341 l 1,6,-1
 341 273 l 1,7,-1
 273 273 l 1,4,-1
0 409 m 1,8,-1
 0 477 l 1,9,-1
 68 477 l 1,10,-1
 68 409 l 1,11,-1
 0 409 l 1,8,-1
136 409 m 1,12,-1
 136 477 l 1,13,-1
 204 477 l 1,14,-1
 204 409 l 1,15,-1
 136 409 l 1,12,-1
273 409 m 1,16,-1
 273 477 l 1,17,-1
 341 477 l 1,18,-1
 341 409 l 1,19,-1
 273 409 l 1,16,-1
409 409 m 1,20,-1
 409 477 l 1,21,-1
 477 477 l 1,22,-1
 477 409 l 1,23,-1
 409 409 l 1,20,-1
546 409 m 1,24,-1
 546 477 l 1,25,-1
 614 477 l 1,26,-1
 614 409 l 1,27,-1
 546 409 l 1,24,-1
273 546 m 1,28,-1
 273 614 l 1,29,-1
 341 614 l 1,30,-1
 341 546 l 1,31,-1
 273 546 l 1,28,-1
273 682 m 1,32,-1
 273 750 l 1,33,-1
 341 750 l 1,34,-1
 341 682 l 1,35,-1
 273 682 l 1,32,-1
EndSplineSet
Validated: 1
EndChar

StartChar: comma
Encoding: 44 44 13
Width: 273
Flags: W
LayerCount: 2
Fore
SplineSet
0 -136 m 1,0,-1
 0 -68 l 1,1,-1
 68 -68 l 1,2,-1
 68 -136 l 1,3,-1
 0 -136 l 1,0,-1
0 0 m 1,4,-1
 0 68 l 1,5,-1
 68 68 l 1,6,-1
 68 0 l 1,7,-1
 0 0 l 1,4,-1
EndSplineSet
Validated: 1
EndChar

StartChar: hyphen
Encoding: 45 45 14
Width: 819
Flags: W
LayerCount: 2
Fore
SplineSet
0 409 m 1,0,-1
 0 477 l 1,1,-1
 68 477 l 1,2,-1
 68 409 l 1,3,-1
 0 409 l 1,0,-1
136 409 m 1,4,-1
 136 477 l 1,5,-1
 204 477 l 1,6,-1
 204 409 l 1,7,-1
 136 409 l 1,4,-1
273 409 m 1,8,-1
 273 477 l 1,9,-1
 341 477 l 1,10,-1
 341 409 l 1,11,-1
 273 409 l 1,8,-1
409 409 m 1,12,-1
 409 477 l 1,13,-1
 477 477 l 1,14,-1
 477 409 l 1,15,-1
 409 409 l 1,12,-1
546 409 m 1,16,-1
 546 477 l 1,17,-1
 614 477 l 1,18,-1
 614 409 l 1,19,-1
 546 409 l 1,16,-1
EndSplineSet
Validated: 1
EndChar

StartChar: period
Encoding: 46 46 15
Width: 273
Flags: W
LayerCount: 2
Fore
SplineSet
0 0 m 1,0,-1
 0 68 l 1,1,-1
 68 68 l 1,2,-1
 68 0 l 1,3,-1
 0 0 l 1,0,-1
EndSplineSet
Validated: 1
EndChar

StartChar: slash
Encoding: 47 47 16
Width: 819
Flags: W
LayerCount: 2
Fore
SplineSet
0 0 m 1,0,-1
 0 68 l 1,1,-1
 68 68 l 1,2,-1
 68 0 l 1,3,-1
 0 0 l 1,0,-1
0 136 m 1,4,-1
 0 204 l 1,5,-1
 68 204 l 1,6,-1
 68 136 l 1,7,-1
 0 136 l 1,4,-1
136 273 m 1,8,-1
 136 341 l 1,9,-1
 204 341 l 1,10,-1
 204 273 l 1,11,-1
 136 273 l 1,8,-1
136 409 m 1,12,-1
 136 477 l 1,13,-1
 204 477 l 1,14,-1
 204 409 l 1,15,-1
 136 409 l 1,12,-1
273 546 m 1,16,-1
 273 614 l 1,17,-1
 341 614 l 1,18,-1
 341 546 l 1,19,-1
 273 546 l 1,16,-1
409 682 m 1,20,-1
 409 750 l 1,21,-1
 477 750 l 1,22,-1
 477 682 l 1,23,-1
 409 682 l 1,20,-1
409 819 m 1,24,-1
 409 887 l 1,25,-1
 477 887 l 1,26,-1
 477 819 l 1,27,-1
 409 819 l 1,24,-1
546 955 m 1,28,-1
 546 1024 l 1,29,-1
 614 1024 l 1,30,-1
 614 955 l 1,31,-1
 546 955 l 1,28,-1
546 1092 m 1,32,-1
 546 1160 l 1,33,-1
 614 1160 l 1,34,-1
 614 1092 l 1,35,-1
 546 1092 l 1,32,-1
EndSplineSet
Validated: 1
EndChar

StartChar: zero
Encoding: 48 48 17
Width: 819
Flags: W
LayerCount: 2
Fore
SplineSet
136 0 m 1,0,-1
 136 68 l 1,1,-1
 204 68 l 1,2,-1
 204 0 l 1,3,-1
 136 0 l 1,0,-1
273 0 m 1,4,-1
 273 68 l 1,5,-1
 341 68 l 1,6,-1
 341 0 l 1,7,-1
 273 0 l 1,4,-1
409 0 m 1,8,-1
 409 68 l 1,9,-1
 477 68 l 1,10,-1
 477 0 l 1,11,-1
 409 0 l 1,8,-1
0 136 m 1,12,-1
 0 204 l 1,13,-1
 68 204 l 1,14,-1
 68 136 l 1,15,-1
 0 136 l 1,12,-1
546 136 m 1,16,-1
 546 204 l 1,17,-1
 614 204 l 1,18,-1
 614 136 l 1,19,-1
 546 136 l 1,16,-1
0 273 m 1,20,-1
 0 341 l 1,21,-1
 68 341 l 1,22,-1
 68 273 l 1,23,-1
 0 273 l 1,20,-1
546 273 m 1,24,-1
 546 341 l 1,25,-1
 614 341 l 1,26,-1
 614 273 l 1,27,-1
 546 273 l 1,24,-1
0 409 m 1,28,-1
 0 477 l 1,29,-1
 68 477 l 1,30,-1
 68 409 l 1,31,-1
 0 409 l 1,28,-1
136 409 m 1,32,-1
 136 477 l 1,33,-1
 204 477 l 1,34,-1
 204 409 l 1,35,-1
 136 409 l 1,32,-1
546 409 m 1,36,-1
 546 477 l 1,37,-1
 614 477 l 1,38,-1
 614 409 l 1,39,-1
 546 409 l 1,36,-1
0 546 m 1,40,-1
 0 614 l 1,41,-1
 68 614 l 1,42,-1
 68 546 l 1,43,-1
 0 546 l 1,40,-1
273 546 m 1,44,-1
 273 614 l 1,45,-1
 341 614 l 1,46,-1
 341 546 l 1,47,-1
 273 546 l 1,44,-1
546 546 m 1,48,-1
 546 614 l 1,49,-1
 614 614 l 1,50,-1
 614 546 l 1,51,-1
 546 546 l 1,48,-1
0 682 m 1,52,-1
 0 750 l 1,53,-1
 68 750 l 1,54,-1
 68 682 l 1,55,-1
 0 682 l 1,52,-1
409 682 m 1,56,-1
 409 750 l 1,57,-1
 477 750 l 1,58,-1
 477 682 l 1,59,-1
 409 682 l 1,56,-1
546 682 m 1,60,-1
 546 750 l 1,61,-1
 614 750 l 1,62,-1
 614 682 l 1,63,-1
 546 682 l 1,60,-1
0 819 m 1,64,-1
 0 887 l 1,65,-1
 68 887 l 1,66,-1
 68 819 l 1,67,-1
 0 819 l 1,64,-1
546 819 m 1,68,-1
 546 887 l 1,69,-1
 614 887 l 1,70,-1
 614 819 l 1,71,-1
 546 819 l 1,68,-1
0 955 m 1,72,-1
 0 1024 l 1,73,-1
 68 1024 l 1,74,-1
 68 955 l 1,75,-1
 0 955 l 1,72,-1
546 955 m 1,76,-1
 546 1024 l 1,77,-1
 614 1024 l 1,78,-1
 614 955 l 1,79,-1
 546 955 l 1,76,-1
136 1092 m 1,80,-1
 136 1160 l 1,81,-1
 204 1160 l 1,82,-1
 204 1092 l 1,83,-1
 136 1092 l 1,80,-1
273 1092 m 1,84,-1
 273 1160 l 1,85,-1
 341 1160 l 1,86,-1
 341 1092 l 1,87,-1
 273 1092 l 1,84,-1
409 1092 m 1,88,-1
 409 1160 l 1,89,-1
 477 1160 l 1,90,-1
 477 1092 l 1,91,-1
 409 1092 l 1,88,-1
EndSplineSet
Validated: 1
EndChar

StartChar: one
Encoding: 49 49 18
Width: 819
Flags: W
LayerCount: 2
Fore
SplineSet
0 0 m 1,0,-1
 0 68 l 1,1,-1
 68 68 l 1,2,-1
 68 0 l 1,3,-1
 0 0 l 1,0,-1
136 0 m 1,4,-1
 136 68 l 1,5,-1
 204 68 l 1,6,-1
 204 0 l 1,7,-1
 136 0 l 1,4,-1
273 0 m 1,8,-1
 273 68 l 1,9,-1
 341 68 l 1,10,-1
 341 0 l 1,11,-1
 273 0 l 1,8,-1
409 0 m 1,12,-1
 409 68 l 1,13,-1
 477 68 l 1,14,-1
 477 0 l 1,15,-1
 409 0 l 1,12,-1
546 0 m 1,16,-1
 546 68 l 1,17,-1
 614 68 l 1,18,-1
 614 0 l 1,19,-1
 546 0 l 1,16,-1
273 136 m 1,20,-1
 273 204 l 1,21,-1
 341 204 l 1,22,-1
 341 136 l 1,23,-1
 273 136 l 1,20,-1
273 273 m 1,24,-1
 273 341 l 1,25,-1
 341 341 l 1,26,-1
 341 273 l 1,27,-1
 273 273 l 1,24,-1
273 409 m 1,28,-1
 273 477 l 1,29,-1
 341 477 l 1,30,-1
 341 409 l 1,31,-1
 273 409 l 1,28,-1
273 546 m 1,32,-1
 273 614 l 1,33,-1
 341 614 l 1,34,-1
 341 546 l 1,35,-1
 273 546 l 1,32,-1
273 682 m 1,36,-1
 273 750 l 1,37,-1
 341 750 l 1,38,-1
 341 682 l 1,39,-1
 273 682 l 1,36,-1
273 819 m 1,40,-1
 273 887 l 1,41,-1
 341 887 l 1,42,-1
 341 819 l 1,43,-1
 273 819 l 1,40,-1
0 955 m 1,44,-1
 0 1024 l 1,45,-1
 68 1024 l 1,46,-1
 68 955 l 1,47,-1
 0 955 l 1,44,-1
136 955 m 1,48,-1
 136 1024 l 1,49,-1
 204 1024 l 1,50,-1
 204 955 l 1,51,-1
 136 955 l 1,48,-1
273 955 m 1,52,-1
 273 1024 l 1,53,-1
 341 1024 l 1,54,-1
 341 955 l 1,55,-1
 273 955 l 1,52,-1
273 1092 m 1,56,-1
 273 1160 l 1,57,-1
 341 1160 l 1,58,-1
 341 1092 l 1,59,-1
 273 1092 l 1,56,-1
EndSplineSet
Validated: 1
EndChar

StartChar: two
Encoding: 50 50 19
Width: 819
Flags: W
LayerCount: 2
Fore
SplineSet
0 0 m 1,0,-1
 0 68 l 1,1,-1
 68 68 l 1,2,-1
 68 0 l 1,3,-1
 0 0 l 1,0,-1
136 0 m 1,4,-1
 136 68 l 1,5,-1
 204 68 l 1,6,-1
 204 0 l 1,7,-1
 136 0 l 1,4,-1
273 0 m 1,8,-1
 273 68 l 1,9,-1
 341 68 l 1,10,-1
 341 0 l 1,11,-1
 273 0 l 1,8,-1
409 0 m 1,12,-1
 409 68 l 1,13,-1
 477 68 l 1,14,-1
 477 0 l 1,15,-1
 409 0 l 1,12,-1
546 0 m 1,16,-1
 546 68 l 1,17,-1
 614 68 l 1,18,-1
 614 0 l 1,19,-1
 546 0 l 1,16,-1
0 136 m 1,20,-1
 0 204 l 1,21,-1
 68 204 l 1,22,-1
 68 136 l 1,23,-1
 0 136 l 1,20,-1
136 273 m 1,24,-1
 136 341 l 1,25,-1
 204 341 l 1,26,-1
 204 273 l 1,27,-1
 136 273 l 1,24,-1
273 409 m 1,28,-1
 273 477 l 1,29,-1
 341 477 l 1,30,-1
 341 409 l 1,31,-1
 273 409 l 1,28,-1
409 546 m 1,32,-1
 409 614 l 1,33,-1
 477 614 l 1,34,-1
 477 546 l 1,35,-1
 409 546 l 1,32,-1
136 682 m 1,36,-1
 136 750 l 1,37,-1
 204 750 l 1,38,-1
 204 682 l 1,39,-1
 136 682 l 1,36,-1
546 682 m 1,40,-1
 546 750 l 1,41,-1
 614 750 l 1,42,-1
 614 682 l 1,43,-1
 546 682 l 1,40,-1
0 819 m 1,44,-1
 0 887 l 1,45,-1
 68 887 l 1,46,-1
 68 819 l 1,47,-1
 0 819 l 1,44,-1
546 819 m 1,48,-1
 546 887 l 1,49,-1
 614 887 l 1,50,-1
 614 819 l 1,51,-1
 546 819 l 1,48,-1
0 955 m 1,52,-1
 0 1024 l 1,53,-1
 68 1024 l 1,54,-1
 68 955 l 1,55,-1
 0 955 l 1,52,-1
546 955 m 1,56,-1
 546 1024 l 1,57,-1
 614 1024 l 1,58,-1
 614 955 l 1,59,-1
 546 955 l 1,56,-1
136 1092 m 1,60,-1
 136 1160 l 1,61,-1
 204 1160 l 1,62,-1
 204 1092 l 1,63,-1
 136 1092 l 1,60,-1
273 1092 m 1,64,-1
 273 1160 l 1,65,-1
 341 1160 l 1,66,-1
 341 1092 l 1,67,-1
 273 1092 l 1,64,-1
409 1092 m 1,68,-1
 409 1160 l 1,69,-1
 477 1160 l 1,70,-1
 477 1092 l 1,71,-1
 409 1092 l 1,68,-1
EndSplineSet
Validated: 1
EndChar

StartChar: three
Encoding: 51 51 20
Width: 819
Flags: W
LayerCount: 2
Fore
SplineSet
136 0 m 1,0,-1
 136 68 l 1,1,-1
 204 68 l 1,2,-1
 204 0 l 1,3,-1
 136 0 l 1,0,-1
273 0 m 1,4,-1
 273 68 l 1,5,-1
 341 68 l 1,6,-1
 341 0 l 1,7,-1
 273 0 l 1,4,-1
409 0 m 1,8,-1
 409 68 l 1,9,-1
 477 68 l 1,10,-1
 477 0 l 1,11,-1
 409 0 l 1,8,-1
0 136 m 1,12,-1
 0 204 l 1,13,-1
 68 204 l 1,14,-1
 68 136 l 1,15,-1
 0 136 l 1,12,-1
546 136 m 1,16,-1
 546 204 l 1,17,-1
 614 204 l 1,18,-1
 614 136 l 1,19,-1
 546 136 l 1,16,-1
546 273 m 1,20,-1
 546 341 l 1,21,-1
 614 341 l 1,22,-1
 614 273 l 1,23,-1
 546 273 l 1,20,-1
546 409 m 1,24,-1
 546 477 l 1,25,-1
 614 477 l 1,26,-1
 614 409 l 1,27,-1
 546 409 l 1,24,-1
273 546 m 1,28,-1
 273 614 l 1,29,-1
 341 614 l 1,30,-1
 341 546 l 1,31,-1
 273 546 l 1,28,-1
409 546 m 1,32,-1
 409 614 l 1,33,-1
 477 614 l 1,34,-1
 477 546 l 1,35,-1
 409 546 l 1,32,-1
546 682 m 1,36,-1
 546 750 l 1,37,-1
 614 750 l 1,38,-1
 614 682 l 1,39,-1
 546 682 l 1,36,-1
0 819 m 1,40,-1
 0 887 l 1,41,-1
 68 887 l 1,42,-1
 68 819 l 1,43,-1
 0 819 l 1,40,-1
546 819 m 1,44,-1
 546 887 l 1,45,-1
 614 887 l 1,46,-1
 614 819 l 1,47,-1
 546 819 l 1,44,-1
0 955 m 1,48,-1
 0 1024 l 1,49,-1
 68 1024 l 1,50,-1
 68 955 l 1,51,-1
 0 955 l 1,48,-1
546 955 m 1,52,-1
 546 1024 l 1,53,-1
 614 1024 l 1,54,-1
 614 955 l 1,55,-1
 546 955 l 1,52,-1
136 1092 m 1,56,-1
 136 1160 l 1,57,-1
 204 1160 l 1,58,-1
 204 1092 l 1,59,-1
 136 1092 l 1,56,-1
273 1092 m 1,60,-1
 273 1160 l 1,61,-1
 341 1160 l 1,62,-1
 341 1092 l 1,63,-1
 273 1092 l 1,60,-1
409 1092 m 1,64,-1
 409 1160 l 1,65,-1
 477 1160 l 1,66,-1
 477 1092 l 1,67,-1
 409 1092 l 1,64,-1
EndSplineSet
Validated: 1
EndChar

StartChar: four
Encoding: 52 52 21
Width: 819
Flags: W
LayerCount: 2
Fore
SplineSet
546 0 m 1,0,-1
 546 68 l 1,1,-1
 614 68 l 1,2,-1
 614 0 l 1,3,-1
 546 0 l 1,0,-1
546 136 m 1,4,-1
 546 204 l 1,5,-1
 614 204 l 1,6,-1
 614 136 l 1,7,-1
 546 136 l 1,4,-1
546 273 m 1,8,-1
 546 341 l 1,9,-1
 614 341 l 1,10,-1
 614 273 l 1,11,-1
 546 273 l 1,8,-1
0 409 m 1,12,-1
 0 477 l 1,13,-1
 68 477 l 1,14,-1
 68 409 l 1,15,-1
 0 409 l 1,12,-1
136 409 m 1,16,-1
 136 477 l 1,17,-1
 204 477 l 1,18,-1
 204 409 l 1,19,-1
 136 409 l 1,16,-1
273 409 m 1,20,-1
 273 477 l 1,21,-1
 341 477 l 1,22,-1
 341 409 l 1,23,-1
 273 409 l 1,20,-1
409 409 m 1,24,-1
 409 477 l 1,25,-1
 477 477 l 1,26,-1
 477 409 l 1,27,-1
 409 409 l 1,24,-1
546 409 m 1,28,-1
 546 477 l 1,29,-1
 614 477 l 1,30,-1
 614 409 l 1,31,-1
 546 409 l 1,28,-1
0 546 m 1,32,-1
 0 614 l 1,33,-1
 68 614 l 1,34,-1
 68 546 l 1,35,-1
 0 546 l 1,32,-1
546 546 m 1,36,-1
 546 614 l 1,37,-1
 614 614 l 1,38,-1
 614 546 l 1,39,-1
 546 546 l 1,36,-1
136 682 m 1,40,-1
 136 750 l 1,41,-1
 204 750 l 1,42,-1
 204 682 l 1,43,-1
 136 682 l 1,40,-1
546 682 m 1,44,-1
 546 750 l 1,45,-1
 614 750 l 1,46,-1
 614 682 l 1,47,-1
 546 682 l 1,44,-1
273 819 m 1,48,-1
 273 887 l 1,49,-1
 341 887 l 1,50,-1
 341 819 l 1,51,-1
 273 819 l 1,48,-1
546 819 m 1,52,-1
 546 887 l 1,53,-1
 614 887 l 1,54,-1
 614 819 l 1,55,-1
 546 819 l 1,52,-1
273 955 m 1,56,-1
 273 1024 l 1,57,-1
 341 1024 l 1,58,-1
 341 955 l 1,59,-1
 273 955 l 1,56,-1
546 955 m 1,60,-1
 546 1024 l 1,61,-1
 614 1024 l 1,62,-1
 614 955 l 1,63,-1
 546 955 l 1,60,-1
273 1092 m 1,64,-1
 273 1160 l 1,65,-1
 341 1160 l 1,66,-1
 341 1092 l 1,67,-1
 273 1092 l 1,64,-1
EndSplineSet
Validated: 1
EndChar

StartChar: five
Encoding: 53 53 22
Width: 819
Flags: W
LayerCount: 2
Fore
SplineSet
136 0 m 1,0,-1
 136 68 l 1,1,-1
 204 68 l 1,2,-1
 204 0 l 1,3,-1
 136 0 l 1,0,-1
273 0 m 1,4,-1
 273 68 l 1,5,-1
 341 68 l 1,6,-1
 341 0 l 1,7,-1
 273 0 l 1,4,-1
409 0 m 1,8,-1
 409 68 l 1,9,-1
 477 68 l 1,10,-1
 477 0 l 1,11,-1
 409 0 l 1,8,-1
0 136 m 1,12,-1
 0 204 l 1,13,-1
 68 204 l 1,14,-1
 68 136 l 1,15,-1
 0 136 l 1,12,-1
546 136 m 1,16,-1
 546 204 l 1,17,-1
 614 204 l 1,18,-1
 614 136 l 1,19,-1
 546 136 l 1,16,-1
546 273 m 1,20,-1
 546 341 l 1,21,-1
 614 341 l 1,22,-1
 614 273 l 1,23,-1
 546 273 l 1,20,-1
546 409 m 1,24,-1
 546 477 l 1,25,-1
 614 477 l 1,26,-1
 614 409 l 1,27,-1
 546 409 l 1,24,-1
0 546 m 1,28,-1
 0 614 l 1,29,-1
 68 614 l 1,30,-1
 68 546 l 1,31,-1
 0 546 l 1,28,-1
136 546 m 1,32,-1
 136 614 l 1,33,-1
 204 614 l 1,34,-1
 204 546 l 1,35,-1
 136 546 l 1,32,-1
546 546 m 1,36,-1
 546 614 l 1,37,-1
 614 614 l 1,38,-1
 614 546 l 1,39,-1
 546 546 l 1,36,-1
0 682 m 1,40,-1
 0 750 l 1,41,-1
 68 750 l 1,42,-1
 68 682 l 1,43,-1
 0 682 l 1,40,-1
273 682 m 1,44,-1
 273 750 l 1,45,-1
 341 750 l 1,46,-1
 341 682 l 1,47,-1
 273 682 l 1,44,-1
409 682 m 1,48,-1
 409 750 l 1,49,-1
 477 750 l 1,50,-1
 477 682 l 1,51,-1
 409 682 l 1,48,-1
0 819 m 1,52,-1
 0 887 l 1,53,-1
 68 887 l 1,54,-1
 68 819 l 1,55,-1
 0 819 l 1,52,-1
0 955 m 1,56,-1
 0 1024 l 1,57,-1
 68 1024 l 1,58,-1
 68 955 l 1,59,-1
 0 955 l 1,56,-1
0 1092 m 1,60,-1
 0 1160 l 1,61,-1
 68 1160 l 1,62,-1
 68 1092 l 1,63,-1
 0 1092 l 1,60,-1
136 1092 m 1,64,-1
 136 1160 l 1,65,-1
 204 1160 l 1,66,-1
 204 1092 l 1,67,-1
 136 1092 l 1,64,-1
273 1092 m 1,68,-1
 273 1160 l 1,69,-1
 341 1160 l 1,70,-1
 341 1092 l 1,71,-1
 273 1092 l 1,68,-1
409 1092 m 1,72,-1
 409 1160 l 1,73,-1
 477 1160 l 1,74,-1
 477 1092 l 1,75,-1
 409 1092 l 1,72,-1
546 1092 m 1,76,-1
 546 1160 l 1,77,-1
 614 1160 l 1,78,-1
 614 1092 l 1,79,-1
 546 1092 l 1,76,-1
EndSplineSet
Validated: 1
EndChar

StartChar: six
Encoding: 54 54 23
Width: 819
Flags: W
LayerCount: 2
Fore
SplineSet
136 0 m 1,0,-1
 136 68 l 1,1,-1
 204 68 l 1,2,-1
 204 0 l 1,3,-1
 136 0 l 1,0,-1
273 0 m 1,4,-1
 273 68 l 1,5,-1
 341 68 l 1,6,-1
 341 0 l 1,7,-1
 273 0 l 1,4,-1
0 136 m 1,8,-1
 0 204 l 1,9,-1
 68 204 l 1,10,-1
 68 136 l 1,11,-1
 0 136 l 1,8,-1
409 136 m 1,12,-1
 409 204 l 1,13,-1
 477 204 l 1,14,-1
 477 136 l 1,15,-1
 409 136 l 1,12,-1
0 273 m 1,16,-1
 0 341 l 1,17,-1
 68 341 l 1,18,-1
 68 273 l 1,19,-1
 0 273 l 1,16,-1
546 273 m 1,20,-1
 546 341 l 1,21,-1
 614 341 l 1,22,-1
 614 273 l 1,23,-1
 546 273 l 1,20,-1
0 409 m 1,24,-1
 0 477 l 1,25,-1
 68 477 l 1,26,-1
 68 409 l 1,27,-1
 0 409 l 1,24,-1
546 409 m 1,28,-1
 546 477 l 1,29,-1
 614 477 l 1,30,-1
 614 409 l 1,31,-1
 546 409 l 1,28,-1
0 546 m 1,32,-1
 0 614 l 1,33,-1
 68 614 l 1,34,-1
 68 546 l 1,35,-1
 0 546 l 1,32,-1
136 546 m 1,36,-1
 136 614 l 1,37,-1
 204 614 l 1,38,-1
 204 546 l 1,39,-1
 136 546 l 1,36,-1
546 546 m 1,40,-1
 546 614 l 1,41,-1
 614 614 l 1,42,-1
 614 546 l 1,43,-1
 546 546 l 1,40,-1
0 682 m 1,44,-1
 0 750 l 1,45,-1
 68 750 l 1,46,-1
 68 682 l 1,47,-1
 0 682 l 1,44,-1
273 682 m 1,48,-1
 273 750 l 1,49,-1
 341 750 l 1,50,-1
 341 682 l 1,51,-1
 273 682 l 1,48,-1
409 682 m 1,52,-1
 409 750 l 1,53,-1
 477 750 l 1,54,-1
 477 682 l 1,55,-1
 409 682 l 1,52,-1
0 819 m 1,56,-1
 0 887 l 1,57,-1
 68 887 l 1,58,-1
 68 819 l 1,59,-1
 0 819 l 1,56,-1
0 955 m 1,60,-1
 0 1024 l 1,61,-1
 68 1024 l 1,62,-1
 68 955 l 1,63,-1
 0 955 l 1,60,-1
546 955 m 1,64,-1
 546 1024 l 1,65,-1
 614 1024 l 1,66,-1
 614 955 l 1,67,-1
 546 955 l 1,64,-1
136 1092 m 1,68,-1
 136 1160 l 1,69,-1
 204 1160 l 1,70,-1
 204 1092 l 1,71,-1
 136 1092 l 1,68,-1
273 1092 m 1,72,-1
 273 1160 l 1,73,-1
 341 1160 l 1,74,-1
 341 1092 l 1,75,-1
 273 1092 l 1,72,-1
409 1092 m 1,76,-1
 409 1160 l 1,77,-1
 477 1160 l 1,78,-1
 477 1092 l 1,79,-1
 409 1092 l 1,76,-1
EndSplineSet
Validated: 1
EndChar

StartChar: seven
Encoding: 55 55 24
Width: 819
Flags: W
LayerCount: 2
Fore
SplineSet
273 0 m 1,0,-1
 273 68 l 1,1,-1
 341 68 l 1,2,-1
 341 0 l 1,3,-1
 273 0 l 1,0,-1
273 136 m 1,4,-1
 273 204 l 1,5,-1
 341 204 l 1,6,-1
 341 136 l 1,7,-1
 273 136 l 1,4,-1
273 273 m 1,8,-1
 273 341 l 1,9,-1
 341 341 l 1,10,-1
 341 273 l 1,11,-1
 273 273 l 1,8,-1
273 409 m 1,12,-1
 273 477 l 1,13,-1
 341 477 l 1,14,-1
 341 409 l 1,15,-1
 273 409 l 1,12,-1
273 546 m 1,16,-1
 273 614 l 1,17,-1
 341 614 l 1,18,-1
 341 546 l 1,19,-1
 273 546 l 1,16,-1
409 682 m 1,20,-1
 409 750 l 1,21,-1
 477 750 l 1,22,-1
 477 682 l 1,23,-1
 409 682 l 1,20,-1
409 819 m 1,24,-1
 409 887 l 1,25,-1
 477 887 l 1,26,-1
 477 819 l 1,27,-1
 409 819 l 1,24,-1
546 955 m 1,28,-1
 546 1024 l 1,29,-1
 614 1024 l 1,30,-1
 614 955 l 1,31,-1
 546 955 l 1,28,-1
0 1092 m 1,32,-1
 0 1160 l 1,33,-1
 68 1160 l 1,34,-1
 68 1092 l 1,35,-1
 0 1092 l 1,32,-1
136 1092 m 1,36,-1
 136 1160 l 1,37,-1
 204 1160 l 1,38,-1
 204 1092 l 1,39,-1
 136 1092 l 1,36,-1
273 1092 m 1,40,-1
 273 1160 l 1,41,-1
 341 1160 l 1,42,-1
 341 1092 l 1,43,-1
 273 1092 l 1,40,-1
409 1092 m 1,44,-1
 409 1160 l 1,45,-1
 477 1160 l 1,46,-1
 477 1092 l 1,47,-1
 409 1092 l 1,44,-1
546 1092 m 1,48,-1
 546 1160 l 1,49,-1
 614 1160 l 1,50,-1
 614 1092 l 1,51,-1
 546 1092 l 1,48,-1
EndSplineSet
Validated: 1
EndChar

StartChar: eight
Encoding: 56 56 25
Width: 819
Flags: W
LayerCount: 2
Fore
SplineSet
136 0 m 1,0,-1
 136 68 l 1,1,-1
 204 68 l 1,2,-1
 204 0 l 1,3,-1
 136 0 l 1,0,-1
273 0 m 1,4,-1
 273 68 l 1,5,-1
 341 68 l 1,6,-1
 341 0 l 1,7,-1
 273 0 l 1,4,-1
409 0 m 1,8,-1
 409 68 l 1,9,-1
 477 68 l 1,10,-1
 477 0 l 1,11,-1
 409 0 l 1,8,-1
0 136 m 1,12,-1
 0 204 l 1,13,-1
 68 204 l 1,14,-1
 68 136 l 1,15,-1
 0 136 l 1,12,-1
546 136 m 1,16,-1
 546 204 l 1,17,-1
 614 204 l 1,18,-1
 614 136 l 1,19,-1
 546 136 l 1,16,-1
0 273 m 1,20,-1
 0 341 l 1,21,-1
 68 341 l 1,22,-1
 68 273 l 1,23,-1
 0 273 l 1,20,-1
546 273 m 1,24,-1
 546 341 l 1,25,-1
 614 341 l 1,26,-1
 614 273 l 1,27,-1
 546 273 l 1,24,-1
136 409 m 1,28,-1
 136 477 l 1,29,-1
 204 477 l 1,30,-1
 204 409 l 1,31,-1
 136 409 l 1,28,-1
409 409 m 1,32,-1
 409 477 l 1,33,-1
 477 477 l 1,34,-1
 477 409 l 1,35,-1
 409 409 l 1,32,-1
273 546 m 1,36,-1
 273 614 l 1,37,-1
 341 614 l 1,38,-1
 341 546 l 1,39,-1
 273 546 l 1,36,-1
136 682 m 1,40,-1
 136 750 l 1,41,-1
 204 750 l 1,42,-1
 204 682 l 1,43,-1
 136 682 l 1,40,-1
409 682 m 1,44,-1
 409 750 l 1,45,-1
 477 750 l 1,46,-1
 477 682 l 1,47,-1
 409 682 l 1,44,-1
0 819 m 1,48,-1
 0 887 l 1,49,-1
 68 887 l 1,50,-1
 68 819 l 1,51,-1
 0 819 l 1,48,-1
546 819 m 1,52,-1
 546 887 l 1,53,-1
 614 887 l 1,54,-1
 614 819 l 1,55,-1
 546 819 l 1,52,-1
0 955 m 1,56,-1
 0 1024 l 1,57,-1
 68 1024 l 1,58,-1
 68 955 l 1,59,-1
 0 955 l 1,56,-1
546 955 m 1,60,-1
 546 1024 l 1,61,-1
 614 1024 l 1,62,-1
 614 955 l 1,63,-1
 546 955 l 1,60,-1
136 1092 m 1,64,-1
 136 1160 l 1,65,-1
 204 1160 l 1,66,-1
 204 1092 l 1,67,-1
 136 1092 l 1,64,-1
273 1092 m 1,68,-1
 273 1160 l 1,69,-1
 341 1160 l 1,70,-1
 341 1092 l 1,71,-1
 273 1092 l 1,68,-1
409 1092 m 1,72,-1
 409 1160 l 1,73,-1
 477 1160 l 1,74,-1
 477 1092 l 1,75,-1
 409 1092 l 1,72,-1
EndSplineSet
Validated: 1
EndChar

StartChar: nine
Encoding: 57 57 26
Width: 819
Flags: W
LayerCount: 2
Fore
SplineSet
136 0 m 1,0,-1
 136 68 l 1,1,-1
 204 68 l 1,2,-1
 204 0 l 1,3,-1
 136 0 l 1,0,-1
273 0 m 1,4,-1
 273 68 l 1,5,-1
 341 68 l 1,6,-1
 341 0 l 1,7,-1
 273 0 l 1,4,-1
409 0 m 1,8,-1
 409 68 l 1,9,-1
 477 68 l 1,10,-1
 477 0 l 1,11,-1
 409 0 l 1,8,-1
0 136 m 1,12,-1
 0 204 l 1,13,-1
 68 204 l 1,14,-1
 68 136 l 1,15,-1
 0 136 l 1,12,-1
546 136 m 1,16,-1
 546 204 l 1,17,-1
 614 204 l 1,18,-1
 614 136 l 1,19,-1
 546 136 l 1,16,-1
546 273 m 1,20,-1
 546 341 l 1,21,-1
 614 341 l 1,22,-1
 614 273 l 1,23,-1
 546 273 l 1,20,-1
273 409 m 1,24,-1
 273 477 l 1,25,-1
 341 477 l 1,26,-1
 341 409 l 1,27,-1
 273 409 l 1,24,-1
409 409 m 1,28,-1
 409 477 l 1,29,-1
 477 477 l 1,30,-1
 477 409 l 1,31,-1
 409 409 l 1,28,-1
546 409 m 1,32,-1
 546 477 l 1,33,-1
 614 477 l 1,34,-1
 614 409 l 1,35,-1
 546 409 l 1,32,-1
136 546 m 1,36,-1
 136 614 l 1,37,-1
 204 614 l 1,38,-1
 204 546 l 1,39,-1
 136 546 l 1,36,-1
546 546 m 1,40,-1
 546 614 l 1,41,-1
 614 614 l 1,42,-1
 614 546 l 1,43,-1
 546 546 l 1,40,-1
0 682 m 1,44,-1
 0 750 l 1,45,-1
 68 750 l 1,46,-1
 68 682 l 1,47,-1
 0 682 l 1,44,-1
546 682 m 1,48,-1
 546 750 l 1,49,-1
 614 750 l 1,50,-1
 614 682 l 1,51,-1
 546 682 l 1,48,-1
0 819 m 1,52,-1
 0 887 l 1,53,-1
 68 887 l 1,54,-1
 68 819 l 1,55,-1
 0 819 l 1,52,-1
546 819 m 1,56,-1
 546 887 l 1,57,-1
 614 887 l 1,58,-1
 614 819 l 1,59,-1
 546 819 l 1,56,-1
0 955 m 1,60,-1
 0 1024 l 1,61,-1
 68 1024 l 1,62,-1
 68 955 l 1,63,-1
 0 955 l 1,60,-1
546 955 m 1,64,-1
 546 1024 l 1,65,-1
 614 1024 l 1,66,-1
 614 955 l 1,67,-1
 546 955 l 1,64,-1
136 1092 m 1,68,-1
 136 1160 l 1,69,-1
 204 1160 l 1,70,-1
 204 1092 l 1,71,-1
 136 1092 l 1,68,-1
273 1092 m 1,72,-1
 273 1160 l 1,73,-1
 341 1160 l 1,74,-1
 341 1092 l 1,75,-1
 273 1092 l 1,72,-1
409 1092 m 1,76,-1
 409 1160 l 1,77,-1
 477 1160 l 1,78,-1
 477 1092 l 1,79,-1
 409 1092 l 1,76,-1
EndSplineSet
Validated: 1
EndChar

StartChar: colon
Encoding: 58 58 27
Width: 273
Flags: W
LayerCount: 2
Fore
SplineSet
0 273 m 1,0,-1
 0 341 l 1,1,-1
 68 341 l 1,2,-1
 68 273 l 1,3,-1
 0 273 l 1,0,-1
0 682 m 1,4,-1
 0 750 l 1,5,-1
 68 750 l 1,6,-1
 68 682 l 1,7,-1
 0 682 l 1,4,-1
EndSplineSet
Validated: 1
EndChar

StartChar: semicolon
Encoding: 59 59 28
Width: 273
Flags: W
LayerCount: 2
Fore
SplineSet
0 136 m 1,0,-1
 0 204 l 1,1,-1
 68 204 l 1,2,-1
 68 136 l 1,3,-1
 0 136 l 1,0,-1
0 273 m 1,4,-1
 0 341 l 1,5,-1
 68 341 l 1,6,-1
 68 273 l 1,7,-1
 0 273 l 1,4,-1
0 682 m 1,8,-1
 0 750 l 1,9,-1
 68 750 l 1,10,-1
 68 682 l 1,11,-1
 0 682 l 1,8,-1
EndSplineSet
Validated: 1
EndChar

StartChar: less
Encoding: 60 60 29
Width: 955
Flags: W
LayerCount: 2
Fore
SplineSet
682 0 m 1,0,-1
 682 68 l 1,1,-1
 750 68 l 1,2,-1
 750 0 l 1,3,-1
 682 0 l 1,0,-1
546 136 m 1,4,-1
 546 204 l 1,5,-1
 614 204 l 1,6,-1
 614 136 l 1,7,-1
 546 136 l 1,4,-1
273 273 m 1,8,-1
 273 341 l 1,9,-1
 341 341 l 1,10,-1
 341 273 l 1,11,-1
 273 273 l 1,8,-1
409 273 m 1,12,-1
 409 341 l 1,13,-1
 477 341 l 1,14,-1
 477 273 l 1,15,-1
 409 273 l 1,12,-1
0 409 m 1,16,-1
 0 477 l 1,17,-1
 68 477 l 1,18,-1
 68 409 l 1,19,-1
 0 409 l 1,16,-1
136 409 m 1,20,-1
 136 477 l 1,21,-1
 204 477 l 1,22,-1
 204 409 l 1,23,-1
 136 409 l 1,20,-1
273 546 m 1,24,-1
 273 614 l 1,25,-1
 341 614 l 1,26,-1
 341 546 l 1,27,-1
 273 546 l 1,24,-1
409 546 m 1,28,-1
 409 614 l 1,29,-1
 477 614 l 1,30,-1
 477 546 l 1,31,-1
 409 546 l 1,28,-1
546 682 m 1,32,-1
 546 750 l 1,33,-1
 614 750 l 1,34,-1
 614 682 l 1,35,-1
 546 682 l 1,32,-1
682 819 m 1,36,-1
 682 887 l 1,37,-1
 750 887 l 1,38,-1
 750 819 l 1,39,-1
 682 819 l 1,36,-1
EndSplineSet
Validated: 1
EndChar

StartChar: equal
Encoding: 61 61 30
Width: 819
Flags: W
LayerCount: 2
Fore
SplineSet
0 273 m 1,0,-1
 0 341 l 1,1,-1
 68 341 l 1,2,-1
 68 273 l 1,3,-1
 0 273 l 1,0,-1
136 273 m 1,4,-1
 136 341 l 1,5,-1
 204 341 l 1,6,-1
 204 273 l 1,7,-1
 136 273 l 1,4,-1
273 273 m 1,8,-1
 273 341 l 1,9,-1
 341 341 l 1,10,-1
 341 273 l 1,11,-1
 273 273 l 1,8,-1
409 273 m 1,12,-1
 409 341 l 1,13,-1
 477 341 l 1,14,-1
 477 273 l 1,15,-1
 409 273 l 1,12,-1
546 273 m 1,16,-1
 546 341 l 1,17,-1
 614 341 l 1,18,-1
 614 273 l 1,19,-1
 546 273 l 1,16,-1
0 682 m 1,20,-1
 0 750 l 1,21,-1
 68 750 l 1,22,-1
 68 682 l 1,23,-1
 0 682 l 1,20,-1
136 682 m 1,24,-1
 136 750 l 1,25,-1
 204 750 l 1,26,-1
 204 682 l 1,27,-1
 136 682 l 1,24,-1
273 682 m 1,28,-1
 273 750 l 1,29,-1
 341 750 l 1,30,-1
 341 682 l 1,31,-1
 273 682 l 1,28,-1
409 682 m 1,32,-1
 409 750 l 1,33,-1
 477 750 l 1,34,-1
 477 682 l 1,35,-1
 409 682 l 1,32,-1
546 682 m 1,36,-1
 546 750 l 1,37,-1
 614 750 l 1,38,-1
 614 682 l 1,39,-1
 546 682 l 1,36,-1
EndSplineSet
Validated: 1
EndChar

StartChar: greater
Encoding: 62 62 31
Width: 955
Flags: W
LayerCount: 2
Fore
SplineSet
0 0 m 1,0,-1
 0 68 l 1,1,-1
 68 68 l 1,2,-1
 68 0 l 1,3,-1
 0 0 l 1,0,-1
136 136 m 1,4,-1
 136 204 l 1,5,-1
 204 204 l 1,6,-1
 204 136 l 1,7,-1
 136 136 l 1,4,-1
273 273 m 1,8,-1
 273 341 l 1,9,-1
 341 341 l 1,10,-1
 341 273 l 1,11,-1
 273 273 l 1,8,-1
409 273 m 1,12,-1
 409 341 l 1,13,-1
 477 341 l 1,14,-1
 477 273 l 1,15,-1
 409 273 l 1,12,-1
546 409 m 1,16,-1
 546 477 l 1,17,-1
 614 477 l 1,18,-1
 614 409 l 1,19,-1
 546 409 l 1,16,-1
682 409 m 1,20,-1
 682 477 l 1,21,-1
 750 477 l 1,22,-1
 750 409 l 1,23,-1
 682 409 l 1,20,-1
273 546 m 1,24,-1
 273 614 l 1,25,-1
 341 614 l 1,26,-1
 341 546 l 1,27,-1
 273 546 l 1,24,-1
409 546 m 1,28,-1
 409 614 l 1,29,-1
 477 614 l 1,30,-1
 477 546 l 1,31,-1
 409 546 l 1,28,-1
136 682 m 1,32,-1
 136 750 l 1,33,-1
 204 750 l 1,34,-1
 204 682 l 1,35,-1
 136 682 l 1,32,-1
0 819 m 1,36,-1
 0 887 l 1,37,-1
 68 887 l 1,38,-1
 68 819 l 1,39,-1
 0 819 l 1,36,-1
EndSplineSet
Validated: 1
EndChar

StartChar: question
Encoding: 63 63 32
Width: 819
Flags: W
LayerCount: 2
Fore
SplineSet
273 0 m 1,0,-1
 273 68 l 1,1,-1
 341 68 l 1,2,-1
 341 0 l 1,3,-1
 273 0 l 1,0,-1
273 273 m 1,4,-1
 273 341 l 1,5,-1
 341 341 l 1,6,-1
 341 273 l 1,7,-1
 273 273 l 1,4,-1
273 409 m 1,8,-1
 273 477 l 1,9,-1
 341 477 l 1,10,-1
 341 409 l 1,11,-1
 273 409 l 1,8,-1
409 546 m 1,12,-1
 409 614 l 1,13,-1
 477 614 l 1,14,-1
 477 546 l 1,15,-1
 409 546 l 1,12,-1
136 682 m 1,16,-1
 136 750 l 1,17,-1
 204 750 l 1,18,-1
 204 682 l 1,19,-1
 136 682 l 1,16,-1
546 682 m 1,20,-1
 546 750 l 1,21,-1
 614 750 l 1,22,-1
 614 682 l 1,23,-1
 546 682 l 1,20,-1
0 819 m 1,24,-1
 0 887 l 1,25,-1
 68 887 l 1,26,-1
 68 819 l 1,27,-1
 0 819 l 1,24,-1
546 819 m 1,28,-1
 546 887 l 1,29,-1
 614 887 l 1,30,-1
 614 819 l 1,31,-1
 546 819 l 1,28,-1
0 955 m 1,32,-1
 0 1024 l 1,33,-1
 68 1024 l 1,34,-1
 68 955 l 1,35,-1
 0 955 l 1,32,-1
546 955 m 1,36,-1
 546 1024 l 1,37,-1
 614 1024 l 1,38,-1
 614 955 l 1,39,-1
 546 955 l 1,36,-1
136 1092 m 1,40,-1
 136 1160 l 1,41,-1
 204 1160 l 1,42,-1
 204 1092 l 1,43,-1
 136 1092 l 1,40,-1
273 1092 m 1,44,-1
 273 1160 l 1,45,-1
 341 1160 l 1,46,-1
 341 1092 l 1,47,-1
 273 1092 l 1,44,-1
409 1092 m 1,48,-1
 409 1160 l 1,49,-1
 477 1160 l 1,50,-1
 477 1092 l 1,51,-1
 409 1092 l 1,48,-1
EndSplineSet
Validated: 1
EndChar

StartChar: at
Encoding: 64 64 33
Width: 1228
Flags: W
LayerCount: 2
Fore
SplineSet
273 0 m 1,0,-1
 273 68 l 1,1,-1
 341 68 l 1,2,-1
 341 0 l 1,3,-1
 273 0 l 1,0,-1
409 0 m 1,4,-1
 409 68 l 1,5,-1
 477 68 l 1,6,-1
 477 0 l 1,7,-1
 409 0 l 1,4,-1
546 0 m 1,8,-1
 546 68 l 1,9,-1
 614 68 l 1,10,-1
 614 0 l 1,11,-1
 546 0 l 1,8,-1
682 0 m 1,12,-1
 682 68 l 1,13,-1
 750 68 l 1,14,-1
 750 0 l 1,15,-1
 682 0 l 1,12,-1
136 136 m 1,16,-1
 136 204 l 1,17,-1
 204 204 l 1,18,-1
 204 136 l 1,19,-1
 136 136 l 1,16,-1
0 273 m 1,20,-1
 0 341 l 1,21,-1
 68 341 l 1,22,-1
 68 273 l 1,23,-1
 0 273 l 1,20,-1
409 273 m 1,24,-1
 409 341 l 1,25,-1
 477 341 l 1,26,-1
 477 273 l 1,27,-1
 409 273 l 1,24,-1
546 273 m 1,28,-1
 546 341 l 1,29,-1
 614 341 l 1,30,-1
 614 273 l 1,31,-1
 546 273 l 1,28,-1
819 273 m 1,32,-1
 819 341 l 1,33,-1
 887 341 l 1,34,-1
 887 273 l 1,35,-1
 819 273 l 1,32,-1
0 409 m 1,36,-1
 0 477 l 1,37,-1
 68 477 l 1,38,-1
 68 409 l 1,39,-1
 0 409 l 1,36,-1
273 409 m 1,40,-1
 273 477 l 1,41,-1
 341 477 l 1,42,-1
 341 409 l 1,43,-1
 273 409 l 1,40,-1
682 409 m 1,44,-1
 682 477 l 1,45,-1
 750 477 l 1,46,-1
 750 409 l 1,47,-1
 682 409 l 1,44,-1
955 409 m 1,48,-1
 955 477 l 1,49,-1
 1024 477 l 1,50,-1
 1024 409 l 1,51,-1
 955 409 l 1,48,-1
0 546 m 1,52,-1
 0 614 l 1,53,-1
 68 614 l 1,54,-1
 68 546 l 1,55,-1
 0 546 l 1,52,-1
273 546 m 1,56,-1
 273 614 l 1,57,-1
 341 614 l 1,58,-1
 341 546 l 1,59,-1
 273 546 l 1,56,-1
682 546 m 1,60,-1
 682 614 l 1,61,-1
 750 614 l 1,62,-1
 750 546 l 1,63,-1
 682 546 l 1,60,-1
955 546 m 1,64,-1
 955 614 l 1,65,-1
 1024 614 l 1,66,-1
 1024 546 l 1,67,-1
 955 546 l 1,64,-1
0 682 m 1,68,-1
 0 750 l 1,69,-1
 68 750 l 1,70,-1
 68 682 l 1,71,-1
 0 682 l 1,68,-1
409 682 m 1,72,-1
 409 750 l 1,73,-1
 477 750 l 1,74,-1
 477 682 l 1,75,-1
 409 682 l 1,72,-1
546 682 m 1,76,-1
 546 750 l 1,77,-1
 614 750 l 1,78,-1
 614 682 l 1,79,-1
 546 682 l 1,76,-1
682 682 m 1,80,-1
 682 750 l 1,81,-1
 750 750 l 1,82,-1
 750 682 l 1,83,-1
 682 682 l 1,80,-1
955 682 m 1,84,-1
 955 750 l 1,85,-1
 1024 750 l 1,86,-1
 1024 682 l 1,87,-1
 955 682 l 1,84,-1
136 819 m 1,88,-1
 136 887 l 1,89,-1
 204 887 l 1,90,-1
 204 819 l 1,91,-1
 136 819 l 1,88,-1
955 819 m 1,92,-1
 955 887 l 1,93,-1
 1024 887 l 1,94,-1
 1024 819 l 1,95,-1
 955 819 l 1,92,-1
273 955 m 1,96,-1
 273 1024 l 1,97,-1
 341 1024 l 1,98,-1
 341 955 l 1,99,-1
 273 955 l 1,96,-1
409 955 m 1,100,-1
 409 1024 l 1,101,-1
 477 1024 l 1,102,-1
 477 955 l 1,103,-1
 409 955 l 1,100,-1
546 955 m 1,104,-1
 546 1024 l 1,105,-1
 614 1024 l 1,106,-1
 614 955 l 1,107,-1
 546 955 l 1,104,-1
682 955 m 1,108,-1
 682 1024 l 1,109,-1
 750 1024 l 1,110,-1
 750 955 l 1,111,-1
 682 955 l 1,108,-1
819 955 m 1,112,-1
 819 1024 l 1,113,-1
 887 1024 l 1,114,-1
 887 955 l 1,115,-1
 819 955 l 1,112,-1
EndSplineSet
Validated: 1
EndChar

StartChar: A
Encoding: 65 65 34
Width: 1092
Flags: W
LayerCount: 2
Fore
SplineSet
0 0 m 1,0,-1
 0 68 l 1,1,-1
 68 68 l 1,2,-1
 68 0 l 1,3,-1
 0 0 l 1,0,-1
819 0 m 1,4,-1
 819 68 l 1,5,-1
 887 68 l 1,6,-1
 887 0 l 1,7,-1
 819 0 l 1,4,-1
0 136 m 1,8,-1
 0 204 l 1,9,-1
 68 204 l 1,10,-1
 68 136 l 1,11,-1
 0 136 l 1,8,-1
819 136 m 1,12,-1
 819 204 l 1,13,-1
 887 204 l 1,14,-1
 887 136 l 1,15,-1
 819 136 l 1,12,-1
0 273 m 1,16,-1
 0 341 l 1,17,-1
 68 341 l 1,18,-1
 68 273 l 1,19,-1
 0 273 l 1,16,-1
819 273 m 1,20,-1
 819 341 l 1,21,-1
 887 341 l 1,22,-1
 887 273 l 1,23,-1
 819 273 l 1,20,-1
136 409 m 1,24,-1
 136 477 l 1,25,-1
 204 477 l 1,26,-1
 204 409 l 1,27,-1
 136 409 l 1,24,-1
273 409 m 1,28,-1
 273 477 l 1,29,-1
 341 477 l 1,30,-1
 341 409 l 1,31,-1
 273 409 l 1,28,-1
409 409 m 1,32,-1
 409 477 l 1,33,-1
 477 477 l 1,34,-1
 477 409 l 1,35,-1
 409 409 l 1,32,-1
546 409 m 1,36,-1
 546 477 l 1,37,-1
 614 477 l 1,38,-1
 614 409 l 1,39,-1
 546 409 l 1,36,-1
682 409 m 1,40,-1
 682 477 l 1,41,-1
 750 477 l 1,42,-1
 750 409 l 1,43,-1
 682 409 l 1,40,-1
136 546 m 1,44,-1
 136 614 l 1,45,-1
 204 614 l 1,46,-1
 204 546 l 1,47,-1
 136 546 l 1,44,-1
682 546 m 1,48,-1
 682 614 l 1,49,-1
 750 614 l 1,50,-1
 750 546 l 1,51,-1
 682 546 l 1,48,-1
136 682 m 1,52,-1
 136 750 l 1,53,-1
 204 750 l 1,54,-1
 204 682 l 1,55,-1
 136 682 l 1,52,-1
682 682 m 1,56,-1
 682 750 l 1,57,-1
 750 750 l 1,58,-1
 750 682 l 1,59,-1
 682 682 l 1,56,-1
273 819 m 1,60,-1
 273 887 l 1,61,-1
 341 887 l 1,62,-1
 341 819 l 1,63,-1
 273 819 l 1,60,-1
546 819 m 1,64,-1
 546 887 l 1,65,-1
 614 887 l 1,66,-1
 614 819 l 1,67,-1
 546 819 l 1,64,-1
273 955 m 1,68,-1
 273 1024 l 1,69,-1
 341 1024 l 1,70,-1
 341 955 l 1,71,-1
 273 955 l 1,68,-1
546 955 m 1,72,-1
 546 1024 l 1,73,-1
 614 1024 l 1,74,-1
 614 955 l 1,75,-1
 546 955 l 1,72,-1
409 1092 m 1,76,-1
 409 1160 l 1,77,-1
 477 1160 l 1,78,-1
 477 1092 l 1,79,-1
 409 1092 l 1,76,-1
EndSplineSet
Validated: 1
EndChar

StartChar: B
Encoding: 66 66 35
Width: 955
Flags: W
LayerCount: 2
Fore
SplineSet
0 0 m 1,0,-1
 0 68 l 1,1,-1
 68 68 l 1,2,-1
 68 0 l 1,3,-1
 0 0 l 1,0,-1
136 0 m 1,4,-1
 136 68 l 1,5,-1
 204 68 l 1,6,-1
 204 0 l 1,7,-1
 136 0 l 1,4,-1
273 0 m 1,8,-1
 273 68 l 1,9,-1
 341 68 l 1,10,-1
 341 0 l 1,11,-1
 273 0 l 1,8,-1
409 0 m 1,12,-1
 409 68 l 1,13,-1
 477 68 l 1,14,-1
 477 0 l 1,15,-1
 409 0 l 1,12,-1
546 0 m 1,16,-1
 546 68 l 1,17,-1
 614 68 l 1,18,-1
 614 0 l 1,19,-1
 546 0 l 1,16,-1
0 136 m 1,20,-1
 0 204 l 1,21,-1
 68 204 l 1,22,-1
 68 136 l 1,23,-1
 0 136 l 1,20,-1
682 136 m 1,24,-1
 682 204 l 1,25,-1
 750 204 l 1,26,-1
 750 136 l 1,27,-1
 682 136 l 1,24,-1
0 273 m 1,28,-1
 0 341 l 1,29,-1
 68 341 l 1,30,-1
 68 273 l 1,31,-1
 0 273 l 1,28,-1
682 273 m 1,32,-1
 682 341 l 1,33,-1
 750 341 l 1,34,-1
 750 273 l 1,35,-1
 682 273 l 1,32,-1
0 409 m 1,36,-1
 0 477 l 1,37,-1
 68 477 l 1,38,-1
 68 409 l 1,39,-1
 0 409 l 1,36,-1
546 409 m 1,40,-1
 546 477 l 1,41,-1
 614 477 l 1,42,-1
 614 409 l 1,43,-1
 546 409 l 1,40,-1
0 546 m 1,44,-1
 0 614 l 1,45,-1
 68 614 l 1,46,-1
 68 546 l 1,47,-1
 0 546 l 1,44,-1
136 546 m 1,48,-1
 136 614 l 1,49,-1
 204 614 l 1,50,-1
 204 546 l 1,51,-1
 136 546 l 1,48,-1
273 546 m 1,52,-1
 273 614 l 1,53,-1
 341 614 l 1,54,-1
 341 546 l 1,55,-1
 273 546 l 1,52,-1
409 546 m 1,56,-1
 409 614 l 1,57,-1
 477 614 l 1,58,-1
 477 546 l 1,59,-1
 409 546 l 1,56,-1
0 682 m 1,60,-1
 0 750 l 1,61,-1
 68 750 l 1,62,-1
 68 682 l 1,63,-1
 0 682 l 1,60,-1
546 682 m 1,64,-1
 546 750 l 1,65,-1
 614 750 l 1,66,-1
 614 682 l 1,67,-1
 546 682 l 1,64,-1
0 819 m 1,68,-1
 0 887 l 1,69,-1
 68 887 l 1,70,-1
 68 819 l 1,71,-1
 0 819 l 1,68,-1
682 819 m 1,72,-1
 682 887 l 1,73,-1
 750 887 l 1,74,-1
 750 819 l 1,75,-1
 682 819 l 1,72,-1
0 955 m 1,76,-1
 0 1024 l 1,77,-1
 68 1024 l 1,78,-1
 68 955 l 1,79,-1
 0 955 l 1,76,-1
682 955 m 1,80,-1
 682 1024 l 1,81,-1
 750 1024 l 1,82,-1
 750 955 l 1,83,-1
 682 955 l 1,80,-1
0 1092 m 1,84,-1
 0 1160 l 1,85,-1
 68 1160 l 1,86,-1
 68 1092 l 1,87,-1
 0 1092 l 1,84,-1
136 1092 m 1,88,-1
 136 1160 l 1,89,-1
 204 1160 l 1,90,-1
 204 1092 l 1,91,-1
 136 1092 l 1,88,-1
273 1092 m 1,92,-1
 273 1160 l 1,93,-1
 341 1160 l 1,94,-1
 341 1092 l 1,95,-1
 273 1092 l 1,92,-1
409 1092 m 1,96,-1
 409 1160 l 1,97,-1
 477 1160 l 1,98,-1
 477 1092 l 1,99,-1
 409 1092 l 1,96,-1
546 1092 m 1,100,-1
 546 1160 l 1,101,-1
 614 1160 l 1,102,-1
 614 1092 l 1,103,-1
 546 1092 l 1,100,-1
EndSplineSet
Validated: 1
EndChar

StartChar: C
Encoding: 67 67 36
Width: 955
Flags: W
LayerCount: 2
Fore
SplineSet
136 0 m 1,0,-1
 136 68 l 1,1,-1
 204 68 l 1,2,-1
 204 0 l 1,3,-1
 136 0 l 1,0,-1
273 0 m 1,4,-1
 273 68 l 1,5,-1
 341 68 l 1,6,-1
 341 0 l 1,7,-1
 273 0 l 1,4,-1
409 0 m 1,8,-1
 409 68 l 1,9,-1
 477 68 l 1,10,-1
 477 0 l 1,11,-1
 409 0 l 1,8,-1
546 0 m 1,12,-1
 546 68 l 1,13,-1
 614 68 l 1,14,-1
 614 0 l 1,15,-1
 546 0 l 1,12,-1
0 136 m 1,16,-1
 0 204 l 1,17,-1
 68 204 l 1,18,-1
 68 136 l 1,19,-1
 0 136 l 1,16,-1
682 136 m 1,20,-1
 682 204 l 1,21,-1
 750 204 l 1,22,-1
 750 136 l 1,23,-1
 682 136 l 1,20,-1
0 273 m 1,24,-1
 0 341 l 1,25,-1
 68 341 l 1,26,-1
 68 273 l 1,27,-1
 0 273 l 1,24,-1
0 409 m 1,28,-1
 0 477 l 1,29,-1
 68 477 l 1,30,-1
 68 409 l 1,31,-1
 0 409 l 1,28,-1
0 546 m 1,32,-1
 0 614 l 1,33,-1
 68 614 l 1,34,-1
 68 546 l 1,35,-1
 0 546 l 1,32,-1
0 682 m 1,36,-1
 0 750 l 1,37,-1
 68 750 l 1,38,-1
 68 682 l 1,39,-1
 0 682 l 1,36,-1
682 682 m 1,40,-1
 682 750 l 1,41,-1
 750 750 l 1,42,-1
 750 682 l 1,43,-1
 682 682 l 1,40,-1
0 819 m 1,44,-1
 0 887 l 1,45,-1
 68 887 l 1,46,-1
 68 819 l 1,47,-1
 0 819 l 1,44,-1
682 819 m 1,48,-1
 682 887 l 1,49,-1
 750 887 l 1,50,-1
 750 819 l 1,51,-1
 682 819 l 1,48,-1
0 955 m 1,52,-1
 0 1024 l 1,53,-1
 68 1024 l 1,54,-1
 68 955 l 1,55,-1
 0 955 l 1,52,-1
682 955 m 1,56,-1
 682 1024 l 1,57,-1
 750 1024 l 1,58,-1
 750 955 l 1,59,-1
 682 955 l 1,56,-1
136 1092 m 1,60,-1
 136 1160 l 1,61,-1
 204 1160 l 1,62,-1
 204 1092 l 1,63,-1
 136 1092 l 1,60,-1
273 1092 m 1,64,-1
 273 1160 l 1,65,-1
 341 1160 l 1,66,-1
 341 1092 l 1,67,-1
 273 1092 l 1,64,-1
409 1092 m 1,68,-1
 409 1160 l 1,69,-1
 477 1160 l 1,70,-1
 477 1092 l 1,71,-1
 409 1092 l 1,68,-1
546 1092 m 1,72,-1
 546 1160 l 1,73,-1
 614 1160 l 1,74,-1
 614 1092 l 1,75,-1
 546 1092 l 1,72,-1
EndSplineSet
Validated: 1
EndChar

StartChar: D
Encoding: 68 68 37
Width: 955
Flags: W
LayerCount: 2
Fore
SplineSet
0 0 m 1,0,-1
 0 68 l 1,1,-1
 68 68 l 1,2,-1
 68 0 l 1,3,-1
 0 0 l 1,0,-1
136 0 m 1,4,-1
 136 68 l 1,5,-1
 204 68 l 1,6,-1
 204 0 l 1,7,-1
 136 0 l 1,4,-1
273 0 m 1,8,-1
 273 68 l 1,9,-1
 341 68 l 1,10,-1
 341 0 l 1,11,-1
 273 0 l 1,8,-1
409 0 m 1,12,-1
 409 68 l 1,13,-1
 477 68 l 1,14,-1
 477 0 l 1,15,-1
 409 0 l 1,12,-1
0 136 m 1,16,-1
 0 204 l 1,17,-1
 68 204 l 1,18,-1
 68 136 l 1,19,-1
 0 136 l 1,16,-1
546 136 m 1,20,-1
 546 204 l 1,21,-1
 614 204 l 1,22,-1
 614 136 l 1,23,-1
 546 136 l 1,20,-1
0 273 m 1,24,-1
 0 341 l 1,25,-1
 68 341 l 1,26,-1
 68 273 l 1,27,-1
 0 273 l 1,24,-1
682 273 m 1,28,-1
 682 341 l 1,29,-1
 750 341 l 1,30,-1
 750 273 l 1,31,-1
 682 273 l 1,28,-1
0 409 m 1,32,-1
 0 477 l 1,33,-1
 68 477 l 1,34,-1
 68 409 l 1,35,-1
 0 409 l 1,32,-1
682 409 m 1,36,-1
 682 477 l 1,37,-1
 750 477 l 1,38,-1
 750 409 l 1,39,-1
 682 409 l 1,36,-1
0 546 m 1,40,-1
 0 614 l 1,41,-1
 68 614 l 1,42,-1
 68 546 l 1,43,-1
 0 546 l 1,40,-1
682 546 m 1,44,-1
 682 614 l 1,45,-1
 750 614 l 1,46,-1
 750 546 l 1,47,-1
 682 546 l 1,44,-1
0 682 m 1,48,-1
 0 750 l 1,49,-1
 68 750 l 1,50,-1
 68 682 l 1,51,-1
 0 682 l 1,48,-1
682 682 m 1,52,-1
 682 750 l 1,53,-1
 750 750 l 1,54,-1
 750 682 l 1,55,-1
 682 682 l 1,52,-1
0 819 m 1,56,-1
 0 887 l 1,57,-1
 68 887 l 1,58,-1
 68 819 l 1,59,-1
 0 819 l 1,56,-1
682 819 m 1,60,-1
 682 887 l 1,61,-1
 750 887 l 1,62,-1
 750 819 l 1,63,-1
 682 819 l 1,60,-1
0 955 m 1,64,-1
 0 1024 l 1,65,-1
 68 1024 l 1,66,-1
 68 955 l 1,67,-1
 0 955 l 1,64,-1
682 955 m 1,68,-1
 682 1024 l 1,69,-1
 750 1024 l 1,70,-1
 750 955 l 1,71,-1
 682 955 l 1,68,-1
0 1092 m 1,72,-1
 0 1160 l 1,73,-1
 68 1160 l 1,74,-1
 68 1092 l 1,75,-1
 0 1092 l 1,72,-1
136 1092 m 1,76,-1
 136 1160 l 1,77,-1
 204 1160 l 1,78,-1
 204 1092 l 1,79,-1
 136 1092 l 1,76,-1
273 1092 m 1,80,-1
 273 1160 l 1,81,-1
 341 1160 l 1,82,-1
 341 1092 l 1,83,-1
 273 1092 l 1,80,-1
409 1092 m 1,84,-1
 409 1160 l 1,85,-1
 477 1160 l 1,86,-1
 477 1092 l 1,87,-1
 409 1092 l 1,84,-1
546 1092 m 1,88,-1
 546 1160 l 1,89,-1
 614 1160 l 1,90,-1
 614 1092 l 1,91,-1
 546 1092 l 1,88,-1
EndSplineSet
Validated: 1
EndChar

StartChar: E
Encoding: 69 69 38
Width: 819
Flags: W
LayerCount: 2
Fore
SplineSet
0 0 m 1,0,-1
 0 68 l 1,1,-1
 68 68 l 1,2,-1
 68 0 l 1,3,-1
 0 0 l 1,0,-1
136 0 m 1,4,-1
 136 68 l 1,5,-1
 204 68 l 1,6,-1
 204 0 l 1,7,-1
 136 0 l 1,4,-1
273 0 m 1,8,-1
 273 68 l 1,9,-1
 341 68 l 1,10,-1
 341 0 l 1,11,-1
 273 0 l 1,8,-1
409 0 m 1,12,-1
 409 68 l 1,13,-1
 477 68 l 1,14,-1
 477 0 l 1,15,-1
 409 0 l 1,12,-1
546 0 m 1,16,-1
 546 68 l 1,17,-1
 614 68 l 1,18,-1
 614 0 l 1,19,-1
 546 0 l 1,16,-1
0 136 m 1,20,-1
 0 204 l 1,21,-1
 68 204 l 1,22,-1
 68 136 l 1,23,-1
 0 136 l 1,20,-1
0 273 m 1,24,-1
 0 341 l 1,25,-1
 68 341 l 1,26,-1
 68 273 l 1,27,-1
 0 273 l 1,24,-1
0 409 m 1,28,-1
 0 477 l 1,29,-1
 68 477 l 1,30,-1
 68 409 l 1,31,-1
 0 409 l 1,28,-1
0 546 m 1,32,-1
 0 614 l 1,33,-1
 68 614 l 1,34,-1
 68 546 l 1,35,-1
 0 546 l 1,32,-1
136 546 m 1,36,-1
 136 614 l 1,37,-1
 204 614 l 1,38,-1
 204 546 l 1,39,-1
 136 546 l 1,36,-1
273 546 m 1,40,-1
 273 614 l 1,41,-1
 341 614 l 1,42,-1
 341 546 l 1,43,-1
 273 546 l 1,40,-1
409 546 m 1,44,-1
 409 614 l 1,45,-1
 477 614 l 1,46,-1
 477 546 l 1,47,-1
 409 546 l 1,44,-1
0 682 m 1,48,-1
 0 750 l 1,49,-1
 68 750 l 1,50,-1
 68 682 l 1,51,-1
 0 682 l 1,48,-1
0 819 m 1,52,-1
 0 887 l 1,53,-1
 68 887 l 1,54,-1
 68 819 l 1,55,-1
 0 819 l 1,52,-1
0 955 m 1,56,-1
 0 1024 l 1,57,-1
 68 1024 l 1,58,-1
 68 955 l 1,59,-1
 0 955 l 1,56,-1
0 1092 m 1,60,-1
 0 1160 l 1,61,-1
 68 1160 l 1,62,-1
 68 1092 l 1,63,-1
 0 1092 l 1,60,-1
136 1092 m 1,64,-1
 136 1160 l 1,65,-1
 204 1160 l 1,66,-1
 204 1092 l 1,67,-1
 136 1092 l 1,64,-1
273 1092 m 1,68,-1
 273 1160 l 1,69,-1
 341 1160 l 1,70,-1
 341 1092 l 1,71,-1
 273 1092 l 1,68,-1
409 1092 m 1,72,-1
 409 1160 l 1,73,-1
 477 1160 l 1,74,-1
 477 1092 l 1,75,-1
 409 1092 l 1,72,-1
546 1092 m 1,76,-1
 546 1160 l 1,77,-1
 614 1160 l 1,78,-1
 614 1092 l 1,79,-1
 546 1092 l 1,76,-1
EndSplineSet
Validated: 1
EndChar

StartChar: F
Encoding: 70 70 39
Width: 819
Flags: W
LayerCount: 2
Fore
SplineSet
0 0 m 1,0,-1
 0 68 l 1,1,-1
 68 68 l 1,2,-1
 68 0 l 1,3,-1
 0 0 l 1,0,-1
0 136 m 1,4,-1
 0 204 l 1,5,-1
 68 204 l 1,6,-1
 68 136 l 1,7,-1
 0 136 l 1,4,-1
0 273 m 1,8,-1
 0 341 l 1,9,-1
 68 341 l 1,10,-1
 68 273 l 1,11,-1
 0 273 l 1,8,-1
0 409 m 1,12,-1
 0 477 l 1,13,-1
 68 477 l 1,14,-1
 68 409 l 1,15,-1
 0 409 l 1,12,-1
0 546 m 1,16,-1
 0 614 l 1,17,-1
 68 614 l 1,18,-1
 68 546 l 1,19,-1
 0 546 l 1,16,-1
136 546 m 1,20,-1
 136 614 l 1,21,-1
 204 614 l 1,22,-1
 204 546 l 1,23,-1
 136 546 l 1,20,-1
273 546 m 1,24,-1
 273 614 l 1,25,-1
 341 614 l 1,26,-1
 341 546 l 1,27,-1
 273 546 l 1,24,-1
409 546 m 1,28,-1
 409 614 l 1,29,-1
 477 614 l 1,30,-1
 477 546 l 1,31,-1
 409 546 l 1,28,-1
0 682 m 1,32,-1
 0 750 l 1,33,-1
 68 750 l 1,34,-1
 68 682 l 1,35,-1
 0 682 l 1,32,-1
0 819 m 1,36,-1
 0 887 l 1,37,-1
 68 887 l 1,38,-1
 68 819 l 1,39,-1
 0 819 l 1,36,-1
0 955 m 1,40,-1
 0 1024 l 1,41,-1
 68 1024 l 1,42,-1
 68 955 l 1,43,-1
 0 955 l 1,40,-1
0 1092 m 1,44,-1
 0 1160 l 1,45,-1
 68 1160 l 1,46,-1
 68 1092 l 1,47,-1
 0 1092 l 1,44,-1
136 1092 m 1,48,-1
 136 1160 l 1,49,-1
 204 1160 l 1,50,-1
 204 1092 l 1,51,-1
 136 1092 l 1,48,-1
273 1092 m 1,52,-1
 273 1160 l 1,53,-1
 341 1160 l 1,54,-1
 341 1092 l 1,55,-1
 273 1092 l 1,52,-1
409 1092 m 1,56,-1
 409 1160 l 1,57,-1
 477 1160 l 1,58,-1
 477 1092 l 1,59,-1
 409 1092 l 1,56,-1
546 1092 m 1,60,-1
 546 1160 l 1,61,-1
 614 1160 l 1,62,-1
 614 1092 l 1,63,-1
 546 1092 l 1,60,-1
EndSplineSet
Validated: 1
EndChar

StartChar: G
Encoding: 71 71 40
Width: 955
Flags: W
LayerCount: 2
Fore
SplineSet
136 0 m 1,0,-1
 136 68 l 1,1,-1
 204 68 l 1,2,-1
 204 0 l 1,3,-1
 136 0 l 1,0,-1
273 0 m 1,4,-1
 273 68 l 1,5,-1
 341 68 l 1,6,-1
 341 0 l 1,7,-1
 273 0 l 1,4,-1
682 0 m 1,8,-1
 682 68 l 1,9,-1
 750 68 l 1,10,-1
 750 0 l 1,11,-1
 682 0 l 1,8,-1
0 136 m 1,12,-1
 0 204 l 1,13,-1
 68 204 l 1,14,-1
 68 136 l 1,15,-1
 0 136 l 1,12,-1
409 136 m 1,16,-1
 409 204 l 1,17,-1
 477 204 l 1,18,-1
 477 136 l 1,19,-1
 409 136 l 1,16,-1
682 136 m 1,20,-1
 682 204 l 1,21,-1
 750 204 l 1,22,-1
 750 136 l 1,23,-1
 682 136 l 1,20,-1
0 273 m 1,24,-1
 0 341 l 1,25,-1
 68 341 l 1,26,-1
 68 273 l 1,27,-1
 0 273 l 1,24,-1
546 273 m 1,28,-1
 546 341 l 1,29,-1
 614 341 l 1,30,-1
 614 273 l 1,31,-1
 546 273 l 1,28,-1
682 273 m 1,32,-1
 682 341 l 1,33,-1
 750 341 l 1,34,-1
 750 273 l 1,35,-1
 682 273 l 1,32,-1
0 409 m 1,36,-1
 0 477 l 1,37,-1
 68 477 l 1,38,-1
 68 409 l 1,39,-1
 0 409 l 1,36,-1
273 409 m 1,40,-1
 273 477 l 1,41,-1
 341 477 l 1,42,-1
 341 409 l 1,43,-1
 273 409 l 1,40,-1
409 409 m 1,44,-1
 409 477 l 1,45,-1
 477 477 l 1,46,-1
 477 409 l 1,47,-1
 409 409 l 1,44,-1
546 409 m 1,48,-1
 546 477 l 1,49,-1
 614 477 l 1,50,-1
 614 409 l 1,51,-1
 546 409 l 1,48,-1
682 409 m 1,52,-1
 682 477 l 1,53,-1
 750 477 l 1,54,-1
 750 409 l 1,55,-1
 682 409 l 1,52,-1
0 546 m 1,56,-1
 0 614 l 1,57,-1
 68 614 l 1,58,-1
 68 546 l 1,59,-1
 0 546 l 1,56,-1
0 682 m 1,60,-1
 0 750 l 1,61,-1
 68 750 l 1,62,-1
 68 682 l 1,63,-1
 0 682 l 1,60,-1
682 682 m 1,64,-1
 682 750 l 1,65,-1
 750 750 l 1,66,-1
 750 682 l 1,67,-1
 682 682 l 1,64,-1
0 819 m 1,68,-1
 0 887 l 1,69,-1
 68 887 l 1,70,-1
 68 819 l 1,71,-1
 0 819 l 1,68,-1
682 819 m 1,72,-1
 682 887 l 1,73,-1
 750 887 l 1,74,-1
 750 819 l 1,75,-1
 682 819 l 1,72,-1
0 955 m 1,76,-1
 0 1024 l 1,77,-1
 68 1024 l 1,78,-1
 68 955 l 1,79,-1
 0 955 l 1,76,-1
682 955 m 1,80,-1
 682 1024 l 1,81,-1
 750 1024 l 1,82,-1
 750 955 l 1,83,-1
 682 955 l 1,80,-1
136 1092 m 1,84,-1
 136 1160 l 1,85,-1
 204 1160 l 1,86,-1
 204 1092 l 1,87,-1
 136 1092 l 1,84,-1
273 1092 m 1,88,-1
 273 1160 l 1,89,-1
 341 1160 l 1,90,-1
 341 1092 l 1,91,-1
 273 1092 l 1,88,-1
409 1092 m 1,92,-1
 409 1160 l 1,93,-1
 477 1160 l 1,94,-1
 477 1092 l 1,95,-1
 409 1092 l 1,92,-1
546 1092 m 1,96,-1
 546 1160 l 1,97,-1
 614 1160 l 1,98,-1
 614 1092 l 1,99,-1
 546 1092 l 1,96,-1
EndSplineSet
Validated: 1
EndChar

StartChar: H
Encoding: 72 72 41
Width: 955
Flags: W
LayerCount: 2
Fore
SplineSet
0 0 m 1,0,-1
 0 68 l 1,1,-1
 68 68 l 1,2,-1
 68 0 l 1,3,-1
 0 0 l 1,0,-1
682 0 m 1,4,-1
 682 68 l 1,5,-1
 750 68 l 1,6,-1
 750 0 l 1,7,-1
 682 0 l 1,4,-1
0 136 m 1,8,-1
 0 204 l 1,9,-1
 68 204 l 1,10,-1
 68 136 l 1,11,-1
 0 136 l 1,8,-1
682 136 m 1,12,-1
 682 204 l 1,13,-1
 750 204 l 1,14,-1
 750 136 l 1,15,-1
 682 136 l 1,12,-1
0 273 m 1,16,-1
 0 341 l 1,17,-1
 68 341 l 1,18,-1
 68 273 l 1,19,-1
 0 273 l 1,16,-1
682 273 m 1,20,-1
 682 341 l 1,21,-1
 750 341 l 1,22,-1
 750 273 l 1,23,-1
 682 273 l 1,20,-1
0 409 m 1,24,-1
 0 477 l 1,25,-1
 68 477 l 1,26,-1
 68 409 l 1,27,-1
 0 409 l 1,24,-1
682 409 m 1,28,-1
 682 477 l 1,29,-1
 750 477 l 1,30,-1
 750 409 l 1,31,-1
 682 409 l 1,28,-1
0 546 m 1,32,-1
 0 614 l 1,33,-1
 68 614 l 1,34,-1
 68 546 l 1,35,-1
 0 546 l 1,32,-1
136 546 m 1,36,-1
 136 614 l 1,37,-1
 204 614 l 1,38,-1
 204 546 l 1,39,-1
 136 546 l 1,36,-1
273 546 m 1,40,-1
 273 614 l 1,41,-1
 341 614 l 1,42,-1
 341 546 l 1,43,-1
 273 546 l 1,40,-1
409 546 m 1,44,-1
 409 614 l 1,45,-1
 477 614 l 1,46,-1
 477 546 l 1,47,-1
 409 546 l 1,44,-1
546 546 m 1,48,-1
 546 614 l 1,49,-1
 614 614 l 1,50,-1
 614 546 l 1,51,-1
 546 546 l 1,48,-1
682 546 m 1,52,-1
 682 614 l 1,53,-1
 750 614 l 1,54,-1
 750 546 l 1,55,-1
 682 546 l 1,52,-1
0 682 m 1,56,-1
 0 750 l 1,57,-1
 68 750 l 1,58,-1
 68 682 l 1,59,-1
 0 682 l 1,56,-1
682 682 m 1,60,-1
 682 750 l 1,61,-1
 750 750 l 1,62,-1
 750 682 l 1,63,-1
 682 682 l 1,60,-1
0 819 m 1,64,-1
 0 887 l 1,65,-1
 68 887 l 1,66,-1
 68 819 l 1,67,-1
 0 819 l 1,64,-1
682 819 m 1,68,-1
 682 887 l 1,69,-1
 750 887 l 1,70,-1
 750 819 l 1,71,-1
 682 819 l 1,68,-1
0 955 m 1,72,-1
 0 1024 l 1,73,-1
 68 1024 l 1,74,-1
 68 955 l 1,75,-1
 0 955 l 1,72,-1
682 955 m 1,76,-1
 682 1024 l 1,77,-1
 750 1024 l 1,78,-1
 750 955 l 1,79,-1
 682 955 l 1,76,-1
0 1092 m 1,80,-1
 0 1160 l 1,81,-1
 68 1160 l 1,82,-1
 68 1092 l 1,83,-1
 0 1092 l 1,80,-1
682 1092 m 1,84,-1
 682 1160 l 1,85,-1
 750 1160 l 1,86,-1
 750 1092 l 1,87,-1
 682 1092 l 1,84,-1
EndSplineSet
Validated: 1
EndChar

StartChar: I
Encoding: 73 73 42
Width: 819
Flags: W
LayerCount: 2
Fore
SplineSet
0 0 m 1,0,-1
 0 68 l 1,1,-1
 68 68 l 1,2,-1
 68 0 l 1,3,-1
 0 0 l 1,0,-1
136 0 m 1,4,-1
 136 68 l 1,5,-1
 204 68 l 1,6,-1
 204 0 l 1,7,-1
 136 0 l 1,4,-1
273 0 m 1,8,-1
 273 68 l 1,9,-1
 341 68 l 1,10,-1
 341 0 l 1,11,-1
 273 0 l 1,8,-1
409 0 m 1,12,-1
 409 68 l 1,13,-1
 477 68 l 1,14,-1
 477 0 l 1,15,-1
 409 0 l 1,12,-1
546 0 m 1,16,-1
 546 68 l 1,17,-1
 614 68 l 1,18,-1
 614 0 l 1,19,-1
 546 0 l 1,16,-1
273 136 m 1,20,-1
 273 204 l 1,21,-1
 341 204 l 1,22,-1
 341 136 l 1,23,-1
 273 136 l 1,20,-1
273 273 m 1,24,-1
 273 341 l 1,25,-1
 341 341 l 1,26,-1
 341 273 l 1,27,-1
 273 273 l 1,24,-1
273 409 m 1,28,-1
 273 477 l 1,29,-1
 341 477 l 1,30,-1
 341 409 l 1,31,-1
 273 409 l 1,28,-1
273 546 m 1,32,-1
 273 614 l 1,33,-1
 341 614 l 1,34,-1
 341 546 l 1,35,-1
 273 546 l 1,32,-1
273 682 m 1,36,-1
 273 750 l 1,37,-1
 341 750 l 1,38,-1
 341 682 l 1,39,-1
 273 682 l 1,36,-1
273 819 m 1,40,-1
 273 887 l 1,41,-1
 341 887 l 1,42,-1
 341 819 l 1,43,-1
 273 819 l 1,40,-1
273 955 m 1,44,-1
 273 1024 l 1,45,-1
 341 1024 l 1,46,-1
 341 955 l 1,47,-1
 273 955 l 1,44,-1
0 1092 m 1,48,-1
 0 1160 l 1,49,-1
 68 1160 l 1,50,-1
 68 1092 l 1,51,-1
 0 1092 l 1,48,-1
136 1092 m 1,52,-1
 136 1160 l 1,53,-1
 204 1160 l 1,54,-1
 204 1092 l 1,55,-1
 136 1092 l 1,52,-1
273 1092 m 1,56,-1
 273 1160 l 1,57,-1
 341 1160 l 1,58,-1
 341 1092 l 1,59,-1
 273 1092 l 1,56,-1
409 1092 m 1,60,-1
 409 1160 l 1,61,-1
 477 1160 l 1,62,-1
 477 1092 l 1,63,-1
 409 1092 l 1,60,-1
546 1092 m 1,64,-1
 546 1160 l 1,65,-1
 614 1160 l 1,66,-1
 614 1092 l 1,67,-1
 546 1092 l 1,64,-1
EndSplineSet
Validated: 1
EndChar

StartChar: J
Encoding: 74 74 43
Width: 819
Flags: W
LayerCount: 2
Fore
SplineSet
136 0 m 1,0,-1
 136 68 l 1,1,-1
 204 68 l 1,2,-1
 204 0 l 1,3,-1
 136 0 l 1,0,-1
273 0 m 1,4,-1
 273 68 l 1,5,-1
 341 68 l 1,6,-1
 341 0 l 1,7,-1
 273 0 l 1,4,-1
409 0 m 1,8,-1
 409 68 l 1,9,-1
 477 68 l 1,10,-1
 477 0 l 1,11,-1
 409 0 l 1,8,-1
0 136 m 1,12,-1
 0 204 l 1,13,-1
 68 204 l 1,14,-1
 68 136 l 1,15,-1
 0 136 l 1,12,-1
546 136 m 1,16,-1
 546 204 l 1,17,-1
 614 204 l 1,18,-1
 614 136 l 1,19,-1
 546 136 l 1,16,-1
0 273 m 1,20,-1
 0 341 l 1,21,-1
 68 341 l 1,22,-1
 68 273 l 1,23,-1
 0 273 l 1,20,-1
546 273 m 1,24,-1
 546 341 l 1,25,-1
 614 341 l 1,26,-1
 614 273 l 1,27,-1
 546 273 l 1,24,-1
546 409 m 1,28,-1
 546 477 l 1,29,-1
 614 477 l 1,30,-1
 614 409 l 1,31,-1
 546 409 l 1,28,-1
546 546 m 1,32,-1
 546 614 l 1,33,-1
 614 614 l 1,34,-1
 614 546 l 1,35,-1
 546 546 l 1,32,-1
546 682 m 1,36,-1
 546 750 l 1,37,-1
 614 750 l 1,38,-1
 614 682 l 1,39,-1
 546 682 l 1,36,-1
546 819 m 1,40,-1
 546 887 l 1,41,-1
 614 887 l 1,42,-1
 614 819 l 1,43,-1
 546 819 l 1,40,-1
546 955 m 1,44,-1
 546 1024 l 1,45,-1
 614 1024 l 1,46,-1
 614 955 l 1,47,-1
 546 955 l 1,44,-1
136 1092 m 1,48,-1
 136 1160 l 1,49,-1
 204 1160 l 1,50,-1
 204 1092 l 1,51,-1
 136 1092 l 1,48,-1
273 1092 m 1,52,-1
 273 1160 l 1,53,-1
 341 1160 l 1,54,-1
 341 1092 l 1,55,-1
 273 1092 l 1,52,-1
409 1092 m 1,56,-1
 409 1160 l 1,57,-1
 477 1160 l 1,58,-1
 477 1092 l 1,59,-1
 409 1092 l 1,56,-1
546 1092 m 1,60,-1
 546 1160 l 1,61,-1
 614 1160 l 1,62,-1
 614 1092 l 1,63,-1
 546 1092 l 1,60,-1
EndSplineSet
Validated: 1
EndChar

StartChar: K
Encoding: 75 75 44
Width: 955
Flags: W
LayerCount: 2
Fore
SplineSet
0 0 m 1,0,-1
 0 68 l 1,1,-1
 68 68 l 1,2,-1
 68 0 l 1,3,-1
 0 0 l 1,0,-1
682 0 m 1,4,-1
 682 68 l 1,5,-1
 750 68 l 1,6,-1
 750 0 l 1,7,-1
 682 0 l 1,4,-1
0 136 m 1,8,-1
 0 204 l 1,9,-1
 68 204 l 1,10,-1
 68 136 l 1,11,-1
 0 136 l 1,8,-1
546 136 m 1,12,-1
 546 204 l 1,13,-1
 614 204 l 1,14,-1
 614 136 l 1,15,-1
 546 136 l 1,12,-1
0 273 m 1,16,-1
 0 341 l 1,17,-1
 68 341 l 1,18,-1
 68 273 l 1,19,-1
 0 273 l 1,16,-1
409 273 m 1,20,-1
 409 341 l 1,21,-1
 477 341 l 1,22,-1
 477 273 l 1,23,-1
 409 273 l 1,20,-1
0 409 m 1,24,-1
 0 477 l 1,25,-1
 68 477 l 1,26,-1
 68 409 l 1,27,-1
 0 409 l 1,24,-1
273 409 m 1,28,-1
 273 477 l 1,29,-1
 341 477 l 1,30,-1
 341 409 l 1,31,-1
 273 409 l 1,28,-1
0 546 m 1,32,-1
 0 614 l 1,33,-1
 68 614 l 1,34,-1
 68 546 l 1,35,-1
 0 546 l 1,32,-1
136 546 m 1,36,-1
 136 614 l 1,37,-1
 204 614 l 1,38,-1
 204 546 l 1,39,-1
 136 546 l 1,36,-1
0 682 m 1,40,-1
 0 750 l 1,41,-1
 68 750 l 1,42,-1
 68 682 l 1,43,-1
 0 682 l 1,40,-1
273 682 m 1,44,-1
 273 750 l 1,45,-1
 341 750 l 1,46,-1
 341 682 l 1,47,-1
 273 682 l 1,44,-1
0 819 m 1,48,-1
 0 887 l 1,49,-1
 68 887 l 1,50,-1
 68 819 l 1,51,-1
 0 819 l 1,48,-1
409 819 m 1,52,-1
 409 887 l 1,53,-1
 477 887 l 1,54,-1
 477 819 l 1,55,-1
 409 819 l 1,52,-1
0 955 m 1,56,-1
 0 1024 l 1,57,-1
 68 1024 l 1,58,-1
 68 955 l 1,59,-1
 0 955 l 1,56,-1
546 955 m 1,60,-1
 546 1024 l 1,61,-1
 614 1024 l 1,62,-1
 614 955 l 1,63,-1
 546 955 l 1,60,-1
0 1092 m 1,64,-1
 0 1160 l 1,65,-1
 68 1160 l 1,66,-1
 68 1092 l 1,67,-1
 0 1092 l 1,64,-1
682 1092 m 1,68,-1
 682 1160 l 1,69,-1
 750 1160 l 1,70,-1
 750 1092 l 1,71,-1
 682 1092 l 1,68,-1
EndSplineSet
Validated: 1
EndChar

StartChar: L
Encoding: 76 76 45
Width: 819
Flags: W
LayerCount: 2
Fore
SplineSet
0 0 m 1,0,-1
 0 68 l 1,1,-1
 68 68 l 1,2,-1
 68 0 l 1,3,-1
 0 0 l 1,0,-1
136 0 m 1,4,-1
 136 68 l 1,5,-1
 204 68 l 1,6,-1
 204 0 l 1,7,-1
 136 0 l 1,4,-1
273 0 m 1,8,-1
 273 68 l 1,9,-1
 341 68 l 1,10,-1
 341 0 l 1,11,-1
 273 0 l 1,8,-1
409 0 m 1,12,-1
 409 68 l 1,13,-1
 477 68 l 1,14,-1
 477 0 l 1,15,-1
 409 0 l 1,12,-1
546 0 m 1,16,-1
 546 68 l 1,17,-1
 614 68 l 1,18,-1
 614 0 l 1,19,-1
 546 0 l 1,16,-1
0 136 m 1,20,-1
 0 204 l 1,21,-1
 68 204 l 1,22,-1
 68 136 l 1,23,-1
 0 136 l 1,20,-1
0 273 m 1,24,-1
 0 341 l 1,25,-1
 68 341 l 1,26,-1
 68 273 l 1,27,-1
 0 273 l 1,24,-1
0 409 m 1,28,-1
 0 477 l 1,29,-1
 68 477 l 1,30,-1
 68 409 l 1,31,-1
 0 409 l 1,28,-1
0 546 m 1,32,-1
 0 614 l 1,33,-1
 68 614 l 1,34,-1
 68 546 l 1,35,-1
 0 546 l 1,32,-1
0 682 m 1,36,-1
 0 750 l 1,37,-1
 68 750 l 1,38,-1
 68 682 l 1,39,-1
 0 682 l 1,36,-1
0 819 m 1,40,-1
 0 887 l 1,41,-1
 68 887 l 1,42,-1
 68 819 l 1,43,-1
 0 819 l 1,40,-1
0 955 m 1,44,-1
 0 1024 l 1,45,-1
 68 1024 l 1,46,-1
 68 955 l 1,47,-1
 0 955 l 1,44,-1
0 1092 m 1,48,-1
 0 1160 l 1,49,-1
 68 1160 l 1,50,-1
 68 1092 l 1,51,-1
 0 1092 l 1,48,-1
EndSplineSet
Validated: 1
EndChar

StartChar: M
Encoding: 77 77 46
Width: 1365
Flags: W
LayerCount: 2
Fore
SplineSet
0 0 m 1,0,-1
 0 68 l 1,1,-1
 68 68 l 1,2,-1
 68 0 l 1,3,-1
 0 0 l 1,0,-1
546 0 m 1,4,-1
 546 68 l 1,5,-1
 614 68 l 1,6,-1
 614 0 l 1,7,-1
 546 0 l 1,4,-1
1092 0 m 1,8,-1
 1092 68 l 1,9,-1
 1160 68 l 1,10,-1
 1160 0 l 1,11,-1
 1092 0 l 1,8,-1
0 136 m 1,12,-1
 0 204 l 1,13,-1
 68 204 l 1,14,-1
 68 136 l 1,15,-1
 0 136 l 1,12,-1
409 136 m 1,16,-1
 409 204 l 1,17,-1
 477 204 l 1,18,-1
 477 136 l 1,19,-1
 409 136 l 1,16,-1
682 136 m 1,20,-1
 682 204 l 1,21,-1
 750 204 l 1,22,-1
 750 136 l 1,23,-1
 682 136 l 1,20,-1
1092 136 m 1,24,-1
 1092 204 l 1,25,-1
 1160 204 l 1,26,-1
 1160 136 l 1,27,-1
 1092 136 l 1,24,-1
0 273 m 1,28,-1
 0 341 l 1,29,-1
 68 341 l 1,30,-1
 68 273 l 1,31,-1
 0 273 l 1,28,-1
409 273 m 1,32,-1
 409 341 l 1,33,-1
 477 341 l 1,34,-1
 477 273 l 1,35,-1
 409 273 l 1,32,-1
682 273 m 1,36,-1
 682 341 l 1,37,-1
 750 341 l 1,38,-1
 750 273 l 1,39,-1
 682 273 l 1,36,-1
1092 273 m 1,40,-1
 1092 341 l 1,41,-1
 1160 341 l 1,42,-1
 1160 273 l 1,43,-1
 1092 273 l 1,40,-1
0 409 m 1,44,-1
 0 477 l 1,45,-1
 68 477 l 1,46,-1
 68 409 l 1,47,-1
 0 409 l 1,44,-1
409 409 m 1,48,-1
 409 477 l 1,49,-1
 477 477 l 1,50,-1
 477 409 l 1,51,-1
 409 409 l 1,48,-1
682 409 m 1,52,-1
 682 477 l 1,53,-1
 750 477 l 1,54,-1
 750 409 l 1,55,-1
 682 409 l 1,52,-1
1092 409 m 1,56,-1
 1092 477 l 1,57,-1
 1160 477 l 1,58,-1
 1160 409 l 1,59,-1
 1092 409 l 1,56,-1
0 546 m 1,60,-1
 0 614 l 1,61,-1
 68 614 l 1,62,-1
 68 546 l 1,63,-1
 0 546 l 1,60,-1
409 546 m 1,64,-1
 409 614 l 1,65,-1
 477 614 l 1,66,-1
 477 546 l 1,67,-1
 409 546 l 1,64,-1
682 546 m 1,68,-1
 682 614 l 1,69,-1
 750 614 l 1,70,-1
 750 546 l 1,71,-1
 682 546 l 1,68,-1
1092 546 m 1,72,-1
 1092 614 l 1,73,-1
 1160 614 l 1,74,-1
 1160 546 l 1,75,-1
 1092 546 l 1,72,-1
0 682 m 1,76,-1
 0 750 l 1,77,-1
 68 750 l 1,78,-1
 68 682 l 1,79,-1
 0 682 l 1,76,-1
273 682 m 1,80,-1
 273 750 l 1,81,-1
 341 750 l 1,82,-1
 341 682 l 1,83,-1
 273 682 l 1,80,-1
819 682 m 1,84,-1
 819 750 l 1,85,-1
 887 750 l 1,86,-1
 887 682 l 1,87,-1
 819 682 l 1,84,-1
1092 682 m 1,88,-1
 1092 750 l 1,89,-1
 1160 750 l 1,90,-1
 1160 682 l 1,91,-1
 1092 682 l 1,88,-1
0 819 m 1,92,-1
 0 887 l 1,93,-1
 68 887 l 1,94,-1
 68 819 l 1,95,-1
 0 819 l 1,92,-1
273 819 m 1,96,-1
 273 887 l 1,97,-1
 341 887 l 1,98,-1
 341 819 l 1,99,-1
 273 819 l 1,96,-1
819 819 m 1,100,-1
 819 887 l 1,101,-1
 887 887 l 1,102,-1
 887 819 l 1,103,-1
 819 819 l 1,100,-1
1092 819 m 1,104,-1
 1092 887 l 1,105,-1
 1160 887 l 1,106,-1
 1160 819 l 1,107,-1
 1092 819 l 1,104,-1
0 955 m 1,108,-1
 0 1024 l 1,109,-1
 68 1024 l 1,110,-1
 68 955 l 1,111,-1
 0 955 l 1,108,-1
273 955 m 1,112,-1
 273 1024 l 1,113,-1
 341 1024 l 1,114,-1
 341 955 l 1,115,-1
 273 955 l 1,112,-1
819 955 m 1,116,-1
 819 1024 l 1,117,-1
 887 1024 l 1,118,-1
 887 955 l 1,119,-1
 819 955 l 1,116,-1
1092 955 m 1,120,-1
 1092 1024 l 1,121,-1
 1160 1024 l 1,122,-1
 1160 955 l 1,123,-1
 1092 955 l 1,120,-1
0 1092 m 1,124,-1
 0 1160 l 1,125,-1
 68 1160 l 1,126,-1
 68 1092 l 1,127,-1
 0 1092 l 1,124,-1
136 1092 m 1,128,-1
 136 1160 l 1,129,-1
 204 1160 l 1,130,-1
 204 1092 l 1,131,-1
 136 1092 l 1,128,-1
955 1092 m 1,132,-1
 955 1160 l 1,133,-1
 1024 1160 l 1,134,-1
 1024 1092 l 1,135,-1
 955 1092 l 1,132,-1
1092 1092 m 1,136,-1
 1092 1160 l 1,137,-1
 1160 1160 l 1,138,-1
 1160 1092 l 1,139,-1
 1092 1092 l 1,136,-1
EndSplineSet
Validated: 1
EndChar

StartChar: N
Encoding: 78 78 47
Width: 955
Flags: W
LayerCount: 2
Fore
SplineSet
0 0 m 1,0,-1
 0 68 l 1,1,-1
 68 68 l 1,2,-1
 68 0 l 1,3,-1
 0 0 l 1,0,-1
546 0 m 1,4,-1
 546 68 l 1,5,-1
 614 68 l 1,6,-1
 614 0 l 1,7,-1
 546 0 l 1,4,-1
682 0 m 1,8,-1
 682 68 l 1,9,-1
 750 68 l 1,10,-1
 750 0 l 1,11,-1
 682 0 l 1,8,-1
0 136 m 1,12,-1
 0 204 l 1,13,-1
 68 204 l 1,14,-1
 68 136 l 1,15,-1
 0 136 l 1,12,-1
409 136 m 1,16,-1
 409 204 l 1,17,-1
 477 204 l 1,18,-1
 477 136 l 1,19,-1
 409 136 l 1,16,-1
682 136 m 1,20,-1
 682 204 l 1,21,-1
 750 204 l 1,22,-1
 750 136 l 1,23,-1
 682 136 l 1,20,-1
0 273 m 1,24,-1
 0 341 l 1,25,-1
 68 341 l 1,26,-1
 68 273 l 1,27,-1
 0 273 l 1,24,-1
409 273 m 1,28,-1
 409 341 l 1,29,-1
 477 341 l 1,30,-1
 477 273 l 1,31,-1
 409 273 l 1,28,-1
682 273 m 1,32,-1
 682 341 l 1,33,-1
 750 341 l 1,34,-1
 750 273 l 1,35,-1
 682 273 l 1,32,-1
0 409 m 1,36,-1
 0 477 l 1,37,-1
 68 477 l 1,38,-1
 68 409 l 1,39,-1
 0 409 l 1,36,-1
409 409 m 1,40,-1
 409 477 l 1,41,-1
 477 477 l 1,42,-1
 477 409 l 1,43,-1
 409 409 l 1,40,-1
682 409 m 1,44,-1
 682 477 l 1,45,-1
 750 477 l 1,46,-1
 750 409 l 1,47,-1
 682 409 l 1,44,-1
0 546 m 1,48,-1
 0 614 l 1,49,-1
 68 614 l 1,50,-1
 68 546 l 1,51,-1
 0 546 l 1,48,-1
273 546 m 1,52,-1
 273 614 l 1,53,-1
 341 614 l 1,54,-1
 341 546 l 1,55,-1
 273 546 l 1,52,-1
682 546 m 1,56,-1
 682 614 l 1,57,-1
 750 614 l 1,58,-1
 750 546 l 1,59,-1
 682 546 l 1,56,-1
0 682 m 1,60,-1
 0 750 l 1,61,-1
 68 750 l 1,62,-1
 68 682 l 1,63,-1
 0 682 l 1,60,-1
273 682 m 1,64,-1
 273 750 l 1,65,-1
 341 750 l 1,66,-1
 341 682 l 1,67,-1
 273 682 l 1,64,-1
682 682 m 1,68,-1
 682 750 l 1,69,-1
 750 750 l 1,70,-1
 750 682 l 1,71,-1
 682 682 l 1,68,-1
0 819 m 1,72,-1
 0 887 l 1,73,-1
 68 887 l 1,74,-1
 68 819 l 1,75,-1
 0 819 l 1,72,-1
273 819 m 1,76,-1
 273 887 l 1,77,-1
 341 887 l 1,78,-1
 341 819 l 1,79,-1
 273 819 l 1,76,-1
682 819 m 1,80,-1
 682 887 l 1,81,-1
 750 887 l 1,82,-1
 750 819 l 1,83,-1
 682 819 l 1,80,-1
0 955 m 1,84,-1
 0 1024 l 1,85,-1
 68 1024 l 1,86,-1
 68 955 l 1,87,-1
 0 955 l 1,84,-1
273 955 m 1,88,-1
 273 1024 l 1,89,-1
 341 1024 l 1,90,-1
 341 955 l 1,91,-1
 273 955 l 1,88,-1
682 955 m 1,92,-1
 682 1024 l 1,93,-1
 750 1024 l 1,94,-1
 750 955 l 1,95,-1
 682 955 l 1,92,-1
0 1092 m 1,96,-1
 0 1160 l 1,97,-1
 68 1160 l 1,98,-1
 68 1092 l 1,99,-1
 0 1092 l 1,96,-1
136 1092 m 1,100,-1
 136 1160 l 1,101,-1
 204 1160 l 1,102,-1
 204 1092 l 1,103,-1
 136 1092 l 1,100,-1
682 1092 m 1,104,-1
 682 1160 l 1,105,-1
 750 1160 l 1,106,-1
 750 1092 l 1,107,-1
 682 1092 l 1,104,-1
EndSplineSet
Validated: 1
EndChar

StartChar: O
Encoding: 79 79 48
Width: 955
Flags: W
LayerCount: 2
Fore
SplineSet
136 0 m 1,0,-1
 136 68 l 1,1,-1
 204 68 l 1,2,-1
 204 0 l 1,3,-1
 136 0 l 1,0,-1
273 0 m 1,4,-1
 273 68 l 1,5,-1
 341 68 l 1,6,-1
 341 0 l 1,7,-1
 273 0 l 1,4,-1
409 0 m 1,8,-1
 409 68 l 1,9,-1
 477 68 l 1,10,-1
 477 0 l 1,11,-1
 409 0 l 1,8,-1
546 0 m 1,12,-1
 546 68 l 1,13,-1
 614 68 l 1,14,-1
 614 0 l 1,15,-1
 546 0 l 1,12,-1
0 136 m 1,16,-1
 0 204 l 1,17,-1
 68 204 l 1,18,-1
 68 136 l 1,19,-1
 0 136 l 1,16,-1
682 136 m 1,20,-1
 682 204 l 1,21,-1
 750 204 l 1,22,-1
 750 136 l 1,23,-1
 682 136 l 1,20,-1
0 273 m 1,24,-1
 0 341 l 1,25,-1
 68 341 l 1,26,-1
 68 273 l 1,27,-1
 0 273 l 1,24,-1
682 273 m 1,28,-1
 682 341 l 1,29,-1
 750 341 l 1,30,-1
 750 273 l 1,31,-1
 682 273 l 1,28,-1
0 409 m 1,32,-1
 0 477 l 1,33,-1
 68 477 l 1,34,-1
 68 409 l 1,35,-1
 0 409 l 1,32,-1
682 409 m 1,36,-1
 682 477 l 1,37,-1
 750 477 l 1,38,-1
 750 409 l 1,39,-1
 682 409 l 1,36,-1
0 546 m 1,40,-1
 0 614 l 1,41,-1
 68 614 l 1,42,-1
 68 546 l 1,43,-1
 0 546 l 1,40,-1
682 546 m 1,44,-1
 682 614 l 1,45,-1
 750 614 l 1,46,-1
 750 546 l 1,47,-1
 682 546 l 1,44,-1
0 682 m 1,48,-1
 0 750 l 1,49,-1
 68 750 l 1,50,-1
 68 682 l 1,51,-1
 0 682 l 1,48,-1
682 682 m 1,52,-1
 682 750 l 1,53,-1
 750 750 l 1,54,-1
 750 682 l 1,55,-1
 682 682 l 1,52,-1
0 819 m 1,56,-1
 0 887 l 1,57,-1
 68 887 l 1,58,-1
 68 819 l 1,59,-1
 0 819 l 1,56,-1
682 819 m 1,60,-1
 682 887 l 1,61,-1
 750 887 l 1,62,-1
 750 819 l 1,63,-1
 682 819 l 1,60,-1
0 955 m 1,64,-1
 0 1024 l 1,65,-1
 68 1024 l 1,66,-1
 68 955 l 1,67,-1
 0 955 l 1,64,-1
682 955 m 1,68,-1
 682 1024 l 1,69,-1
 750 1024 l 1,70,-1
 750 955 l 1,71,-1
 682 955 l 1,68,-1
136 1092 m 1,72,-1
 136 1160 l 1,73,-1
 204 1160 l 1,74,-1
 204 1092 l 1,75,-1
 136 1092 l 1,72,-1
273 1092 m 1,76,-1
 273 1160 l 1,77,-1
 341 1160 l 1,78,-1
 341 1092 l 1,79,-1
 273 1092 l 1,76,-1
409 1092 m 1,80,-1
 409 1160 l 1,81,-1
 477 1160 l 1,82,-1
 477 1092 l 1,83,-1
 409 1092 l 1,80,-1
546 1092 m 1,84,-1
 546 1160 l 1,85,-1
 614 1160 l 1,86,-1
 614 1092 l 1,87,-1
 546 1092 l 1,84,-1
EndSplineSet
Validated: 1
EndChar

StartChar: P
Encoding: 80 80 49
Width: 955
Flags: W
LayerCount: 2
Fore
SplineSet
0 0 m 1,0,-1
 0 68 l 1,1,-1
 68 68 l 1,2,-1
 68 0 l 1,3,-1
 0 0 l 1,0,-1
0 136 m 1,4,-1
 0 204 l 1,5,-1
 68 204 l 1,6,-1
 68 136 l 1,7,-1
 0 136 l 1,4,-1
0 273 m 1,8,-1
 0 341 l 1,9,-1
 68 341 l 1,10,-1
 68 273 l 1,11,-1
 0 273 l 1,8,-1
0 409 m 1,12,-1
 0 477 l 1,13,-1
 68 477 l 1,14,-1
 68 409 l 1,15,-1
 0 409 l 1,12,-1
136 409 m 1,16,-1
 136 477 l 1,17,-1
 204 477 l 1,18,-1
 204 409 l 1,19,-1
 136 409 l 1,16,-1
273 409 m 1,20,-1
 273 477 l 1,21,-1
 341 477 l 1,22,-1
 341 409 l 1,23,-1
 273 409 l 1,20,-1
409 409 m 1,24,-1
 409 477 l 1,25,-1
 477 477 l 1,26,-1
 477 409 l 1,27,-1
 409 409 l 1,24,-1
0 546 m 1,28,-1
 0 614 l 1,29,-1
 68 614 l 1,30,-1
 68 546 l 1,31,-1
 0 546 l 1,28,-1
546 546 m 1,32,-1
 546 614 l 1,33,-1
 614 614 l 1,34,-1
 614 546 l 1,35,-1
 546 546 l 1,32,-1
0 682 m 1,36,-1
 0 750 l 1,37,-1
 68 750 l 1,38,-1
 68 682 l 1,39,-1
 0 682 l 1,36,-1
682 682 m 1,40,-1
 682 750 l 1,41,-1
 750 750 l 1,42,-1
 750 682 l 1,43,-1
 682 682 l 1,40,-1
0 819 m 1,44,-1
 0 887 l 1,45,-1
 68 887 l 1,46,-1
 68 819 l 1,47,-1
 0 819 l 1,44,-1
682 819 m 1,48,-1
 682 887 l 1,49,-1
 750 887 l 1,50,-1
 750 819 l 1,51,-1
 682 819 l 1,48,-1
0 955 m 1,52,-1
 0 1024 l 1,53,-1
 68 1024 l 1,54,-1
 68 955 l 1,55,-1
 0 955 l 1,52,-1
682 955 m 1,56,-1
 682 1024 l 1,57,-1
 750 1024 l 1,58,-1
 750 955 l 1,59,-1
 682 955 l 1,56,-1
0 1092 m 1,60,-1
 0 1160 l 1,61,-1
 68 1160 l 1,62,-1
 68 1092 l 1,63,-1
 0 1092 l 1,60,-1
136 1092 m 1,64,-1
 136 1160 l 1,65,-1
 204 1160 l 1,66,-1
 204 1092 l 1,67,-1
 136 1092 l 1,64,-1
273 1092 m 1,68,-1
 273 1160 l 1,69,-1
 341 1160 l 1,70,-1
 341 1092 l 1,71,-1
 273 1092 l 1,68,-1
409 1092 m 1,72,-1
 409 1160 l 1,73,-1
 477 1160 l 1,74,-1
 477 1092 l 1,75,-1
 409 1092 l 1,72,-1
546 1092 m 1,76,-1
 546 1160 l 1,77,-1
 614 1160 l 1,78,-1
 614 1092 l 1,79,-1
 546 1092 l 1,76,-1
EndSplineSet
Validated: 1
EndChar

StartChar: Q
Encoding: 81 81 50
Width: 955
Flags: W
LayerCount: 2
Fore
SplineSet
136 0 m 1,0,-1
 136 68 l 1,1,-1
 204 68 l 1,2,-1
 204 0 l 1,3,-1
 136 0 l 1,0,-1
273 0 m 1,4,-1
 273 68 l 1,5,-1
 341 68 l 1,6,-1
 341 0 l 1,7,-1
 273 0 l 1,4,-1
409 0 m 1,8,-1
 409 68 l 1,9,-1
 477 68 l 1,10,-1
 477 0 l 1,11,-1
 409 0 l 1,8,-1
682 0 m 1,12,-1
 682 68 l 1,13,-1
 750 68 l 1,14,-1
 750 0 l 1,15,-1
 682 0 l 1,12,-1
0 136 m 1,16,-1
 0 204 l 1,17,-1
 68 204 l 1,18,-1
 68 136 l 1,19,-1
 0 136 l 1,16,-1
546 136 m 1,20,-1
 546 204 l 1,21,-1
 614 204 l 1,22,-1
 614 136 l 1,23,-1
 546 136 l 1,20,-1
0 273 m 1,24,-1
 0 341 l 1,25,-1
 68 341 l 1,26,-1
 68 273 l 1,27,-1
 0 273 l 1,24,-1
409 273 m 1,28,-1
 409 341 l 1,29,-1
 477 341 l 1,30,-1
 477 273 l 1,31,-1
 409 273 l 1,28,-1
682 273 m 1,32,-1
 682 341 l 1,33,-1
 750 341 l 1,34,-1
 750 273 l 1,35,-1
 682 273 l 1,32,-1
0 409 m 1,36,-1
 0 477 l 1,37,-1
 68 477 l 1,38,-1
 68 409 l 1,39,-1
 0 409 l 1,36,-1
682 409 m 1,40,-1
 682 477 l 1,41,-1
 750 477 l 1,42,-1
 750 409 l 1,43,-1
 682 409 l 1,40,-1
0 546 m 1,44,-1
 0 614 l 1,45,-1
 68 614 l 1,46,-1
 68 546 l 1,47,-1
 0 546 l 1,44,-1
682 546 m 1,48,-1
 682 614 l 1,49,-1
 750 614 l 1,50,-1
 750 546 l 1,51,-1
 682 546 l 1,48,-1
0 682 m 1,52,-1
 0 750 l 1,53,-1
 68 750 l 1,54,-1
 68 682 l 1,55,-1
 0 682 l 1,52,-1
682 682 m 1,56,-1
 682 750 l 1,57,-1
 750 750 l 1,58,-1
 750 682 l 1,59,-1
 682 682 l 1,56,-1
0 819 m 1,60,-1
 0 887 l 1,61,-1
 68 887 l 1,62,-1
 68 819 l 1,63,-1
 0 819 l 1,60,-1
682 819 m 1,64,-1
 682 887 l 1,65,-1
 750 887 l 1,66,-1
 750 819 l 1,67,-1
 682 819 l 1,64,-1
0 955 m 1,68,-1
 0 1024 l 1,69,-1
 68 1024 l 1,70,-1
 68 955 l 1,71,-1
 0 955 l 1,68,-1
682 955 m 1,72,-1
 682 1024 l 1,73,-1
 750 1024 l 1,74,-1
 750 955 l 1,75,-1
 682 955 l 1,72,-1
136 1092 m 1,76,-1
 136 1160 l 1,77,-1
 204 1160 l 1,78,-1
 204 1092 l 1,79,-1
 136 1092 l 1,76,-1
273 1092 m 1,80,-1
 273 1160 l 1,81,-1
 341 1160 l 1,82,-1
 341 1092 l 1,83,-1
 273 1092 l 1,80,-1
409 1092 m 1,84,-1
 409 1160 l 1,85,-1
 477 1160 l 1,86,-1
 477 1092 l 1,87,-1
 409 1092 l 1,84,-1
546 1092 m 1,88,-1
 546 1160 l 1,89,-1
 614 1160 l 1,90,-1
 614 1092 l 1,91,-1
 546 1092 l 1,88,-1
EndSplineSet
Validated: 1
EndChar

StartChar: R
Encoding: 82 82 51
Width: 955
Flags: W
LayerCount: 2
Fore
SplineSet
0 0 m 1,0,-1
 0 68 l 1,1,-1
 68 68 l 1,2,-1
 68 0 l 1,3,-1
 0 0 l 1,0,-1
682 0 m 1,4,-1
 682 68 l 1,5,-1
 750 68 l 1,6,-1
 750 0 l 1,7,-1
 682 0 l 1,4,-1
0 136 m 1,8,-1
 0 204 l 1,9,-1
 68 204 l 1,10,-1
 68 136 l 1,11,-1
 0 136 l 1,8,-1
682 136 m 1,12,-1
 682 204 l 1,13,-1
 750 204 l 1,14,-1
 750 136 l 1,15,-1
 682 136 l 1,12,-1
0 273 m 1,16,-1
 0 341 l 1,17,-1
 68 341 l 1,18,-1
 68 273 l 1,19,-1
 0 273 l 1,16,-1
546 273 m 1,20,-1
 546 341 l 1,21,-1
 614 341 l 1,22,-1
 614 273 l 1,23,-1
 546 273 l 1,20,-1
0 409 m 1,24,-1
 0 477 l 1,25,-1
 68 477 l 1,26,-1
 68 409 l 1,27,-1
 0 409 l 1,24,-1
136 409 m 1,28,-1
 136 477 l 1,29,-1
 204 477 l 1,30,-1
 204 409 l 1,31,-1
 136 409 l 1,28,-1
273 409 m 1,32,-1
 273 477 l 1,33,-1
 341 477 l 1,34,-1
 341 409 l 1,35,-1
 273 409 l 1,32,-1
409 409 m 1,36,-1
 409 477 l 1,37,-1
 477 477 l 1,38,-1
 477 409 l 1,39,-1
 409 409 l 1,36,-1
0 546 m 1,40,-1
 0 614 l 1,41,-1
 68 614 l 1,42,-1
 68 546 l 1,43,-1
 0 546 l 1,40,-1
546 546 m 1,44,-1
 546 614 l 1,45,-1
 614 614 l 1,46,-1
 614 546 l 1,47,-1
 546 546 l 1,44,-1
0 682 m 1,48,-1
 0 750 l 1,49,-1
 68 750 l 1,50,-1
 68 682 l 1,51,-1
 0 682 l 1,48,-1
682 682 m 1,52,-1
 682 750 l 1,53,-1
 750 750 l 1,54,-1
 750 682 l 1,55,-1
 682 682 l 1,52,-1
0 819 m 1,56,-1
 0 887 l 1,57,-1
 68 887 l 1,58,-1
 68 819 l 1,59,-1
 0 819 l 1,56,-1
682 819 m 1,60,-1
 682 887 l 1,61,-1
 750 887 l 1,62,-1
 750 819 l 1,63,-1
 682 819 l 1,60,-1
0 955 m 1,64,-1
 0 1024 l 1,65,-1
 68 1024 l 1,66,-1
 68 955 l 1,67,-1
 0 955 l 1,64,-1
682 955 m 1,68,-1
 682 1024 l 1,69,-1
 750 1024 l 1,70,-1
 750 955 l 1,71,-1
 682 955 l 1,68,-1
0 1092 m 1,72,-1
 0 1160 l 1,73,-1
 68 1160 l 1,74,-1
 68 1092 l 1,75,-1
 0 1092 l 1,72,-1
136 1092 m 1,76,-1
 136 1160 l 1,77,-1
 204 1160 l 1,78,-1
 204 1092 l 1,79,-1
 136 1092 l 1,76,-1
273 1092 m 1,80,-1
 273 1160 l 1,81,-1
 341 1160 l 1,82,-1
 341 1092 l 1,83,-1
 273 1092 l 1,80,-1
409 1092 m 1,84,-1
 409 1160 l 1,85,-1
 477 1160 l 1,86,-1
 477 1092 l 1,87,-1
 409 1092 l 1,84,-1
546 1092 m 1,88,-1
 546 1160 l 1,89,-1
 614 1160 l 1,90,-1
 614 1092 l 1,91,-1
 546 1092 l 1,88,-1
EndSplineSet
Validated: 1
EndChar

StartChar: S
Encoding: 83 83 52
Width: 955
Flags: W
LayerCount: 2
Fore
SplineSet
136 0 m 1,0,-1
 136 68 l 1,1,-1
 204 68 l 1,2,-1
 204 0 l 1,3,-1
 136 0 l 1,0,-1
273 0 m 1,4,-1
 273 68 l 1,5,-1
 341 68 l 1,6,-1
 341 0 l 1,7,-1
 273 0 l 1,4,-1
409 0 m 1,8,-1
 409 68 l 1,9,-1
 477 68 l 1,10,-1
 477 0 l 1,11,-1
 409 0 l 1,8,-1
546 0 m 1,12,-1
 546 68 l 1,13,-1
 614 68 l 1,14,-1
 614 0 l 1,15,-1
 546 0 l 1,12,-1
0 136 m 1,16,-1
 0 204 l 1,17,-1
 68 204 l 1,18,-1
 68 136 l 1,19,-1
 0 136 l 1,16,-1
682 136 m 1,20,-1
 682 204 l 1,21,-1
 750 204 l 1,22,-1
 750 136 l 1,23,-1
 682 136 l 1,20,-1
682 273 m 1,24,-1
 682 341 l 1,25,-1
 750 341 l 1,26,-1
 750 273 l 1,27,-1
 682 273 l 1,24,-1
273 409 m 1,28,-1
 273 477 l 1,29,-1
 341 477 l 1,30,-1
 341 409 l 1,31,-1
 273 409 l 1,28,-1
409 409 m 1,32,-1
 409 477 l 1,33,-1
 477 477 l 1,34,-1
 477 409 l 1,35,-1
 409 409 l 1,32,-1
546 409 m 1,36,-1
 546 477 l 1,37,-1
 614 477 l 1,38,-1
 614 409 l 1,39,-1
 546 409 l 1,36,-1
136 546 m 1,40,-1
 136 614 l 1,41,-1
 204 614 l 1,42,-1
 204 546 l 1,43,-1
 136 546 l 1,40,-1
0 682 m 1,44,-1
 0 750 l 1,45,-1
 68 750 l 1,46,-1
 68 682 l 1,47,-1
 0 682 l 1,44,-1
546 682 m 1,48,-1
 546 750 l 1,49,-1
 614 750 l 1,50,-1
 614 682 l 1,51,-1
 546 682 l 1,48,-1
0 819 m 1,52,-1
 0 887 l 1,53,-1
 68 887 l 1,54,-1
 68 819 l 1,55,-1
 0 819 l 1,52,-1
682 819 m 1,56,-1
 682 887 l 1,57,-1
 750 887 l 1,58,-1
 750 819 l 1,59,-1
 682 819 l 1,56,-1
136 955 m 1,60,-1
 136 1024 l 1,61,-1
 204 1024 l 1,62,-1
 204 955 l 1,63,-1
 136 955 l 1,60,-1
682 955 m 1,64,-1
 682 1024 l 1,65,-1
 750 1024 l 1,66,-1
 750 955 l 1,67,-1
 682 955 l 1,64,-1
273 1092 m 1,68,-1
 273 1160 l 1,69,-1
 341 1160 l 1,70,-1
 341 1092 l 1,71,-1
 273 1092 l 1,68,-1
409 1092 m 1,72,-1
 409 1160 l 1,73,-1
 477 1160 l 1,74,-1
 477 1092 l 1,75,-1
 409 1092 l 1,72,-1
546 1092 m 1,76,-1
 546 1160 l 1,77,-1
 614 1160 l 1,78,-1
 614 1092 l 1,79,-1
 546 1092 l 1,76,-1
EndSplineSet
Validated: 1
EndChar

StartChar: T
Encoding: 84 84 53
Width: 819
Flags: W
LayerCount: 2
Fore
SplineSet
273 0 m 1,0,-1
 273 68 l 1,1,-1
 341 68 l 1,2,-1
 341 0 l 1,3,-1
 273 0 l 1,0,-1
273 136 m 1,4,-1
 273 204 l 1,5,-1
 341 204 l 1,6,-1
 341 136 l 1,7,-1
 273 136 l 1,4,-1
273 273 m 1,8,-1
 273 341 l 1,9,-1
 341 341 l 1,10,-1
 341 273 l 1,11,-1
 273 273 l 1,8,-1
273 409 m 1,12,-1
 273 477 l 1,13,-1
 341 477 l 1,14,-1
 341 409 l 1,15,-1
 273 409 l 1,12,-1
273 546 m 1,16,-1
 273 614 l 1,17,-1
 341 614 l 1,18,-1
 341 546 l 1,19,-1
 273 546 l 1,16,-1
273 682 m 1,20,-1
 273 750 l 1,21,-1
 341 750 l 1,22,-1
 341 682 l 1,23,-1
 273 682 l 1,20,-1
273 819 m 1,24,-1
 273 887 l 1,25,-1
 341 887 l 1,26,-1
 341 819 l 1,27,-1
 273 819 l 1,24,-1
273 955 m 1,28,-1
 273 1024 l 1,29,-1
 341 1024 l 1,30,-1
 341 955 l 1,31,-1
 273 955 l 1,28,-1
0 1092 m 1,32,-1
 0 1160 l 1,33,-1
 68 1160 l 1,34,-1
 68 1092 l 1,35,-1
 0 1092 l 1,32,-1
136 1092 m 1,36,-1
 136 1160 l 1,37,-1
 204 1160 l 1,38,-1
 204 1092 l 1,39,-1
 136 1092 l 1,36,-1
273 1092 m 1,40,-1
 273 1160 l 1,41,-1
 341 1160 l 1,42,-1
 341 1092 l 1,43,-1
 273 1092 l 1,40,-1
409 1092 m 1,44,-1
 409 1160 l 1,45,-1
 477 1160 l 1,46,-1
 477 1092 l 1,47,-1
 409 1092 l 1,44,-1
546 1092 m 1,48,-1
 546 1160 l 1,49,-1
 614 1160 l 1,50,-1
 614 1092 l 1,51,-1
 546 1092 l 1,48,-1
EndSplineSet
Validated: 1
EndChar

StartChar: U
Encoding: 85 85 54
Width: 955
Flags: W
LayerCount: 2
Fore
SplineSet
136 0 m 1,0,-1
 136 68 l 1,1,-1
 204 68 l 1,2,-1
 204 0 l 1,3,-1
 136 0 l 1,0,-1
273 0 m 1,4,-1
 273 68 l 1,5,-1
 341 68 l 1,6,-1
 341 0 l 1,7,-1
 273 0 l 1,4,-1
409 0 m 1,8,-1
 409 68 l 1,9,-1
 477 68 l 1,10,-1
 477 0 l 1,11,-1
 409 0 l 1,8,-1
546 0 m 1,12,-1
 546 68 l 1,13,-1
 614 68 l 1,14,-1
 614 0 l 1,15,-1
 546 0 l 1,12,-1
0 136 m 1,16,-1
 0 204 l 1,17,-1
 68 204 l 1,18,-1
 68 136 l 1,19,-1
 0 136 l 1,16,-1
682 136 m 1,20,-1
 682 204 l 1,21,-1
 750 204 l 1,22,-1
 750 136 l 1,23,-1
 682 136 l 1,20,-1
0 273 m 1,24,-1
 0 341 l 1,25,-1
 68 341 l 1,26,-1
 68 273 l 1,27,-1
 0 273 l 1,24,-1
682 273 m 1,28,-1
 682 341 l 1,29,-1
 750 341 l 1,30,-1
 750 273 l 1,31,-1
 682 273 l 1,28,-1
0 409 m 1,32,-1
 0 477 l 1,33,-1
 68 477 l 1,34,-1
 68 409 l 1,35,-1
 0 409 l 1,32,-1
682 409 m 1,36,-1
 682 477 l 1,37,-1
 750 477 l 1,38,-1
 750 409 l 1,39,-1
 682 409 l 1,36,-1
0 546 m 1,40,-1
 0 614 l 1,41,-1
 68 614 l 1,42,-1
 68 546 l 1,43,-1
 0 546 l 1,40,-1
682 546 m 1,44,-1
 682 614 l 1,45,-1
 750 614 l 1,46,-1
 750 546 l 1,47,-1
 682 546 l 1,44,-1
0 682 m 1,48,-1
 0 750 l 1,49,-1
 68 750 l 1,50,-1
 68 682 l 1,51,-1
 0 682 l 1,48,-1
682 682 m 1,52,-1
 682 750 l 1,53,-1
 750 750 l 1,54,-1
 750 682 l 1,55,-1
 682 682 l 1,52,-1
0 819 m 1,56,-1
 0 887 l 1,57,-1
 68 887 l 1,58,-1
 68 819 l 1,59,-1
 0 819 l 1,56,-1
682 819 m 1,60,-1
 682 887 l 1,61,-1
 750 887 l 1,62,-1
 750 819 l 1,63,-1
 682 819 l 1,60,-1
0 955 m 1,64,-1
 0 1024 l 1,65,-1
 68 1024 l 1,66,-1
 68 955 l 1,67,-1
 0 955 l 1,64,-1
682 955 m 1,68,-1
 682 1024 l 1,69,-1
 750 1024 l 1,70,-1
 750 955 l 1,71,-1
 682 955 l 1,68,-1
0 1092 m 1,72,-1
 0 1160 l 1,73,-1
 68 1160 l 1,74,-1
 68 1092 l 1,75,-1
 0 1092 l 1,72,-1
682 1092 m 1,76,-1
 682 1160 l 1,77,-1
 750 1160 l 1,78,-1
 750 1092 l 1,79,-1
 682 1092 l 1,76,-1
EndSplineSet
Validated: 1
EndChar

StartChar: V
Encoding: 86 86 55
Width: 1092
Flags: W
LayerCount: 2
Fore
SplineSet
409 0 m 1,0,-1
 409 68 l 1,1,-1
 477 68 l 1,2,-1
 477 0 l 1,3,-1
 409 0 l 1,0,-1
273 136 m 1,4,-1
 273 204 l 1,5,-1
 341 204 l 1,6,-1
 341 136 l 1,7,-1
 273 136 l 1,4,-1
546 136 m 1,8,-1
 546 204 l 1,9,-1
 614 204 l 1,10,-1
 614 136 l 1,11,-1
 546 136 l 1,8,-1
273 273 m 1,12,-1
 273 341 l 1,13,-1
 341 341 l 1,14,-1
 341 273 l 1,15,-1
 273 273 l 1,12,-1
546 273 m 1,16,-1
 546 341 l 1,17,-1
 614 341 l 1,18,-1
 614 273 l 1,19,-1
 546 273 l 1,16,-1
136 409 m 1,20,-1
 136 477 l 1,21,-1
 204 477 l 1,22,-1
 204 409 l 1,23,-1
 136 409 l 1,20,-1
682 409 m 1,24,-1
 682 477 l 1,25,-1
 750 477 l 1,26,-1
 750 409 l 1,27,-1
 682 409 l 1,24,-1
136 546 m 1,28,-1
 136 614 l 1,29,-1
 204 614 l 1,30,-1
 204 546 l 1,31,-1
 136 546 l 1,28,-1
682 546 m 1,32,-1
 682 614 l 1,33,-1
 750 614 l 1,34,-1
 750 546 l 1,35,-1
 682 546 l 1,32,-1
0 682 m 1,36,-1
 0 750 l 1,37,-1
 68 750 l 1,38,-1
 68 682 l 1,39,-1
 0 682 l 1,36,-1
819 682 m 1,40,-1
 819 750 l 1,41,-1
 887 750 l 1,42,-1
 887 682 l 1,43,-1
 819 682 l 1,40,-1
0 819 m 1,44,-1
 0 887 l 1,45,-1
 68 887 l 1,46,-1
 68 819 l 1,47,-1
 0 819 l 1,44,-1
819 819 m 1,48,-1
 819 887 l 1,49,-1
 887 887 l 1,50,-1
 887 819 l 1,51,-1
 819 819 l 1,48,-1
0 955 m 1,52,-1
 0 1024 l 1,53,-1
 68 1024 l 1,54,-1
 68 955 l 1,55,-1
 0 955 l 1,52,-1
819 955 m 1,56,-1
 819 1024 l 1,57,-1
 887 1024 l 1,58,-1
 887 955 l 1,59,-1
 819 955 l 1,56,-1
0 1092 m 1,60,-1
 0 1160 l 1,61,-1
 68 1160 l 1,62,-1
 68 1092 l 1,63,-1
 0 1092 l 1,60,-1
819 1092 m 1,64,-1
 819 1160 l 1,65,-1
 887 1160 l 1,66,-1
 887 1092 l 1,67,-1
 819 1092 l 1,64,-1
EndSplineSet
Validated: 1
EndChar

StartChar: W
Encoding: 87 87 56
Width: 1365
Flags: W
LayerCount: 2
Fore
SplineSet
273 0 m 1,0,-1
 273 68 l 1,1,-1
 341 68 l 1,2,-1
 341 0 l 1,3,-1
 273 0 l 1,0,-1
819 0 m 1,4,-1
 819 68 l 1,5,-1
 887 68 l 1,6,-1
 887 0 l 1,7,-1
 819 0 l 1,4,-1
136 136 m 1,8,-1
 136 204 l 1,9,-1
 204 204 l 1,10,-1
 204 136 l 1,11,-1
 136 136 l 1,8,-1
409 136 m 1,12,-1
 409 204 l 1,13,-1
 477 204 l 1,14,-1
 477 136 l 1,15,-1
 409 136 l 1,12,-1
682 136 m 1,16,-1
 682 204 l 1,17,-1
 750 204 l 1,18,-1
 750 136 l 1,19,-1
 682 136 l 1,16,-1
955 136 m 1,20,-1
 955 204 l 1,21,-1
 1024 204 l 1,22,-1
 1024 136 l 1,23,-1
 955 136 l 1,20,-1
136 273 m 1,24,-1
 136 341 l 1,25,-1
 204 341 l 1,26,-1
 204 273 l 1,27,-1
 136 273 l 1,24,-1
409 273 m 1,28,-1
 409 341 l 1,29,-1
 477 341 l 1,30,-1
 477 273 l 1,31,-1
 409 273 l 1,28,-1
682 273 m 1,32,-1
 682 341 l 1,33,-1
 750 341 l 1,34,-1
 750 273 l 1,35,-1
 682 273 l 1,32,-1
955 273 m 1,36,-1
 955 341 l 1,37,-1
 1024 341 l 1,38,-1
 1024 273 l 1,39,-1
 955 273 l 1,36,-1
136 409 m 1,40,-1
 136 477 l 1,41,-1
 204 477 l 1,42,-1
 204 409 l 1,43,-1
 136 409 l 1,40,-1
409 409 m 1,44,-1
 409 477 l 1,45,-1
 477 477 l 1,46,-1
 477 409 l 1,47,-1
 409 409 l 1,44,-1
682 409 m 1,48,-1
 682 477 l 1,49,-1
 750 477 l 1,50,-1
 750 409 l 1,51,-1
 682 409 l 1,48,-1
955 409 m 1,52,-1
 955 477 l 1,53,-1
 1024 477 l 1,54,-1
 1024 409 l 1,55,-1
 955 409 l 1,52,-1
136 546 m 1,56,-1
 136 614 l 1,57,-1
 204 614 l 1,58,-1
 204 546 l 1,59,-1
 136 546 l 1,56,-1
409 546 m 1,60,-1
 409 614 l 1,61,-1
 477 614 l 1,62,-1
 477 546 l 1,63,-1
 409 546 l 1,60,-1
682 546 m 1,64,-1
 682 614 l 1,65,-1
 750 614 l 1,66,-1
 750 546 l 1,67,-1
 682 546 l 1,64,-1
955 546 m 1,68,-1
 955 614 l 1,69,-1
 1024 614 l 1,70,-1
 1024 546 l 1,71,-1
 955 546 l 1,68,-1
0 682 m 1,72,-1
 0 750 l 1,73,-1
 68 750 l 1,74,-1
 68 682 l 1,75,-1
 0 682 l 1,72,-1
546 682 m 1,76,-1
 546 750 l 1,77,-1
 614 750 l 1,78,-1
 614 682 l 1,79,-1
 546 682 l 1,76,-1
1092 682 m 1,80,-1
 1092 750 l 1,81,-1
 1160 750 l 1,82,-1
 1160 682 l 1,83,-1
 1092 682 l 1,80,-1
0 819 m 1,84,-1
 0 887 l 1,85,-1
 68 887 l 1,86,-1
 68 819 l 1,87,-1
 0 819 l 1,84,-1
546 819 m 1,88,-1
 546 887 l 1,89,-1
 614 887 l 1,90,-1
 614 819 l 1,91,-1
 546 819 l 1,88,-1
1092 819 m 1,92,-1
 1092 887 l 1,93,-1
 1160 887 l 1,94,-1
 1160 819 l 1,95,-1
 1092 819 l 1,92,-1
0 955 m 1,96,-1
 0 1024 l 1,97,-1
 68 1024 l 1,98,-1
 68 955 l 1,99,-1
 0 955 l 1,96,-1
546 955 m 1,100,-1
 546 1024 l 1,101,-1
 614 1024 l 1,102,-1
 614 955 l 1,103,-1
 546 955 l 1,100,-1
1092 955 m 1,104,-1
 1092 1024 l 1,105,-1
 1160 1024 l 1,106,-1
 1160 955 l 1,107,-1
 1092 955 l 1,104,-1
0 1092 m 1,108,-1
 0 1160 l 1,109,-1
 68 1160 l 1,110,-1
 68 1092 l 1,111,-1
 0 1092 l 1,108,-1
546 1092 m 1,112,-1
 546 1160 l 1,113,-1
 614 1160 l 1,114,-1
 614 1092 l 1,115,-1
 546 1092 l 1,112,-1
1092 1092 m 1,116,-1
 1092 1160 l 1,117,-1
 1160 1160 l 1,118,-1
 1160 1092 l 1,119,-1
 1092 1092 l 1,116,-1
EndSplineSet
Validated: 1
EndChar

StartChar: X
Encoding: 88 88 57
Width: 955
Flags: W
LayerCount: 2
Fore
SplineSet
0 0 m 1,0,-1
 0 68 l 1,1,-1
 68 68 l 1,2,-1
 68 0 l 1,3,-1
 0 0 l 1,0,-1
682 0 m 1,4,-1
 682 68 l 1,5,-1
 750 68 l 1,6,-1
 750 0 l 1,7,-1
 682 0 l 1,4,-1
0 136 m 1,8,-1
 0 204 l 1,9,-1
 68 204 l 1,10,-1
 68 136 l 1,11,-1
 0 136 l 1,8,-1
682 136 m 1,12,-1
 682 204 l 1,13,-1
 750 204 l 1,14,-1
 750 136 l 1,15,-1
 682 136 l 1,12,-1
0 273 m 1,16,-1
 0 341 l 1,17,-1
 68 341 l 1,18,-1
 68 273 l 1,19,-1
 0 273 l 1,16,-1
682 273 m 1,20,-1
 682 341 l 1,21,-1
 750 341 l 1,22,-1
 750 273 l 1,23,-1
 682 273 l 1,20,-1
136 409 m 1,24,-1
 136 477 l 1,25,-1
 204 477 l 1,26,-1
 204 409 l 1,27,-1
 136 409 l 1,24,-1
546 409 m 1,28,-1
 546 477 l 1,29,-1
 614 477 l 1,30,-1
 614 409 l 1,31,-1
 546 409 l 1,28,-1
273 546 m 1,32,-1
 273 614 l 1,33,-1
 341 614 l 1,34,-1
 341 546 l 1,35,-1
 273 546 l 1,32,-1
409 546 m 1,36,-1
 409 614 l 1,37,-1
 477 614 l 1,38,-1
 477 546 l 1,39,-1
 409 546 l 1,36,-1
136 682 m 1,40,-1
 136 750 l 1,41,-1
 204 750 l 1,42,-1
 204 682 l 1,43,-1
 136 682 l 1,40,-1
546 682 m 1,44,-1
 546 750 l 1,45,-1
 614 750 l 1,46,-1
 614 682 l 1,47,-1
 546 682 l 1,44,-1
0 819 m 1,48,-1
 0 887 l 1,49,-1
 68 887 l 1,50,-1
 68 819 l 1,51,-1
 0 819 l 1,48,-1
682 819 m 1,52,-1
 682 887 l 1,53,-1
 750 887 l 1,54,-1
 750 819 l 1,55,-1
 682 819 l 1,52,-1
0 955 m 1,56,-1
 0 1024 l 1,57,-1
 68 1024 l 1,58,-1
 68 955 l 1,59,-1
 0 955 l 1,56,-1
682 955 m 1,60,-1
 682 1024 l 1,61,-1
 750 1024 l 1,62,-1
 750 955 l 1,63,-1
 682 955 l 1,60,-1
0 1092 m 1,64,-1
 0 1160 l 1,65,-1
 68 1160 l 1,66,-1
 68 1092 l 1,67,-1
 0 1092 l 1,64,-1
682 1092 m 1,68,-1
 682 1160 l 1,69,-1
 750 1160 l 1,70,-1
 750 1092 l 1,71,-1
 682 1092 l 1,68,-1
EndSplineSet
Validated: 1
EndChar

StartChar: Y
Encoding: 89 89 58
Width: 819
Flags: W
LayerCount: 2
Fore
SplineSet
273 0 m 1,0,-1
 273 68 l 1,1,-1
 341 68 l 1,2,-1
 341 0 l 1,3,-1
 273 0 l 1,0,-1
273 136 m 1,4,-1
 273 204 l 1,5,-1
 341 204 l 1,6,-1
 341 136 l 1,7,-1
 273 136 l 1,4,-1
273 273 m 1,8,-1
 273 341 l 1,9,-1
 341 341 l 1,10,-1
 341 273 l 1,11,-1
 273 273 l 1,8,-1
273 409 m 1,12,-1
 273 477 l 1,13,-1
 341 477 l 1,14,-1
 341 409 l 1,15,-1
 273 409 l 1,12,-1
273 546 m 1,16,-1
 273 614 l 1,17,-1
 341 614 l 1,18,-1
 341 546 l 1,19,-1
 273 546 l 1,16,-1
136 682 m 1,20,-1
 136 750 l 1,21,-1
 204 750 l 1,22,-1
 204 682 l 1,23,-1
 136 682 l 1,20,-1
409 682 m 1,24,-1
 409 750 l 1,25,-1
 477 750 l 1,26,-1
 477 682 l 1,27,-1
 409 682 l 1,24,-1
0 819 m 1,28,-1
 0 887 l 1,29,-1
 68 887 l 1,30,-1
 68 819 l 1,31,-1
 0 819 l 1,28,-1
546 819 m 1,32,-1
 546 887 l 1,33,-1
 614 887 l 1,34,-1
 614 819 l 1,35,-1
 546 819 l 1,32,-1
0 955 m 1,36,-1
 0 1024 l 1,37,-1
 68 1024 l 1,38,-1
 68 955 l 1,39,-1
 0 955 l 1,36,-1
546 955 m 1,40,-1
 546 1024 l 1,41,-1
 614 1024 l 1,42,-1
 614 955 l 1,43,-1
 546 955 l 1,40,-1
0 1092 m 1,44,-1
 0 1160 l 1,45,-1
 68 1160 l 1,46,-1
 68 1092 l 1,47,-1
 0 1092 l 1,44,-1
546 1092 m 1,48,-1
 546 1160 l 1,49,-1
 614 1160 l 1,50,-1
 614 1092 l 1,51,-1
 546 1092 l 1,48,-1
EndSplineSet
Validated: 1
EndChar

StartChar: Z
Encoding: 90 90 59
Width: 955
Flags: W
LayerCount: 2
Fore
SplineSet
0 0 m 1,0,-1
 0 68 l 1,1,-1
 68 68 l 1,2,-1
 68 0 l 1,3,-1
 0 0 l 1,0,-1
136 0 m 1,4,-1
 136 68 l 1,5,-1
 204 68 l 1,6,-1
 204 0 l 1,7,-1
 136 0 l 1,4,-1
273 0 m 1,8,-1
 273 68 l 1,9,-1
 341 68 l 1,10,-1
 341 0 l 1,11,-1
 273 0 l 1,8,-1
409 0 m 1,12,-1
 409 68 l 1,13,-1
 477 68 l 1,14,-1
 477 0 l 1,15,-1
 409 0 l 1,12,-1
546 0 m 1,16,-1
 546 68 l 1,17,-1
 614 68 l 1,18,-1
 614 0 l 1,19,-1
 546 0 l 1,16,-1
682 0 m 1,20,-1
 682 68 l 1,21,-1
 750 68 l 1,22,-1
 750 0 l 1,23,-1
 682 0 l 1,20,-1
0 136 m 1,24,-1
 0 204 l 1,25,-1
 68 204 l 1,26,-1
 68 136 l 1,27,-1
 0 136 l 1,24,-1
0 273 m 1,28,-1
 0 341 l 1,29,-1
 68 341 l 1,30,-1
 68 273 l 1,31,-1
 0 273 l 1,28,-1
136 409 m 1,32,-1
 136 477 l 1,33,-1
 204 477 l 1,34,-1
 204 409 l 1,35,-1
 136 409 l 1,32,-1
273 546 m 1,36,-1
 273 614 l 1,37,-1
 341 614 l 1,38,-1
 341 546 l 1,39,-1
 273 546 l 1,36,-1
409 546 m 1,40,-1
 409 614 l 1,41,-1
 477 614 l 1,42,-1
 477 546 l 1,43,-1
 409 546 l 1,40,-1
546 682 m 1,44,-1
 546 750 l 1,45,-1
 614 750 l 1,46,-1
 614 682 l 1,47,-1
 546 682 l 1,44,-1
682 819 m 1,48,-1
 682 887 l 1,49,-1
 750 887 l 1,50,-1
 750 819 l 1,51,-1
 682 819 l 1,48,-1
682 955 m 1,52,-1
 682 1024 l 1,53,-1
 750 1024 l 1,54,-1
 750 955 l 1,55,-1
 682 955 l 1,52,-1
0 1092 m 1,56,-1
 0 1160 l 1,57,-1
 68 1160 l 1,58,-1
 68 1092 l 1,59,-1
 0 1092 l 1,56,-1
136 1092 m 1,60,-1
 136 1160 l 1,61,-1
 204 1160 l 1,62,-1
 204 1092 l 1,63,-1
 136 1092 l 1,60,-1
273 1092 m 1,64,-1
 273 1160 l 1,65,-1
 341 1160 l 1,66,-1
 341 1092 l 1,67,-1
 273 1092 l 1,64,-1
409 1092 m 1,68,-1
 409 1160 l 1,69,-1
 477 1160 l 1,70,-1
 477 1092 l 1,71,-1
 409 1092 l 1,68,-1
546 1092 m 1,72,-1
 546 1160 l 1,73,-1
 614 1160 l 1,74,-1
 614 1092 l 1,75,-1
 546 1092 l 1,72,-1
682 1092 m 1,76,-1
 682 1160 l 1,77,-1
 750 1160 l 1,78,-1
 750 1092 l 1,79,-1
 682 1092 l 1,76,-1
EndSplineSet
Validated: 1
EndChar

StartChar: bracketleft
Encoding: 91 91 60
Width: 546
Flags: W
LayerCount: 2
Fore
SplineSet
0 0 m 1,0,-1
 0 68 l 1,1,-1
 68 68 l 1,2,-1
 68 0 l 1,3,-1
 0 0 l 1,0,-1
136 0 m 1,4,-1
 136 68 l 1,5,-1
 204 68 l 1,6,-1
 204 0 l 1,7,-1
 136 0 l 1,4,-1
273 0 m 1,8,-1
 273 68 l 1,9,-1
 341 68 l 1,10,-1
 341 0 l 1,11,-1
 273 0 l 1,8,-1
0 136 m 1,12,-1
 0 204 l 1,13,-1
 68 204 l 1,14,-1
 68 136 l 1,15,-1
 0 136 l 1,12,-1
0 273 m 1,16,-1
 0 341 l 1,17,-1
 68 341 l 1,18,-1
 68 273 l 1,19,-1
 0 273 l 1,16,-1
0 409 m 1,20,-1
 0 477 l 1,21,-1
 68 477 l 1,22,-1
 68 409 l 1,23,-1
 0 409 l 1,20,-1
0 546 m 1,24,-1
 0 614 l 1,25,-1
 68 614 l 1,26,-1
 68 546 l 1,27,-1
 0 546 l 1,24,-1
0 682 m 1,28,-1
 0 750 l 1,29,-1
 68 750 l 1,30,-1
 68 682 l 1,31,-1
 0 682 l 1,28,-1
0 819 m 1,32,-1
 0 887 l 1,33,-1
 68 887 l 1,34,-1
 68 819 l 1,35,-1
 0 819 l 1,32,-1
0 955 m 1,36,-1
 0 1024 l 1,37,-1
 68 1024 l 1,38,-1
 68 955 l 1,39,-1
 0 955 l 1,36,-1
0 1092 m 1,40,-1
 0 1160 l 1,41,-1
 68 1160 l 1,42,-1
 68 1092 l 1,43,-1
 0 1092 l 1,40,-1
136 1092 m 1,44,-1
 136 1160 l 1,45,-1
 204 1160 l 1,46,-1
 204 1092 l 1,47,-1
 136 1092 l 1,44,-1
273 1092 m 1,48,-1
 273 1160 l 1,49,-1
 341 1160 l 1,50,-1
 341 1092 l 1,51,-1
 273 1092 l 1,48,-1
EndSplineSet
Validated: 1
EndChar

StartChar: backslash
Encoding: 92 92 61
Width: 819
Flags: W
LayerCount: 2
Fore
SplineSet
546 0 m 1,0,-1
 546 68 l 1,1,-1
 614 68 l 1,2,-1
 614 0 l 1,3,-1
 546 0 l 1,0,-1
546 136 m 1,4,-1
 546 204 l 1,5,-1
 614 204 l 1,6,-1
 614 136 l 1,7,-1
 546 136 l 1,4,-1
409 273 m 1,8,-1
 409 341 l 1,9,-1
 477 341 l 1,10,-1
 477 273 l 1,11,-1
 409 273 l 1,8,-1
409 409 m 1,12,-1
 409 477 l 1,13,-1
 477 477 l 1,14,-1
 477 409 l 1,15,-1
 409 409 l 1,12,-1
273 546 m 1,16,-1
 273 614 l 1,17,-1
 341 614 l 1,18,-1
 341 546 l 1,19,-1
 273 546 l 1,16,-1
136 682 m 1,20,-1
 136 750 l 1,21,-1
 204 750 l 1,22,-1
 204 682 l 1,23,-1
 136 682 l 1,20,-1
136 819 m 1,24,-1
 136 887 l 1,25,-1
 204 887 l 1,26,-1
 204 819 l 1,27,-1
 136 819 l 1,24,-1
0 955 m 1,28,-1
 0 1024 l 1,29,-1
 68 1024 l 1,30,-1
 68 955 l 1,31,-1
 0 955 l 1,28,-1
0 1092 m 1,32,-1
 0 1160 l 1,33,-1
 68 1160 l 1,34,-1
 68 1092 l 1,35,-1
 0 1092 l 1,32,-1
EndSplineSet
Validated: 1
EndChar

StartChar: bracketright
Encoding: 93 93 62
Width: 546
Flags: W
LayerCount: 2
Fore
SplineSet
0 0 m 1,0,-1
 0 68 l 1,1,-1
 68 68 l 1,2,-1
 68 0 l 1,3,-1
 0 0 l 1,0,-1
136 0 m 1,4,-1
 136 68 l 1,5,-1
 204 68 l 1,6,-1
 204 0 l 1,7,-1
 136 0 l 1,4,-1
273 0 m 1,8,-1
 273 68 l 1,9,-1
 341 68 l 1,10,-1
 341 0 l 1,11,-1
 273 0 l 1,8,-1
273 136 m 1,12,-1
 273 204 l 1,13,-1
 341 204 l 1,14,-1
 341 136 l 1,15,-1
 273 136 l 1,12,-1
273 273 m 1,16,-1
 273 341 l 1,17,-1
 341 341 l 1,18,-1
 341 273 l 1,19,-1
 273 273 l 1,16,-1
273 409 m 1,20,-1
 273 477 l 1,21,-1
 341 477 l 1,22,-1
 341 409 l 1,23,-1
 273 409 l 1,20,-1
273 546 m 1,24,-1
 273 614 l 1,25,-1
 341 614 l 1,26,-1
 341 546 l 1,27,-1
 273 546 l 1,24,-1
273 682 m 1,28,-1
 273 750 l 1,29,-1
 341 750 l 1,30,-1
 341 682 l 1,31,-1
 273 682 l 1,28,-1
273 819 m 1,32,-1
 273 887 l 1,33,-1
 341 887 l 1,34,-1
 341 819 l 1,35,-1
 273 819 l 1,32,-1
273 955 m 1,36,-1
 273 1024 l 1,37,-1
 341 1024 l 1,38,-1
 341 955 l 1,39,-1
 273 955 l 1,36,-1
0 1092 m 1,40,-1
 0 1160 l 1,41,-1
 68 1160 l 1,42,-1
 68 1092 l 1,43,-1
 0 1092 l 1,40,-1
136 1092 m 1,44,-1
 136 1160 l 1,45,-1
 204 1160 l 1,46,-1
 204 1092 l 1,47,-1
 136 1092 l 1,44,-1
273 1092 m 1,48,-1
 273 1160 l 1,49,-1
 341 1160 l 1,50,-1
 341 1092 l 1,51,-1
 273 1092 l 1,48,-1
EndSplineSet
Validated: 1
EndChar

StartChar: asciicircum
Encoding: 94 94 63
Width: 819
Flags: W
LayerCount: 2
Fore
SplineSet
0 819 m 1,0,-1
 0 887 l 1,1,-1
 68 887 l 1,2,-1
 68 819 l 1,3,-1
 0 819 l 1,0,-1
546 819 m 1,4,-1
 546 887 l 1,5,-1
 614 887 l 1,6,-1
 614 819 l 1,7,-1
 546 819 l 1,4,-1
136 955 m 1,8,-1
 136 1024 l 1,9,-1
 204 1024 l 1,10,-1
 204 955 l 1,11,-1
 136 955 l 1,8,-1
409 955 m 1,12,-1
 409 1024 l 1,13,-1
 477 1024 l 1,14,-1
 477 955 l 1,15,-1
 409 955 l 1,12,-1
273 1092 m 1,16,-1
 273 1160 l 1,17,-1
 341 1160 l 1,18,-1
 341 1092 l 1,19,-1
 273 1092 l 1,16,-1
EndSplineSet
Validated: 1
EndChar

StartChar: underscore
Encoding: 95 95 64
Width: 955
Flags: W
LayerCount: 2
Fore
SplineSet
0 -136 m 1,0,-1
 0 -68 l 1,1,-1
 68 -68 l 1,2,-1
 68 -136 l 1,3,-1
 0 -136 l 1,0,-1
136 -136 m 1,4,-1
 136 -68 l 1,5,-1
 204 -68 l 1,6,-1
 204 -136 l 1,7,-1
 136 -136 l 1,4,-1
273 -136 m 1,8,-1
 273 -68 l 1,9,-1
 341 -68 l 1,10,-1
 341 -136 l 1,11,-1
 273 -136 l 1,8,-1
409 -136 m 1,12,-1
 409 -68 l 1,13,-1
 477 -68 l 1,14,-1
 477 -136 l 1,15,-1
 409 -136 l 1,12,-1
546 -136 m 1,16,-1
 546 -68 l 1,17,-1
 614 -68 l 1,18,-1
 614 -136 l 1,19,-1
 546 -136 l 1,16,-1
682 -136 m 1,20,-1
 682 -68 l 1,21,-1
 750 -68 l 1,22,-1
 750 -136 l 1,23,-1
 682 -136 l 1,20,-1
EndSplineSet
Validated: 1
EndChar

StartChar: grave
Encoding: 96 96 65
Width: 409
Flags: W
LayerCount: 2
Fore
SplineSet
136 955 m 1,0,-1
 136 1024 l 1,1,-1
 204 1024 l 1,2,-1
 204 955 l 1,3,-1
 136 955 l 1,0,-1
0 1092 m 1,4,-1
 0 1160 l 1,5,-1
 68 1160 l 1,6,-1
 68 1092 l 1,7,-1
 0 1092 l 1,4,-1
EndSplineSet
Validated: 1
EndChar

StartChar: a
Encoding: 97 97 66
Width: 887
Flags: W
LayerCount: 2
Fore
SplineSet
136 0 m 1,0,-1
 136 68 l 1,1,-1
 204 68 l 1,2,-1
 204 0 l 1,3,-1
 136 0 l 1,0,-1
273 0 m 1,4,-1
 273 68 l 1,5,-1
 341 68 l 1,6,-1
 341 0 l 1,7,-1
 273 0 l 1,4,-1
409 0 m 1,8,-1
 409 68 l 1,9,-1
 477 68 l 1,10,-1
 477 0 l 1,11,-1
 409 0 l 1,8,-1
682 0 m 1,12,-1
 682 68 l 1,13,-1
 750 68 l 1,14,-1
 750 0 l 1,15,-1
 682 0 l 1,12,-1
0 136 m 1,16,-1
 0 204 l 1,17,-1
 68 204 l 1,18,-1
 68 136 l 1,19,-1
 0 136 l 1,16,-1
546 136 m 1,20,-1
 546 204 l 1,21,-1
 614 204 l 1,22,-1
 614 136 l 1,23,-1
 546 136 l 1,20,-1
136 273 m 1,24,-1
 136 341 l 1,25,-1
 204 341 l 1,26,-1
 204 273 l 1,27,-1
 136 273 l 1,24,-1
546 273 m 1,28,-1
 546 341 l 1,29,-1
 614 341 l 1,30,-1
 614 273 l 1,31,-1
 546 273 l 1,28,-1
273 409 m 1,32,-1
 273 477 l 1,33,-1
 341 477 l 1,34,-1
 341 409 l 1,35,-1
 273 409 l 1,32,-1
409 409 m 1,36,-1
 409 477 l 1,37,-1
 477 477 l 1,38,-1
 477 409 l 1,39,-1
 409 409 l 1,36,-1
546 409 m 1,40,-1
 546 477 l 1,41,-1
 614 477 l 1,42,-1
 614 409 l 1,43,-1
 546 409 l 1,40,-1
0 546 m 1,44,-1
 0 614 l 1,45,-1
 68 614 l 1,46,-1
 68 546 l 1,47,-1
 0 546 l 1,44,-1
546 546 m 1,48,-1
 546 614 l 1,49,-1
 614 614 l 1,50,-1
 614 546 l 1,51,-1
 546 546 l 1,48,-1
0 682 m 1,52,-1
 0 750 l 1,53,-1
 68 750 l 1,54,-1
 68 682 l 1,55,-1
 0 682 l 1,52,-1
546 682 m 1,56,-1
 546 750 l 1,57,-1
 614 750 l 1,58,-1
 614 682 l 1,59,-1
 546 682 l 1,56,-1
136 819 m 1,60,-1
 136 887 l 1,61,-1
 204 887 l 1,62,-1
 204 819 l 1,63,-1
 136 819 l 1,60,-1
273 819 m 1,64,-1
 273 887 l 1,65,-1
 341 887 l 1,66,-1
 341 819 l 1,67,-1
 273 819 l 1,64,-1
409 819 m 1,68,-1
 409 887 l 1,69,-1
 477 887 l 1,70,-1
 477 819 l 1,71,-1
 409 819 l 1,68,-1
EndSplineSet
Validated: 1
EndChar

StartChar: b
Encoding: 98 98 67
Width: 819
Flags: W
LayerCount: 2
Fore
SplineSet
0 0 m 1,0,-1
 0 68 l 1,1,-1
 68 68 l 1,2,-1
 68 0 l 1,3,-1
 0 0 l 1,0,-1
273 0 m 1,4,-1
 273 68 l 1,5,-1
 341 68 l 1,6,-1
 341 0 l 1,7,-1
 273 0 l 1,4,-1
409 0 m 1,8,-1
 409 68 l 1,9,-1
 477 68 l 1,10,-1
 477 0 l 1,11,-1
 409 0 l 1,8,-1
0 136 m 1,12,-1
 0 204 l 1,13,-1
 68 204 l 1,14,-1
 68 136 l 1,15,-1
 0 136 l 1,12,-1
136 136 m 1,16,-1
 136 204 l 1,17,-1
 204 204 l 1,18,-1
 204 136 l 1,19,-1
 136 136 l 1,16,-1
546 136 m 1,20,-1
 546 204 l 1,21,-1
 614 204 l 1,22,-1
 614 136 l 1,23,-1
 546 136 l 1,20,-1
0 273 m 1,24,-1
 0 341 l 1,25,-1
 68 341 l 1,26,-1
 68 273 l 1,27,-1
 0 273 l 1,24,-1
546 273 m 1,28,-1
 546 341 l 1,29,-1
 614 341 l 1,30,-1
 614 273 l 1,31,-1
 546 273 l 1,28,-1
0 409 m 1,32,-1
 0 477 l 1,33,-1
 68 477 l 1,34,-1
 68 409 l 1,35,-1
 0 409 l 1,32,-1
546 409 m 1,36,-1
 546 477 l 1,37,-1
 614 477 l 1,38,-1
 614 409 l 1,39,-1
 546 409 l 1,36,-1
0 546 m 1,40,-1
 0 614 l 1,41,-1
 68 614 l 1,42,-1
 68 546 l 1,43,-1
 0 546 l 1,40,-1
546 546 m 1,44,-1
 546 614 l 1,45,-1
 614 614 l 1,46,-1
 614 546 l 1,47,-1
 546 546 l 1,44,-1
0 682 m 1,48,-1
 0 750 l 1,49,-1
 68 750 l 1,50,-1
 68 682 l 1,51,-1
 0 682 l 1,48,-1
136 682 m 1,52,-1
 136 750 l 1,53,-1
 204 750 l 1,54,-1
 204 682 l 1,55,-1
 136 682 l 1,52,-1
546 682 m 1,56,-1
 546 750 l 1,57,-1
 614 750 l 1,58,-1
 614 682 l 1,59,-1
 546 682 l 1,56,-1
0 819 m 1,60,-1
 0 887 l 1,61,-1
 68 887 l 1,62,-1
 68 819 l 1,63,-1
 0 819 l 1,60,-1
273 819 m 1,64,-1
 273 887 l 1,65,-1
 341 887 l 1,66,-1
 341 819 l 1,67,-1
 273 819 l 1,64,-1
409 819 m 1,68,-1
 409 887 l 1,69,-1
 477 887 l 1,70,-1
 477 819 l 1,71,-1
 409 819 l 1,68,-1
0 955 m 1,72,-1
 0 1024 l 1,73,-1
 68 1024 l 1,74,-1
 68 955 l 1,75,-1
 0 955 l 1,72,-1
0 1092 m 1,76,-1
 0 1160 l 1,77,-1
 68 1160 l 1,78,-1
 68 1092 l 1,79,-1
 0 1092 l 1,76,-1
EndSplineSet
Validated: 1
EndChar

StartChar: c
Encoding: 99 99 68
Width: 819
Flags: W
LayerCount: 2
Fore
SplineSet
136 0 m 1,0,-1
 136 68 l 1,1,-1
 204 68 l 1,2,-1
 204 0 l 1,3,-1
 136 0 l 1,0,-1
273 0 m 1,4,-1
 273 68 l 1,5,-1
 341 68 l 1,6,-1
 341 0 l 1,7,-1
 273 0 l 1,4,-1
409 0 m 1,8,-1
 409 68 l 1,9,-1
 477 68 l 1,10,-1
 477 0 l 1,11,-1
 409 0 l 1,8,-1
0 136 m 1,12,-1
 0 204 l 1,13,-1
 68 204 l 1,14,-1
 68 136 l 1,15,-1
 0 136 l 1,12,-1
546 136 m 1,16,-1
 546 204 l 1,17,-1
 614 204 l 1,18,-1
 614 136 l 1,19,-1
 546 136 l 1,16,-1
0 273 m 1,20,-1
 0 341 l 1,21,-1
 68 341 l 1,22,-1
 68 273 l 1,23,-1
 0 273 l 1,20,-1
0 409 m 1,24,-1
 0 477 l 1,25,-1
 68 477 l 1,26,-1
 68 409 l 1,27,-1
 0 409 l 1,24,-1
0 546 m 1,28,-1
 0 614 l 1,29,-1
 68 614 l 1,30,-1
 68 546 l 1,31,-1
 0 546 l 1,28,-1
546 546 m 1,32,-1
 546 614 l 1,33,-1
 614 614 l 1,34,-1
 614 546 l 1,35,-1
 546 546 l 1,32,-1
0 682 m 1,36,-1
 0 750 l 1,37,-1
 68 750 l 1,38,-1
 68 682 l 1,39,-1
 0 682 l 1,36,-1
546 682 m 1,40,-1
 546 750 l 1,41,-1
 614 750 l 1,42,-1
 614 682 l 1,43,-1
 546 682 l 1,40,-1
136 819 m 1,44,-1
 136 887 l 1,45,-1
 204 887 l 1,46,-1
 204 819 l 1,47,-1
 136 819 l 1,44,-1
273 819 m 1,48,-1
 273 887 l 1,49,-1
 341 887 l 1,50,-1
 341 819 l 1,51,-1
 273 819 l 1,48,-1
409 819 m 1,52,-1
 409 887 l 1,53,-1
 477 887 l 1,54,-1
 477 819 l 1,55,-1
 409 819 l 1,52,-1
EndSplineSet
Validated: 1
EndChar

StartChar: d
Encoding: 100 100 69
Width: 819
Flags: W
LayerCount: 2
Fore
SplineSet
136 0 m 1,0,-1
 136 68 l 1,1,-1
 204 68 l 1,2,-1
 204 0 l 1,3,-1
 136 0 l 1,0,-1
273 0 m 1,4,-1
 273 68 l 1,5,-1
 341 68 l 1,6,-1
 341 0 l 1,7,-1
 273 0 l 1,4,-1
546 0 m 1,8,-1
 546 68 l 1,9,-1
 614 68 l 1,10,-1
 614 0 l 1,11,-1
 546 0 l 1,8,-1
0 136 m 1,12,-1
 0 204 l 1,13,-1
 68 204 l 1,14,-1
 68 136 l 1,15,-1
 0 136 l 1,12,-1
409 136 m 1,16,-1
 409 204 l 1,17,-1
 477 204 l 1,18,-1
 477 136 l 1,19,-1
 409 136 l 1,16,-1
546 136 m 1,20,-1
 546 204 l 1,21,-1
 614 204 l 1,22,-1
 614 136 l 1,23,-1
 546 136 l 1,20,-1
0 273 m 1,24,-1
 0 341 l 1,25,-1
 68 341 l 1,26,-1
 68 273 l 1,27,-1
 0 273 l 1,24,-1
546 273 m 1,28,-1
 546 341 l 1,29,-1
 614 341 l 1,30,-1
 614 273 l 1,31,-1
 546 273 l 1,28,-1
0 409 m 1,32,-1
 0 477 l 1,33,-1
 68 477 l 1,34,-1
 68 409 l 1,35,-1
 0 409 l 1,32,-1
546 409 m 1,36,-1
 546 477 l 1,37,-1
 614 477 l 1,38,-1
 614 409 l 1,39,-1
 546 409 l 1,36,-1
0 546 m 1,40,-1
 0 614 l 1,41,-1
 68 614 l 1,42,-1
 68 546 l 1,43,-1
 0 546 l 1,40,-1
546 546 m 1,44,-1
 546 614 l 1,45,-1
 614 614 l 1,46,-1
 614 546 l 1,47,-1
 546 546 l 1,44,-1
0 682 m 1,48,-1
 0 750 l 1,49,-1
 68 750 l 1,50,-1
 68 682 l 1,51,-1
 0 682 l 1,48,-1
409 682 m 1,52,-1
 409 750 l 1,53,-1
 477 750 l 1,54,-1
 477 682 l 1,55,-1
 409 682 l 1,52,-1
546 682 m 1,56,-1
 546 750 l 1,57,-1
 614 750 l 1,58,-1
 614 682 l 1,59,-1
 546 682 l 1,56,-1
136 819 m 1,60,-1
 136 887 l 1,61,-1
 204 887 l 1,62,-1
 204 819 l 1,63,-1
 136 819 l 1,60,-1
273 819 m 1,64,-1
 273 887 l 1,65,-1
 341 887 l 1,66,-1
 341 819 l 1,67,-1
 273 819 l 1,64,-1
546 819 m 1,68,-1
 546 887 l 1,69,-1
 614 887 l 1,70,-1
 614 819 l 1,71,-1
 546 819 l 1,68,-1
546 955 m 1,72,-1
 546 1024 l 1,73,-1
 614 1024 l 1,74,-1
 614 955 l 1,75,-1
 546 955 l 1,72,-1
546 1092 m 1,76,-1
 546 1160 l 1,77,-1
 614 1160 l 1,78,-1
 614 1092 l 1,79,-1
 546 1092 l 1,76,-1
EndSplineSet
Validated: 1
EndChar

StartChar: e
Encoding: 101 101 70
Width: 819
Flags: W
LayerCount: 2
Fore
SplineSet
136 0 m 1,0,-1
 136 68 l 1,1,-1
 204 68 l 1,2,-1
 204 0 l 1,3,-1
 136 0 l 1,0,-1
273 0 m 1,4,-1
 273 68 l 1,5,-1
 341 68 l 1,6,-1
 341 0 l 1,7,-1
 273 0 l 1,4,-1
409 0 m 1,8,-1
 409 68 l 1,9,-1
 477 68 l 1,10,-1
 477 0 l 1,11,-1
 409 0 l 1,8,-1
0 136 m 1,12,-1
 0 204 l 1,13,-1
 68 204 l 1,14,-1
 68 136 l 1,15,-1
 0 136 l 1,12,-1
546 136 m 1,16,-1
 546 204 l 1,17,-1
 614 204 l 1,18,-1
 614 136 l 1,19,-1
 546 136 l 1,16,-1
0 273 m 1,20,-1
 0 341 l 1,21,-1
 68 341 l 1,22,-1
 68 273 l 1,23,-1
 0 273 l 1,20,-1
0 409 m 1,24,-1
 0 477 l 1,25,-1
 68 477 l 1,26,-1
 68 409 l 1,27,-1
 0 409 l 1,24,-1
136 409 m 1,28,-1
 136 477 l 1,29,-1
 204 477 l 1,30,-1
 204 409 l 1,31,-1
 136 409 l 1,28,-1
273 409 m 1,32,-1
 273 477 l 1,33,-1
 341 477 l 1,34,-1
 341 409 l 1,35,-1
 273 409 l 1,32,-1
409 409 m 1,36,-1
 409 477 l 1,37,-1
 477 477 l 1,38,-1
 477 409 l 1,39,-1
 409 409 l 1,36,-1
546 409 m 1,40,-1
 546 477 l 1,41,-1
 614 477 l 1,42,-1
 614 409 l 1,43,-1
 546 409 l 1,40,-1
0 546 m 1,44,-1
 0 614 l 1,45,-1
 68 614 l 1,46,-1
 68 546 l 1,47,-1
 0 546 l 1,44,-1
546 546 m 1,48,-1
 546 614 l 1,49,-1
 614 614 l 1,50,-1
 614 546 l 1,51,-1
 546 546 l 1,48,-1
0 682 m 1,52,-1
 0 750 l 1,53,-1
 68 750 l 1,54,-1
 68 682 l 1,55,-1
 0 682 l 1,52,-1
546 682 m 1,56,-1
 546 750 l 1,57,-1
 614 750 l 1,58,-1
 614 682 l 1,59,-1
 546 682 l 1,56,-1
136 819 m 1,60,-1
 136 887 l 1,61,-1
 204 887 l 1,62,-1
 204 819 l 1,63,-1
 136 819 l 1,60,-1
273 819 m 1,64,-1
 273 887 l 1,65,-1
 341 887 l 1,66,-1
 341 819 l 1,67,-1
 273 819 l 1,64,-1
409 819 m 1,68,-1
 409 887 l 1,69,-1
 477 887 l 1,70,-1
 477 819 l 1,71,-1
 409 819 l 1,68,-1
EndSplineSet
Validated: 1
EndChar

StartChar: f
Encoding: 102 102 71
Width: 819
Flags: W
LayerCount: 2
Fore
SplineSet
273 0 m 1,0,-1
 273 68 l 1,1,-1
 341 68 l 1,2,-1
 341 0 l 1,3,-1
 273 0 l 1,0,-1
273 136 m 1,4,-1
 273 204 l 1,5,-1
 341 204 l 1,6,-1
 341 136 l 1,7,-1
 273 136 l 1,4,-1
273 273 m 1,8,-1
 273 341 l 1,9,-1
 341 341 l 1,10,-1
 341 273 l 1,11,-1
 273 273 l 1,8,-1
273 409 m 1,12,-1
 273 477 l 1,13,-1
 341 477 l 1,14,-1
 341 409 l 1,15,-1
 273 409 l 1,12,-1
273 546 m 1,16,-1
 273 614 l 1,17,-1
 341 614 l 1,18,-1
 341 546 l 1,19,-1
 273 546 l 1,16,-1
273 682 m 1,20,-1
 273 750 l 1,21,-1
 341 750 l 1,22,-1
 341 682 l 1,23,-1
 273 682 l 1,20,-1
0 819 m 1,24,-1
 0 887 l 1,25,-1
 68 887 l 1,26,-1
 68 819 l 1,27,-1
 0 819 l 1,24,-1
136 819 m 1,28,-1
 136 887 l 1,29,-1
 204 887 l 1,30,-1
 204 819 l 1,31,-1
 136 819 l 1,28,-1
273 819 m 1,32,-1
 273 887 l 1,33,-1
 341 887 l 1,34,-1
 341 819 l 1,35,-1
 273 819 l 1,32,-1
409 819 m 1,36,-1
 409 887 l 1,37,-1
 477 887 l 1,38,-1
 477 819 l 1,39,-1
 409 819 l 1,36,-1
546 819 m 1,40,-1
 546 887 l 1,41,-1
 614 887 l 1,42,-1
 614 819 l 1,43,-1
 546 819 l 1,40,-1
136 955 m 1,44,-1
 136 1024 l 1,45,-1
 204 1024 l 1,46,-1
 204 955 l 1,47,-1
 136 955 l 1,44,-1
136 1092 m 1,48,-1
 136 1160 l 1,49,-1
 204 1160 l 1,50,-1
 204 1092 l 1,51,-1
 136 1092 l 1,48,-1
273 1092 m 1,52,-1
 273 1160 l 1,53,-1
 341 1160 l 1,54,-1
 341 1092 l 1,55,-1
 273 1092 l 1,52,-1
409 1092 m 1,56,-1
 409 1160 l 1,57,-1
 477 1160 l 1,58,-1
 477 1092 l 1,59,-1
 409 1092 l 1,56,-1
EndSplineSet
Validated: 1
EndChar

StartChar: g
Encoding: 103 103 72
Width: 819
Flags: W
LayerCount: 2
Fore
SplineSet
136 -273 m 1,0,-1
 136 -204 l 1,1,-1
 204 -204 l 1,2,-1
 204 -273 l 1,3,-1
 136 -273 l 1,0,-1
273 -273 m 1,4,-1
 273 -204 l 1,5,-1
 341 -204 l 1,6,-1
 341 -273 l 1,7,-1
 273 -273 l 1,4,-1
409 -273 m 1,8,-1
 409 -204 l 1,9,-1
 477 -204 l 1,10,-1
 477 -273 l 1,11,-1
 409 -273 l 1,8,-1
0 -136 m 1,12,-1
 0 -68 l 1,13,-1
 68 -68 l 1,14,-1
 68 -136 l 1,15,-1
 0 -136 l 1,12,-1
546 -136 m 1,16,-1
 546 -68 l 1,17,-1
 614 -68 l 1,18,-1
 614 -136 l 1,19,-1
 546 -136 l 1,16,-1
0 0 m 1,20,-1
 0 68 l 1,21,-1
 68 68 l 1,22,-1
 68 0 l 1,23,-1
 0 0 l 1,20,-1
546 0 m 1,24,-1
 546 68 l 1,25,-1
 614 68 l 1,26,-1
 614 0 l 1,27,-1
 546 0 l 1,24,-1
136 136 m 1,28,-1
 136 204 l 1,29,-1
 204 204 l 1,30,-1
 204 136 l 1,31,-1
 136 136 l 1,28,-1
273 136 m 1,32,-1
 273 204 l 1,33,-1
 341 204 l 1,34,-1
 341 136 l 1,35,-1
 273 136 l 1,32,-1
409 136 m 1,36,-1
 409 204 l 1,37,-1
 477 204 l 1,38,-1
 477 136 l 1,39,-1
 409 136 l 1,36,-1
0 273 m 1,40,-1
 0 341 l 1,41,-1
 68 341 l 1,42,-1
 68 273 l 1,43,-1
 0 273 l 1,40,-1
136 409 m 1,44,-1
 136 477 l 1,45,-1
 204 477 l 1,46,-1
 204 409 l 1,47,-1
 136 409 l 1,44,-1
273 409 m 1,48,-1
 273 477 l 1,49,-1
 341 477 l 1,50,-1
 341 409 l 1,51,-1
 273 409 l 1,48,-1
409 409 m 1,52,-1
 409 477 l 1,53,-1
 477 477 l 1,54,-1
 477 409 l 1,55,-1
 409 409 l 1,52,-1
0 546 m 1,56,-1
 0 614 l 1,57,-1
 68 614 l 1,58,-1
 68 546 l 1,59,-1
 0 546 l 1,56,-1
546 546 m 1,60,-1
 546 614 l 1,61,-1
 614 614 l 1,62,-1
 614 546 l 1,63,-1
 546 546 l 1,60,-1
0 682 m 1,64,-1
 0 750 l 1,65,-1
 68 750 l 1,66,-1
 68 682 l 1,67,-1
 0 682 l 1,64,-1
546 682 m 1,68,-1
 546 750 l 1,69,-1
 614 750 l 1,70,-1
 614 682 l 1,71,-1
 546 682 l 1,68,-1
136 819 m 1,72,-1
 136 887 l 1,73,-1
 204 887 l 1,74,-1
 204 819 l 1,75,-1
 136 819 l 1,72,-1
273 819 m 1,76,-1
 273 887 l 1,77,-1
 341 887 l 1,78,-1
 341 819 l 1,79,-1
 273 819 l 1,76,-1
409 819 m 1,80,-1
 409 887 l 1,81,-1
 477 887 l 1,82,-1
 477 819 l 1,83,-1
 409 819 l 1,80,-1
409 955 m 1,84,-1
 409 1024 l 1,85,-1
 477 1024 l 1,86,-1
 477 955 l 1,87,-1
 409 955 l 1,84,-1
546 955 m 1,88,-1
 546 1024 l 1,89,-1
 614 1024 l 1,90,-1
 614 955 l 1,91,-1
 546 955 l 1,88,-1
EndSplineSet
Validated: 1
EndChar

StartChar: h
Encoding: 104 104 73
Width: 819
Flags: W
LayerCount: 2
Fore
SplineSet
0 0 m 1,0,-1
 0 68 l 1,1,-1
 68 68 l 1,2,-1
 68 0 l 1,3,-1
 0 0 l 1,0,-1
546 0 m 1,4,-1
 546 68 l 1,5,-1
 614 68 l 1,6,-1
 614 0 l 1,7,-1
 546 0 l 1,4,-1
0 136 m 1,8,-1
 0 204 l 1,9,-1
 68 204 l 1,10,-1
 68 136 l 1,11,-1
 0 136 l 1,8,-1
546 136 m 1,12,-1
 546 204 l 1,13,-1
 614 204 l 1,14,-1
 614 136 l 1,15,-1
 546 136 l 1,12,-1
0 273 m 1,16,-1
 0 341 l 1,17,-1
 68 341 l 1,18,-1
 68 273 l 1,19,-1
 0 273 l 1,16,-1
546 273 m 1,20,-1
 546 341 l 1,21,-1
 614 341 l 1,22,-1
 614 273 l 1,23,-1
 546 273 l 1,20,-1
0 409 m 1,24,-1
 0 477 l 1,25,-1
 68 477 l 1,26,-1
 68 409 l 1,27,-1
 0 409 l 1,24,-1
546 409 m 1,28,-1
 546 477 l 1,29,-1
 614 477 l 1,30,-1
 614 409 l 1,31,-1
 546 409 l 1,28,-1
0 546 m 1,32,-1
 0 614 l 1,33,-1
 68 614 l 1,34,-1
 68 546 l 1,35,-1
 0 546 l 1,32,-1
546 546 m 1,36,-1
 546 614 l 1,37,-1
 614 614 l 1,38,-1
 614 546 l 1,39,-1
 546 546 l 1,36,-1
0 682 m 1,40,-1
 0 750 l 1,41,-1
 68 750 l 1,42,-1
 68 682 l 1,43,-1
 0 682 l 1,40,-1
136 682 m 1,44,-1
 136 750 l 1,45,-1
 204 750 l 1,46,-1
 204 682 l 1,47,-1
 136 682 l 1,44,-1
546 682 m 1,48,-1
 546 750 l 1,49,-1
 614 750 l 1,50,-1
 614 682 l 1,51,-1
 546 682 l 1,48,-1
0 819 m 1,52,-1
 0 887 l 1,53,-1
 68 887 l 1,54,-1
 68 819 l 1,55,-1
 0 819 l 1,52,-1
273 819 m 1,56,-1
 273 887 l 1,57,-1
 341 887 l 1,58,-1
 341 819 l 1,59,-1
 273 819 l 1,56,-1
409 819 m 1,60,-1
 409 887 l 1,61,-1
 477 887 l 1,62,-1
 477 819 l 1,63,-1
 409 819 l 1,60,-1
0 955 m 1,64,-1
 0 1024 l 1,65,-1
 68 1024 l 1,66,-1
 68 955 l 1,67,-1
 0 955 l 1,64,-1
0 1092 m 1,68,-1
 0 1160 l 1,69,-1
 68 1160 l 1,70,-1
 68 1092 l 1,71,-1
 0 1092 l 1,68,-1
EndSplineSet
Validated: 1
EndChar

StartChar: i
Encoding: 105 105 74
Width: 273
Flags: W
LayerCount: 2
Fore
SplineSet
0 0 m 1,0,-1
 0 68 l 1,1,-1
 68 68 l 1,2,-1
 68 0 l 1,3,-1
 0 0 l 1,0,-1
0 136 m 1,4,-1
 0 204 l 1,5,-1
 68 204 l 1,6,-1
 68 136 l 1,7,-1
 0 136 l 1,4,-1
0 273 m 1,8,-1
 0 341 l 1,9,-1
 68 341 l 1,10,-1
 68 273 l 1,11,-1
 0 273 l 1,8,-1
0 409 m 1,12,-1
 0 477 l 1,13,-1
 68 477 l 1,14,-1
 68 409 l 1,15,-1
 0 409 l 1,12,-1
0 546 m 1,16,-1
 0 614 l 1,17,-1
 68 614 l 1,18,-1
 68 546 l 1,19,-1
 0 546 l 1,16,-1
0 682 m 1,20,-1
 0 750 l 1,21,-1
 68 750 l 1,22,-1
 68 682 l 1,23,-1
 0 682 l 1,20,-1
0 819 m 1,24,-1
 0 887 l 1,25,-1
 68 887 l 1,26,-1
 68 819 l 1,27,-1
 0 819 l 1,24,-1
0 1092 m 1,28,-1
 0 1160 l 1,29,-1
 68 1160 l 1,30,-1
 68 1092 l 1,31,-1
 0 1092 l 1,28,-1
EndSplineSet
Validated: 1
EndChar

StartChar: j
Encoding: 106 106 75
Width: 273
Flags: W
LayerCount: 2
Fore
SplineSet
-136 -273 m 1,0,-1
 -136 -204 l 1,1,-1
 -68 -204 l 1,2,-1
 -68 -273 l 1,3,-1
 -136 -273 l 1,0,-1
0 -136 m 1,4,-1
 0 -68 l 1,5,-1
 68 -68 l 1,6,-1
 68 -136 l 1,7,-1
 0 -136 l 1,4,-1
0 0 m 1,8,-1
 0 68 l 1,9,-1
 68 68 l 1,10,-1
 68 0 l 1,11,-1
 0 0 l 1,8,-1
0 136 m 1,12,-1
 0 204 l 1,13,-1
 68 204 l 1,14,-1
 68 136 l 1,15,-1
 0 136 l 1,12,-1
0 273 m 1,16,-1
 0 341 l 1,17,-1
 68 341 l 1,18,-1
 68 273 l 1,19,-1
 0 273 l 1,16,-1
0 409 m 1,20,-1
 0 477 l 1,21,-1
 68 477 l 1,22,-1
 68 409 l 1,23,-1
 0 409 l 1,20,-1
0 546 m 1,24,-1
 0 614 l 1,25,-1
 68 614 l 1,26,-1
 68 546 l 1,27,-1
 0 546 l 1,24,-1
0 682 m 1,28,-1
 0 750 l 1,29,-1
 68 750 l 1,30,-1
 68 682 l 1,31,-1
 0 682 l 1,28,-1
0 819 m 1,32,-1
 0 887 l 1,33,-1
 68 887 l 1,34,-1
 68 819 l 1,35,-1
 0 819 l 1,32,-1
0 1092 m 1,36,-1
 0 1160 l 1,37,-1
 68 1160 l 1,38,-1
 68 1092 l 1,39,-1
 0 1092 l 1,36,-1
EndSplineSet
Validated: 1
EndChar

StartChar: k
Encoding: 107 107 76
Width: 819
Flags: W
LayerCount: 2
Fore
SplineSet
0 0 m 1,0,-1
 0 68 l 1,1,-1
 68 68 l 1,2,-1
 68 0 l 1,3,-1
 0 0 l 1,0,-1
546 0 m 1,4,-1
 546 68 l 1,5,-1
 614 68 l 1,6,-1
 614 0 l 1,7,-1
 546 0 l 1,4,-1
0 136 m 1,8,-1
 0 204 l 1,9,-1
 68 204 l 1,10,-1
 68 136 l 1,11,-1
 0 136 l 1,8,-1
409 136 m 1,12,-1
 409 204 l 1,13,-1
 477 204 l 1,14,-1
 477 136 l 1,15,-1
 409 136 l 1,12,-1
0 273 m 1,16,-1
 0 341 l 1,17,-1
 68 341 l 1,18,-1
 68 273 l 1,19,-1
 0 273 l 1,16,-1
273 273 m 1,20,-1
 273 341 l 1,21,-1
 341 341 l 1,22,-1
 341 273 l 1,23,-1
 273 273 l 1,20,-1
0 409 m 1,24,-1
 0 477 l 1,25,-1
 68 477 l 1,26,-1
 68 409 l 1,27,-1
 0 409 l 1,24,-1
136 409 m 1,28,-1
 136 477 l 1,29,-1
 204 477 l 1,30,-1
 204 409 l 1,31,-1
 136 409 l 1,28,-1
0 546 m 1,32,-1
 0 614 l 1,33,-1
 68 614 l 1,34,-1
 68 546 l 1,35,-1
 0 546 l 1,32,-1
273 546 m 1,36,-1
 273 614 l 1,37,-1
 341 614 l 1,38,-1
 341 546 l 1,39,-1
 273 546 l 1,36,-1
0 682 m 1,40,-1
 0 750 l 1,41,-1
 68 750 l 1,42,-1
 68 682 l 1,43,-1
 0 682 l 1,40,-1
409 682 m 1,44,-1
 409 750 l 1,45,-1
 477 750 l 1,46,-1
 477 682 l 1,47,-1
 409 682 l 1,44,-1
0 819 m 1,48,-1
 0 887 l 1,49,-1
 68 887 l 1,50,-1
 68 819 l 1,51,-1
 0 819 l 1,48,-1
546 819 m 1,52,-1
 546 887 l 1,53,-1
 614 887 l 1,54,-1
 614 819 l 1,55,-1
 546 819 l 1,52,-1
0 955 m 1,56,-1
 0 1024 l 1,57,-1
 68 1024 l 1,58,-1
 68 955 l 1,59,-1
 0 955 l 1,56,-1
0 1092 m 1,60,-1
 0 1160 l 1,61,-1
 68 1160 l 1,62,-1
 68 1092 l 1,63,-1
 0 1092 l 1,60,-1
EndSplineSet
Validated: 1
EndChar

StartChar: l
Encoding: 108 108 77
Width: 409
Flags: W
LayerCount: 2
Fore
SplineSet
136 0 m 1,0,-1
 136 68 l 1,1,-1
 204 68 l 1,2,-1
 204 0 l 1,3,-1
 136 0 l 1,0,-1
0 136 m 1,4,-1
 0 204 l 1,5,-1
 68 204 l 1,6,-1
 68 136 l 1,7,-1
 0 136 l 1,4,-1
0 273 m 1,8,-1
 0 341 l 1,9,-1
 68 341 l 1,10,-1
 68 273 l 1,11,-1
 0 273 l 1,8,-1
0 409 m 1,12,-1
 0 477 l 1,13,-1
 68 477 l 1,14,-1
 68 409 l 1,15,-1
 0 409 l 1,12,-1
0 546 m 1,16,-1
 0 614 l 1,17,-1
 68 614 l 1,18,-1
 68 546 l 1,19,-1
 0 546 l 1,16,-1
0 682 m 1,20,-1
 0 750 l 1,21,-1
 68 750 l 1,22,-1
 68 682 l 1,23,-1
 0 682 l 1,20,-1
0 819 m 1,24,-1
 0 887 l 1,25,-1
 68 887 l 1,26,-1
 68 819 l 1,27,-1
 0 819 l 1,24,-1
0 955 m 1,28,-1
 0 1024 l 1,29,-1
 68 1024 l 1,30,-1
 68 955 l 1,31,-1
 0 955 l 1,28,-1
0 1092 m 1,32,-1
 0 1160 l 1,33,-1
 68 1160 l 1,34,-1
 68 1092 l 1,35,-1
 0 1092 l 1,32,-1
EndSplineSet
Validated: 1
EndChar

StartChar: m
Encoding: 109 109 78
Width: 1365
Flags: W
LayerCount: 2
Fore
SplineSet
0 0 m 1,0,-1
 0 68 l 1,1,-1
 68 68 l 1,2,-1
 68 0 l 1,3,-1
 0 0 l 1,0,-1
546 0 m 1,4,-1
 546 68 l 1,5,-1
 614 68 l 1,6,-1
 614 0 l 1,7,-1
 546 0 l 1,4,-1
1092 0 m 1,8,-1
 1092 68 l 1,9,-1
 1160 68 l 1,10,-1
 1160 0 l 1,11,-1
 1092 0 l 1,8,-1
0 136 m 1,12,-1
 0 204 l 1,13,-1
 68 204 l 1,14,-1
 68 136 l 1,15,-1
 0 136 l 1,12,-1
546 136 m 1,16,-1
 546 204 l 1,17,-1
 614 204 l 1,18,-1
 614 136 l 1,19,-1
 546 136 l 1,16,-1
1092 136 m 1,20,-1
 1092 204 l 1,21,-1
 1160 204 l 1,22,-1
 1160 136 l 1,23,-1
 1092 136 l 1,20,-1
0 273 m 1,24,-1
 0 341 l 1,25,-1
 68 341 l 1,26,-1
 68 273 l 1,27,-1
 0 273 l 1,24,-1
546 273 m 1,28,-1
 546 341 l 1,29,-1
 614 341 l 1,30,-1
 614 273 l 1,31,-1
 546 273 l 1,28,-1
1092 273 m 1,32,-1
 1092 341 l 1,33,-1
 1160 341 l 1,34,-1
 1160 273 l 1,35,-1
 1092 273 l 1,32,-1
0 409 m 1,36,-1
 0 477 l 1,37,-1
 68 477 l 1,38,-1
 68 409 l 1,39,-1
 0 409 l 1,36,-1
546 409 m 1,40,-1
 546 477 l 1,41,-1
 614 477 l 1,42,-1
 614 409 l 1,43,-1
 546 409 l 1,40,-1
1092 409 m 1,44,-1
 1092 477 l 1,45,-1
 1160 477 l 1,46,-1
 1160 409 l 1,47,-1
 1092 409 l 1,44,-1
0 546 m 1,48,-1
 0 614 l 1,49,-1
 68 614 l 1,50,-1
 68 546 l 1,51,-1
 0 546 l 1,48,-1
546 546 m 1,52,-1
 546 614 l 1,53,-1
 614 614 l 1,54,-1
 614 546 l 1,55,-1
 546 546 l 1,52,-1
1092 546 m 1,56,-1
 1092 614 l 1,57,-1
 1160 614 l 1,58,-1
 1160 546 l 1,59,-1
 1092 546 l 1,56,-1
0 682 m 1,60,-1
 0 750 l 1,61,-1
 68 750 l 1,62,-1
 68 682 l 1,63,-1
 0 682 l 1,60,-1
136 682 m 1,64,-1
 136 750 l 1,65,-1
 204 750 l 1,66,-1
 204 682 l 1,67,-1
 136 682 l 1,64,-1
546 682 m 1,68,-1
 546 750 l 1,69,-1
 614 750 l 1,70,-1
 614 682 l 1,71,-1
 546 682 l 1,68,-1
682 682 m 1,72,-1
 682 750 l 1,73,-1
 750 750 l 1,74,-1
 750 682 l 1,75,-1
 682 682 l 1,72,-1
1092 682 m 1,76,-1
 1092 750 l 1,77,-1
 1160 750 l 1,78,-1
 1160 682 l 1,79,-1
 1092 682 l 1,76,-1
0 819 m 1,80,-1
 0 887 l 1,81,-1
 68 887 l 1,82,-1
 68 819 l 1,83,-1
 0 819 l 1,80,-1
273 819 m 1,84,-1
 273 887 l 1,85,-1
 341 887 l 1,86,-1
 341 819 l 1,87,-1
 273 819 l 1,84,-1
409 819 m 1,88,-1
 409 887 l 1,89,-1
 477 887 l 1,90,-1
 477 819 l 1,91,-1
 409 819 l 1,88,-1
819 819 m 1,92,-1
 819 887 l 1,93,-1
 887 887 l 1,94,-1
 887 819 l 1,95,-1
 819 819 l 1,92,-1
955 819 m 1,96,-1
 955 887 l 1,97,-1
 1024 887 l 1,98,-1
 1024 819 l 1,99,-1
 955 819 l 1,96,-1
EndSplineSet
Validated: 1
EndChar

StartChar: n
Encoding: 110 110 79
Width: 819
Flags: W
LayerCount: 2
Fore
SplineSet
0 0 m 1,0,-1
 0 68 l 1,1,-1
 68 68 l 1,2,-1
 68 0 l 1,3,-1
 0 0 l 1,0,-1
546 0 m 1,4,-1
 546 68 l 1,5,-1
 614 68 l 1,6,-1
 614 0 l 1,7,-1
 546 0 l 1,4,-1
0 136 m 1,8,-1
 0 204 l 1,9,-1
 68 204 l 1,10,-1
 68 136 l 1,11,-1
 0 136 l 1,8,-1
546 136 m 1,12,-1
 546 204 l 1,13,-1
 614 204 l 1,14,-1
 614 136 l 1,15,-1
 546 136 l 1,12,-1
0 273 m 1,16,-1
 0 341 l 1,17,-1
 68 341 l 1,18,-1
 68 273 l 1,19,-1
 0 273 l 1,16,-1
546 273 m 1,20,-1
 546 341 l 1,21,-1
 614 341 l 1,22,-1
 614 273 l 1,23,-1
 546 273 l 1,20,-1
0 409 m 1,24,-1
 0 477 l 1,25,-1
 68 477 l 1,26,-1
 68 409 l 1,27,-1
 0 409 l 1,24,-1
546 409 m 1,28,-1
 546 477 l 1,29,-1
 614 477 l 1,30,-1
 614 409 l 1,31,-1
 546 409 l 1,28,-1
0 546 m 1,32,-1
 0 614 l 1,33,-1
 68 614 l 1,34,-1
 68 546 l 1,35,-1
 0 546 l 1,32,-1
546 546 m 1,36,-1
 546 614 l 1,37,-1
 614 614 l 1,38,-1
 614 546 l 1,39,-1
 546 546 l 1,36,-1
0 682 m 1,40,-1
 0 750 l 1,41,-1
 68 750 l 1,42,-1
 68 682 l 1,43,-1
 0 682 l 1,40,-1
136 682 m 1,44,-1
 136 750 l 1,45,-1
 204 750 l 1,46,-1
 204 682 l 1,47,-1
 136 682 l 1,44,-1
546 682 m 1,48,-1
 546 750 l 1,49,-1
 614 750 l 1,50,-1
 614 682 l 1,51,-1
 546 682 l 1,48,-1
0 819 m 1,52,-1
 0 887 l 1,53,-1
 68 887 l 1,54,-1
 68 819 l 1,55,-1
 0 819 l 1,52,-1
273 819 m 1,56,-1
 273 887 l 1,57,-1
 341 887 l 1,58,-1
 341 819 l 1,59,-1
 273 819 l 1,56,-1
409 819 m 1,60,-1
 409 887 l 1,61,-1
 477 887 l 1,62,-1
 477 819 l 1,63,-1
 409 819 l 1,60,-1
EndSplineSet
Validated: 1
EndChar

StartChar: o
Encoding: 111 111 80
Width: 819
Flags: W
LayerCount: 2
Fore
SplineSet
136 0 m 1,0,-1
 136 68 l 1,1,-1
 204 68 l 1,2,-1
 204 0 l 1,3,-1
 136 0 l 1,0,-1
273 0 m 1,4,-1
 273 68 l 1,5,-1
 341 68 l 1,6,-1
 341 0 l 1,7,-1
 273 0 l 1,4,-1
409 0 m 1,8,-1
 409 68 l 1,9,-1
 477 68 l 1,10,-1
 477 0 l 1,11,-1
 409 0 l 1,8,-1
0 136 m 1,12,-1
 0 204 l 1,13,-1
 68 204 l 1,14,-1
 68 136 l 1,15,-1
 0 136 l 1,12,-1
546 136 m 1,16,-1
 546 204 l 1,17,-1
 614 204 l 1,18,-1
 614 136 l 1,19,-1
 546 136 l 1,16,-1
0 273 m 1,20,-1
 0 341 l 1,21,-1
 68 341 l 1,22,-1
 68 273 l 1,23,-1
 0 273 l 1,20,-1
546 273 m 1,24,-1
 546 341 l 1,25,-1
 614 341 l 1,26,-1
 614 273 l 1,27,-1
 546 273 l 1,24,-1
0 409 m 1,28,-1
 0 477 l 1,29,-1
 68 477 l 1,30,-1
 68 409 l 1,31,-1
 0 409 l 1,28,-1
546 409 m 1,32,-1
 546 477 l 1,33,-1
 614 477 l 1,34,-1
 614 409 l 1,35,-1
 546 409 l 1,32,-1
0 546 m 1,36,-1
 0 614 l 1,37,-1
 68 614 l 1,38,-1
 68 546 l 1,39,-1
 0 546 l 1,36,-1
546 546 m 1,40,-1
 546 614 l 1,41,-1
 614 614 l 1,42,-1
 614 546 l 1,43,-1
 546 546 l 1,40,-1
0 682 m 1,44,-1
 0 750 l 1,45,-1
 68 750 l 1,46,-1
 68 682 l 1,47,-1
 0 682 l 1,44,-1
546 682 m 1,48,-1
 546 750 l 1,49,-1
 614 750 l 1,50,-1
 614 682 l 1,51,-1
 546 682 l 1,48,-1
136 819 m 1,52,-1
 136 887 l 1,53,-1
 204 887 l 1,54,-1
 204 819 l 1,55,-1
 136 819 l 1,52,-1
273 819 m 1,56,-1
 273 887 l 1,57,-1
 341 887 l 1,58,-1
 341 819 l 1,59,-1
 273 819 l 1,56,-1
409 819 m 1,60,-1
 409 887 l 1,61,-1
 477 887 l 1,62,-1
 477 819 l 1,63,-1
 409 819 l 1,60,-1
EndSplineSet
Validated: 1
EndChar

StartChar: p
Encoding: 112 112 81
Width: 819
Flags: W
LayerCount: 2
Fore
SplineSet
0 -273 m 1,0,-1
 0 -204 l 1,1,-1
 68 -204 l 1,2,-1
 68 -273 l 1,3,-1
 0 -273 l 1,0,-1
0 -136 m 1,4,-1
 0 -68 l 1,5,-1
 68 -68 l 1,6,-1
 68 -136 l 1,7,-1
 0 -136 l 1,4,-1
0 0 m 1,8,-1
 0 68 l 1,9,-1
 68 68 l 1,10,-1
 68 0 l 1,11,-1
 0 0 l 1,8,-1
273 0 m 1,12,-1
 273 68 l 1,13,-1
 341 68 l 1,14,-1
 341 0 l 1,15,-1
 273 0 l 1,12,-1
409 0 m 1,16,-1
 409 68 l 1,17,-1
 477 68 l 1,18,-1
 477 0 l 1,19,-1
 409 0 l 1,16,-1
0 136 m 1,20,-1
 0 204 l 1,21,-1
 68 204 l 1,22,-1
 68 136 l 1,23,-1
 0 136 l 1,20,-1
136 136 m 1,24,-1
 136 204 l 1,25,-1
 204 204 l 1,26,-1
 204 136 l 1,27,-1
 136 136 l 1,24,-1
546 136 m 1,28,-1
 546 204 l 1,29,-1
 614 204 l 1,30,-1
 614 136 l 1,31,-1
 546 136 l 1,28,-1
0 273 m 1,32,-1
 0 341 l 1,33,-1
 68 341 l 1,34,-1
 68 273 l 1,35,-1
 0 273 l 1,32,-1
546 273 m 1,36,-1
 546 341 l 1,37,-1
 614 341 l 1,38,-1
 614 273 l 1,39,-1
 546 273 l 1,36,-1
0 409 m 1,40,-1
 0 477 l 1,41,-1
 68 477 l 1,42,-1
 68 409 l 1,43,-1
 0 409 l 1,40,-1
546 409 m 1,44,-1
 546 477 l 1,45,-1
 614 477 l 1,46,-1
 614 409 l 1,47,-1
 546 409 l 1,44,-1
0 546 m 1,48,-1
 0 614 l 1,49,-1
 68 614 l 1,50,-1
 68 546 l 1,51,-1
 0 546 l 1,48,-1
546 546 m 1,52,-1
 546 614 l 1,53,-1
 614 614 l 1,54,-1
 614 546 l 1,55,-1
 546 546 l 1,52,-1
0 682 m 1,56,-1
 0 750 l 1,57,-1
 68 750 l 1,58,-1
 68 682 l 1,59,-1
 0 682 l 1,56,-1
136 682 m 1,60,-1
 136 750 l 1,61,-1
 204 750 l 1,62,-1
 204 682 l 1,63,-1
 136 682 l 1,60,-1
546 682 m 1,64,-1
 546 750 l 1,65,-1
 614 750 l 1,66,-1
 614 682 l 1,67,-1
 546 682 l 1,64,-1
0 819 m 1,68,-1
 0 887 l 1,69,-1
 68 887 l 1,70,-1
 68 819 l 1,71,-1
 0 819 l 1,68,-1
273 819 m 1,72,-1
 273 887 l 1,73,-1
 341 887 l 1,74,-1
 341 819 l 1,75,-1
 273 819 l 1,72,-1
409 819 m 1,76,-1
 409 887 l 1,77,-1
 477 887 l 1,78,-1
 477 819 l 1,79,-1
 409 819 l 1,76,-1
EndSplineSet
Validated: 1
EndChar

StartChar: q
Encoding: 113 113 82
Width: 819
Flags: W
LayerCount: 2
Fore
SplineSet
546 -273 m 1,0,-1
 546 -204 l 1,1,-1
 614 -204 l 1,2,-1
 614 -273 l 1,3,-1
 546 -273 l 1,0,-1
546 -136 m 1,4,-1
 546 -68 l 1,5,-1
 614 -68 l 1,6,-1
 614 -136 l 1,7,-1
 546 -136 l 1,4,-1
136 0 m 1,8,-1
 136 68 l 1,9,-1
 204 68 l 1,10,-1
 204 0 l 1,11,-1
 136 0 l 1,8,-1
273 0 m 1,12,-1
 273 68 l 1,13,-1
 341 68 l 1,14,-1
 341 0 l 1,15,-1
 273 0 l 1,12,-1
546 0 m 1,16,-1
 546 68 l 1,17,-1
 614 68 l 1,18,-1
 614 0 l 1,19,-1
 546 0 l 1,16,-1
0 136 m 1,20,-1
 0 204 l 1,21,-1
 68 204 l 1,22,-1
 68 136 l 1,23,-1
 0 136 l 1,20,-1
409 136 m 1,24,-1
 409 204 l 1,25,-1
 477 204 l 1,26,-1
 477 136 l 1,27,-1
 409 136 l 1,24,-1
546 136 m 1,28,-1
 546 204 l 1,29,-1
 614 204 l 1,30,-1
 614 136 l 1,31,-1
 546 136 l 1,28,-1
0 273 m 1,32,-1
 0 341 l 1,33,-1
 68 341 l 1,34,-1
 68 273 l 1,35,-1
 0 273 l 1,32,-1
546 273 m 1,36,-1
 546 341 l 1,37,-1
 614 341 l 1,38,-1
 614 273 l 1,39,-1
 546 273 l 1,36,-1
0 409 m 1,40,-1
 0 477 l 1,41,-1
 68 477 l 1,42,-1
 68 409 l 1,43,-1
 0 409 l 1,40,-1
546 409 m 1,44,-1
 546 477 l 1,45,-1
 614 477 l 1,46,-1
 614 409 l 1,47,-1
 546 409 l 1,44,-1
0 546 m 1,48,-1
 0 614 l 1,49,-1
 68 614 l 1,50,-1
 68 546 l 1,51,-1
 0 546 l 1,48,-1
546 546 m 1,52,-1
 546 614 l 1,53,-1
 614 614 l 1,54,-1
 614 546 l 1,55,-1
 546 546 l 1,52,-1
0 682 m 1,56,-1
 0 750 l 1,57,-1
 68 750 l 1,58,-1
 68 682 l 1,59,-1
 0 682 l 1,56,-1
409 682 m 1,60,-1
 409 750 l 1,61,-1
 477 750 l 1,62,-1
 477 682 l 1,63,-1
 409 682 l 1,60,-1
546 682 m 1,64,-1
 546 750 l 1,65,-1
 614 750 l 1,66,-1
 614 682 l 1,67,-1
 546 682 l 1,64,-1
136 819 m 1,68,-1
 136 887 l 1,69,-1
 204 887 l 1,70,-1
 204 819 l 1,71,-1
 136 819 l 1,68,-1
273 819 m 1,72,-1
 273 887 l 1,73,-1
 341 887 l 1,74,-1
 341 819 l 1,75,-1
 273 819 l 1,72,-1
546 819 m 1,76,-1
 546 887 l 1,77,-1
 614 887 l 1,78,-1
 614 819 l 1,79,-1
 546 819 l 1,76,-1
EndSplineSet
Validated: 1
EndChar

StartChar: r
Encoding: 114 114 83
Width: 819
Flags: W
LayerCount: 2
Fore
SplineSet
0 0 m 1,0,-1
 0 68 l 1,1,-1
 68 68 l 1,2,-1
 68 0 l 1,3,-1
 0 0 l 1,0,-1
0 136 m 1,4,-1
 0 204 l 1,5,-1
 68 204 l 1,6,-1
 68 136 l 1,7,-1
 0 136 l 1,4,-1
0 273 m 1,8,-1
 0 341 l 1,9,-1
 68 341 l 1,10,-1
 68 273 l 1,11,-1
 0 273 l 1,8,-1
0 409 m 1,12,-1
 0 477 l 1,13,-1
 68 477 l 1,14,-1
 68 409 l 1,15,-1
 0 409 l 1,12,-1
409 409 m 1,16,-1
 409 477 l 1,17,-1
 477 477 l 1,18,-1
 477 409 l 1,19,-1
 409 409 l 1,16,-1
0 546 m 1,20,-1
 0 614 l 1,21,-1
 68 614 l 1,22,-1
 68 546 l 1,23,-1
 0 546 l 1,20,-1
546 546 m 1,24,-1
 546 614 l 1,25,-1
 614 614 l 1,26,-1
 614 546 l 1,27,-1
 546 546 l 1,24,-1
0 682 m 1,28,-1
 0 750 l 1,29,-1
 68 750 l 1,30,-1
 68 682 l 1,31,-1
 0 682 l 1,28,-1
136 682 m 1,32,-1
 136 750 l 1,33,-1
 204 750 l 1,34,-1
 204 682 l 1,35,-1
 136 682 l 1,32,-1
546 682 m 1,36,-1
 546 750 l 1,37,-1
 614 750 l 1,38,-1
 614 682 l 1,39,-1
 546 682 l 1,36,-1
0 819 m 1,40,-1
 0 887 l 1,41,-1
 68 887 l 1,42,-1
 68 819 l 1,43,-1
 0 819 l 1,40,-1
273 819 m 1,44,-1
 273 887 l 1,45,-1
 341 887 l 1,46,-1
 341 819 l 1,47,-1
 273 819 l 1,44,-1
409 819 m 1,48,-1
 409 887 l 1,49,-1
 477 887 l 1,50,-1
 477 819 l 1,51,-1
 409 819 l 1,48,-1
EndSplineSet
Validated: 1
EndChar

StartChar: s
Encoding: 115 115 84
Width: 819
Flags: W
LayerCount: 2
Fore
SplineSet
136 0 m 1,0,-1
 136 68 l 1,1,-1
 204 68 l 1,2,-1
 204 0 l 1,3,-1
 136 0 l 1,0,-1
273 0 m 1,4,-1
 273 68 l 1,5,-1
 341 68 l 1,6,-1
 341 0 l 1,7,-1
 273 0 l 1,4,-1
409 0 m 1,8,-1
 409 68 l 1,9,-1
 477 68 l 1,10,-1
 477 0 l 1,11,-1
 409 0 l 1,8,-1
0 136 m 1,12,-1
 0 204 l 1,13,-1
 68 204 l 1,14,-1
 68 136 l 1,15,-1
 0 136 l 1,12,-1
546 136 m 1,16,-1
 546 204 l 1,17,-1
 614 204 l 1,18,-1
 614 136 l 1,19,-1
 546 136 l 1,16,-1
546 273 m 1,20,-1
 546 341 l 1,21,-1
 614 341 l 1,22,-1
 614 273 l 1,23,-1
 546 273 l 1,20,-1
273 409 m 1,24,-1
 273 477 l 1,25,-1
 341 477 l 1,26,-1
 341 409 l 1,27,-1
 273 409 l 1,24,-1
409 409 m 1,28,-1
 409 477 l 1,29,-1
 477 477 l 1,30,-1
 477 409 l 1,31,-1
 409 409 l 1,28,-1
136 546 m 1,32,-1
 136 614 l 1,33,-1
 204 614 l 1,34,-1
 204 546 l 1,35,-1
 136 546 l 1,32,-1
0 682 m 1,36,-1
 0 750 l 1,37,-1
 68 750 l 1,38,-1
 68 682 l 1,39,-1
 0 682 l 1,36,-1
546 682 m 1,40,-1
 546 750 l 1,41,-1
 614 750 l 1,42,-1
 614 682 l 1,43,-1
 546 682 l 1,40,-1
136 819 m 1,44,-1
 136 887 l 1,45,-1
 204 887 l 1,46,-1
 204 819 l 1,47,-1
 136 819 l 1,44,-1
273 819 m 1,48,-1
 273 887 l 1,49,-1
 341 887 l 1,50,-1
 341 819 l 1,51,-1
 273 819 l 1,48,-1
409 819 m 1,52,-1
 409 887 l 1,53,-1
 477 887 l 1,54,-1
 477 819 l 1,55,-1
 409 819 l 1,52,-1
EndSplineSet
Validated: 1
EndChar

StartChar: t
Encoding: 116 116 85
Width: 819
Flags: W
LayerCount: 2
Fore
SplineSet
273 0 m 1,0,-1
 273 68 l 1,1,-1
 341 68 l 1,2,-1
 341 0 l 1,3,-1
 273 0 l 1,0,-1
409 0 m 1,4,-1
 409 68 l 1,5,-1
 477 68 l 1,6,-1
 477 0 l 1,7,-1
 409 0 l 1,4,-1
136 136 m 1,8,-1
 136 204 l 1,9,-1
 204 204 l 1,10,-1
 204 136 l 1,11,-1
 136 136 l 1,8,-1
546 136 m 1,12,-1
 546 204 l 1,13,-1
 614 204 l 1,14,-1
 614 136 l 1,15,-1
 546 136 l 1,12,-1
136 273 m 1,16,-1
 136 341 l 1,17,-1
 204 341 l 1,18,-1
 204 273 l 1,19,-1
 136 273 l 1,16,-1
136 409 m 1,20,-1
 136 477 l 1,21,-1
 204 477 l 1,22,-1
 204 409 l 1,23,-1
 136 409 l 1,20,-1
136 546 m 1,24,-1
 136 614 l 1,25,-1
 204 614 l 1,26,-1
 204 546 l 1,27,-1
 136 546 l 1,24,-1
136 682 m 1,28,-1
 136 750 l 1,29,-1
 204 750 l 1,30,-1
 204 682 l 1,31,-1
 136 682 l 1,28,-1
0 819 m 1,32,-1
 0 887 l 1,33,-1
 68 887 l 1,34,-1
 68 819 l 1,35,-1
 0 819 l 1,32,-1
136 819 m 1,36,-1
 136 887 l 1,37,-1
 204 887 l 1,38,-1
 204 819 l 1,39,-1
 136 819 l 1,36,-1
273 819 m 1,40,-1
 273 887 l 1,41,-1
 341 887 l 1,42,-1
 341 819 l 1,43,-1
 273 819 l 1,40,-1
409 819 m 1,44,-1
 409 887 l 1,45,-1
 477 887 l 1,46,-1
 477 819 l 1,47,-1
 409 819 l 1,44,-1
546 819 m 1,48,-1
 546 887 l 1,49,-1
 614 887 l 1,50,-1
 614 819 l 1,51,-1
 546 819 l 1,48,-1
136 955 m 1,52,-1
 136 1024 l 1,53,-1
 204 1024 l 1,54,-1
 204 955 l 1,55,-1
 136 955 l 1,52,-1
136 1092 m 1,56,-1
 136 1160 l 1,57,-1
 204 1160 l 1,58,-1
 204 1092 l 1,59,-1
 136 1092 l 1,56,-1
EndSplineSet
Validated: 1
EndChar

StartChar: u
Encoding: 117 117 86
Width: 819
Flags: W
LayerCount: 2
Fore
SplineSet
136 0 m 1,0,-1
 136 68 l 1,1,-1
 204 68 l 1,2,-1
 204 0 l 1,3,-1
 136 0 l 1,0,-1
273 0 m 1,4,-1
 273 68 l 1,5,-1
 341 68 l 1,6,-1
 341 0 l 1,7,-1
 273 0 l 1,4,-1
546 0 m 1,8,-1
 546 68 l 1,9,-1
 614 68 l 1,10,-1
 614 0 l 1,11,-1
 546 0 l 1,8,-1
0 136 m 1,12,-1
 0 204 l 1,13,-1
 68 204 l 1,14,-1
 68 136 l 1,15,-1
 0 136 l 1,12,-1
409 136 m 1,16,-1
 409 204 l 1,17,-1
 477 204 l 1,18,-1
 477 136 l 1,19,-1
 409 136 l 1,16,-1
546 136 m 1,20,-1
 546 204 l 1,21,-1
 614 204 l 1,22,-1
 614 136 l 1,23,-1
 546 136 l 1,20,-1
0 273 m 1,24,-1
 0 341 l 1,25,-1
 68 341 l 1,26,-1
 68 273 l 1,27,-1
 0 273 l 1,24,-1
546 273 m 1,28,-1
 546 341 l 1,29,-1
 614 341 l 1,30,-1
 614 273 l 1,31,-1
 546 273 l 1,28,-1
0 409 m 1,32,-1
 0 477 l 1,33,-1
 68 477 l 1,34,-1
 68 409 l 1,35,-1
 0 409 l 1,32,-1
546 409 m 1,36,-1
 546 477 l 1,37,-1
 614 477 l 1,38,-1
 614 409 l 1,39,-1
 546 409 l 1,36,-1
0 546 m 1,40,-1
 0 614 l 1,41,-1
 68 614 l 1,42,-1
 68 546 l 1,43,-1
 0 546 l 1,40,-1
546 546 m 1,44,-1
 546 614 l 1,45,-1
 614 614 l 1,46,-1
 614 546 l 1,47,-1
 546 546 l 1,44,-1
0 682 m 1,48,-1
 0 750 l 1,49,-1
 68 750 l 1,50,-1
 68 682 l 1,51,-1
 0 682 l 1,48,-1
546 682 m 1,52,-1
 546 750 l 1,53,-1
 614 750 l 1,54,-1
 614 682 l 1,55,-1
 546 682 l 1,52,-1
0 819 m 1,56,-1
 0 887 l 1,57,-1
 68 887 l 1,58,-1
 68 819 l 1,59,-1
 0 819 l 1,56,-1
546 819 m 1,60,-1
 546 887 l 1,61,-1
 614 887 l 1,62,-1
 614 819 l 1,63,-1
 546 819 l 1,60,-1
EndSplineSet
Validated: 1
EndChar

StartChar: v
Encoding: 118 118 87
Width: 819
Flags: W
LayerCount: 2
Fore
SplineSet
273 0 m 1,0,-1
 273 68 l 1,1,-1
 341 68 l 1,2,-1
 341 0 l 1,3,-1
 273 0 l 1,0,-1
136 136 m 1,4,-1
 136 204 l 1,5,-1
 204 204 l 1,6,-1
 204 136 l 1,7,-1
 136 136 l 1,4,-1
409 136 m 1,8,-1
 409 204 l 1,9,-1
 477 204 l 1,10,-1
 477 136 l 1,11,-1
 409 136 l 1,8,-1
136 273 m 1,12,-1
 136 341 l 1,13,-1
 204 341 l 1,14,-1
 204 273 l 1,15,-1
 136 273 l 1,12,-1
409 273 m 1,16,-1
 409 341 l 1,17,-1
 477 341 l 1,18,-1
 477 273 l 1,19,-1
 409 273 l 1,16,-1
0 409 m 1,20,-1
 0 477 l 1,21,-1
 68 477 l 1,22,-1
 68 409 l 1,23,-1
 0 409 l 1,20,-1
546 409 m 1,24,-1
 546 477 l 1,25,-1
 614 477 l 1,26,-1
 614 409 l 1,27,-1
 546 409 l 1,24,-1
0 546 m 1,28,-1
 0 614 l 1,29,-1
 68 614 l 1,30,-1
 68 546 l 1,31,-1
 0 546 l 1,28,-1
546 546 m 1,32,-1
 546 614 l 1,33,-1
 614 614 l 1,34,-1
 614 546 l 1,35,-1
 546 546 l 1,32,-1
0 682 m 1,36,-1
 0 750 l 1,37,-1
 68 750 l 1,38,-1
 68 682 l 1,39,-1
 0 682 l 1,36,-1
546 682 m 1,40,-1
 546 750 l 1,41,-1
 614 750 l 1,42,-1
 614 682 l 1,43,-1
 546 682 l 1,40,-1
0 819 m 1,44,-1
 0 887 l 1,45,-1
 68 887 l 1,46,-1
 68 819 l 1,47,-1
 0 819 l 1,44,-1
546 819 m 1,48,-1
 546 887 l 1,49,-1
 614 887 l 1,50,-1
 614 819 l 1,51,-1
 546 819 l 1,48,-1
EndSplineSet
Validated: 1
EndChar

StartChar: w
Encoding: 119 119 88
Width: 1365
Flags: W
LayerCount: 2
Fore
SplineSet
273 0 m 1,0,-1
 273 68 l 1,1,-1
 341 68 l 1,2,-1
 341 0 l 1,3,-1
 273 0 l 1,0,-1
819 0 m 1,4,-1
 819 68 l 1,5,-1
 887 68 l 1,6,-1
 887 0 l 1,7,-1
 819 0 l 1,4,-1
136 136 m 1,8,-1
 136 204 l 1,9,-1
 204 204 l 1,10,-1
 204 136 l 1,11,-1
 136 136 l 1,8,-1
409 136 m 1,12,-1
 409 204 l 1,13,-1
 477 204 l 1,14,-1
 477 136 l 1,15,-1
 409 136 l 1,12,-1
682 136 m 1,16,-1
 682 204 l 1,17,-1
 750 204 l 1,18,-1
 750 136 l 1,19,-1
 682 136 l 1,16,-1
955 136 m 1,20,-1
 955 204 l 1,21,-1
 1024 204 l 1,22,-1
 1024 136 l 1,23,-1
 955 136 l 1,20,-1
0 273 m 1,24,-1
 0 341 l 1,25,-1
 68 341 l 1,26,-1
 68 273 l 1,27,-1
 0 273 l 1,24,-1
546 273 m 1,28,-1
 546 341 l 1,29,-1
 614 341 l 1,30,-1
 614 273 l 1,31,-1
 546 273 l 1,28,-1
1092 273 m 1,32,-1
 1092 341 l 1,33,-1
 1160 341 l 1,34,-1
 1160 273 l 1,35,-1
 1092 273 l 1,32,-1
0 409 m 1,36,-1
 0 477 l 1,37,-1
 68 477 l 1,38,-1
 68 409 l 1,39,-1
 0 409 l 1,36,-1
546 409 m 1,40,-1
 546 477 l 1,41,-1
 614 477 l 1,42,-1
 614 409 l 1,43,-1
 546 409 l 1,40,-1
1092 409 m 1,44,-1
 1092 477 l 1,45,-1
 1160 477 l 1,46,-1
 1160 409 l 1,47,-1
 1092 409 l 1,44,-1
0 546 m 1,48,-1
 0 614 l 1,49,-1
 68 614 l 1,50,-1
 68 546 l 1,51,-1
 0 546 l 1,48,-1
546 546 m 1,52,-1
 546 614 l 1,53,-1
 614 614 l 1,54,-1
 614 546 l 1,55,-1
 546 546 l 1,52,-1
1092 546 m 1,56,-1
 1092 614 l 1,57,-1
 1160 614 l 1,58,-1
 1160 546 l 1,59,-1
 1092 546 l 1,56,-1
0 682 m 1,60,-1
 0 750 l 1,61,-1
 68 750 l 1,62,-1
 68 682 l 1,63,-1
 0 682 l 1,60,-1
546 682 m 1,64,-1
 546 750 l 1,65,-1
 614 750 l 1,66,-1
 614 682 l 1,67,-1
 546 682 l 1,64,-1
1092 682 m 1,68,-1
 1092 750 l 1,69,-1
 1160 750 l 1,70,-1
 1160 682 l 1,71,-1
 1092 682 l 1,68,-1
0 819 m 1,72,-1
 0 887 l 1,73,-1
 68 887 l 1,74,-1
 68 819 l 1,75,-1
 0 819 l 1,72,-1
546 819 m 1,76,-1
 546 887 l 1,77,-1
 614 887 l 1,78,-1
 614 819 l 1,79,-1
 546 819 l 1,76,-1
1092 819 m 1,80,-1
 1092 887 l 1,81,-1
 1160 887 l 1,82,-1
 1160 819 l 1,83,-1
 1092 819 l 1,80,-1
EndSplineSet
Validated: 1
EndChar

StartChar: x
Encoding: 120 120 89
Width: 819
Flags: W
LayerCount: 2
Fore
SplineSet
0 0 m 1,0,-1
 0 68 l 1,1,-1
 68 68 l 1,2,-1
 68 0 l 1,3,-1
 0 0 l 1,0,-1
546 0 m 1,4,-1
 546 68 l 1,5,-1
 614 68 l 1,6,-1
 614 0 l 1,7,-1
 546 0 l 1,4,-1
0 136 m 1,8,-1
 0 204 l 1,9,-1
 68 204 l 1,10,-1
 68 136 l 1,11,-1
 0 136 l 1,8,-1
546 136 m 1,12,-1
 546 204 l 1,13,-1
 614 204 l 1,14,-1
 614 136 l 1,15,-1
 546 136 l 1,12,-1
136 273 m 1,16,-1
 136 341 l 1,17,-1
 204 341 l 1,18,-1
 204 273 l 1,19,-1
 136 273 l 1,16,-1
409 273 m 1,20,-1
 409 341 l 1,21,-1
 477 341 l 1,22,-1
 477 273 l 1,23,-1
 409 273 l 1,20,-1
273 409 m 1,24,-1
 273 477 l 1,25,-1
 341 477 l 1,26,-1
 341 409 l 1,27,-1
 273 409 l 1,24,-1
136 546 m 1,28,-1
 136 614 l 1,29,-1
 204 614 l 1,30,-1
 204 546 l 1,31,-1
 136 546 l 1,28,-1
409 546 m 1,32,-1
 409 614 l 1,33,-1
 477 614 l 1,34,-1
 477 546 l 1,35,-1
 409 546 l 1,32,-1
0 682 m 1,36,-1
 0 750 l 1,37,-1
 68 750 l 1,38,-1
 68 682 l 1,39,-1
 0 682 l 1,36,-1
546 682 m 1,40,-1
 546 750 l 1,41,-1
 614 750 l 1,42,-1
 614 682 l 1,43,-1
 546 682 l 1,40,-1
0 819 m 1,44,-1
 0 887 l 1,45,-1
 68 887 l 1,46,-1
 68 819 l 1,47,-1
 0 819 l 1,44,-1
546 819 m 1,48,-1
 546 887 l 1,49,-1
 614 887 l 1,50,-1
 614 819 l 1,51,-1
 546 819 l 1,48,-1
EndSplineSet
Validated: 1
EndChar

StartChar: y
Encoding: 121 121 90
Width: 819
Flags: W
LayerCount: 2
Fore
SplineSet
0 -273 m 1,0,-1
 0 -204 l 1,1,-1
 68 -204 l 1,2,-1
 68 -273 l 1,3,-1
 0 -273 l 1,0,-1
136 -273 m 1,4,-1
 136 -204 l 1,5,-1
 204 -204 l 1,6,-1
 204 -273 l 1,7,-1
 136 -273 l 1,4,-1
273 -136 m 1,8,-1
 273 -68 l 1,9,-1
 341 -68 l 1,10,-1
 341 -136 l 1,11,-1
 273 -136 l 1,8,-1
273 0 m 1,12,-1
 273 68 l 1,13,-1
 341 68 l 1,14,-1
 341 0 l 1,15,-1
 273 0 l 1,12,-1
136 136 m 1,16,-1
 136 204 l 1,17,-1
 204 204 l 1,18,-1
 204 136 l 1,19,-1
 136 136 l 1,16,-1
409 136 m 1,20,-1
 409 204 l 1,21,-1
 477 204 l 1,22,-1
 477 136 l 1,23,-1
 409 136 l 1,20,-1
136 273 m 1,24,-1
 136 341 l 1,25,-1
 204 341 l 1,26,-1
 204 273 l 1,27,-1
 136 273 l 1,24,-1
409 273 m 1,28,-1
 409 341 l 1,29,-1
 477 341 l 1,30,-1
 477 273 l 1,31,-1
 409 273 l 1,28,-1
136 409 m 1,32,-1
 136 477 l 1,33,-1
 204 477 l 1,34,-1
 204 409 l 1,35,-1
 136 409 l 1,32,-1
409 409 m 1,36,-1
 409 477 l 1,37,-1
 477 477 l 1,38,-1
 477 409 l 1,39,-1
 409 409 l 1,36,-1
0 546 m 1,40,-1
 0 614 l 1,41,-1
 68 614 l 1,42,-1
 68 546 l 1,43,-1
 0 546 l 1,40,-1
546 546 m 1,44,-1
 546 614 l 1,45,-1
 614 614 l 1,46,-1
 614 546 l 1,47,-1
 546 546 l 1,44,-1
0 682 m 1,48,-1
 0 750 l 1,49,-1
 68 750 l 1,50,-1
 68 682 l 1,51,-1
 0 682 l 1,48,-1
546 682 m 1,52,-1
 546 750 l 1,53,-1
 614 750 l 1,54,-1
 614 682 l 1,55,-1
 546 682 l 1,52,-1
0 819 m 1,56,-1
 0 887 l 1,57,-1
 68 887 l 1,58,-1
 68 819 l 1,59,-1
 0 819 l 1,56,-1
546 819 m 1,60,-1
 546 887 l 1,61,-1
 614 887 l 1,62,-1
 614 819 l 1,63,-1
 546 819 l 1,60,-1
EndSplineSet
Validated: 1
EndChar

StartChar: z
Encoding: 122 122 91
Width: 819
Flags: W
LayerCount: 2
Fore
SplineSet
0 0 m 1,0,-1
 0 68 l 1,1,-1
 68 68 l 1,2,-1
 68 0 l 1,3,-1
 0 0 l 1,0,-1
136 0 m 1,4,-1
 136 68 l 1,5,-1
 204 68 l 1,6,-1
 204 0 l 1,7,-1
 136 0 l 1,4,-1
273 0 m 1,8,-1
 273 68 l 1,9,-1
 341 68 l 1,10,-1
 341 0 l 1,11,-1
 273 0 l 1,8,-1
409 0 m 1,12,-1
 409 68 l 1,13,-1
 477 68 l 1,14,-1
 477 0 l 1,15,-1
 409 0 l 1,12,-1
546 0 m 1,16,-1
 546 68 l 1,17,-1
 614 68 l 1,18,-1
 614 0 l 1,19,-1
 546 0 l 1,16,-1
0 136 m 1,20,-1
 0 204 l 1,21,-1
 68 204 l 1,22,-1
 68 136 l 1,23,-1
 0 136 l 1,20,-1
136 273 m 1,24,-1
 136 341 l 1,25,-1
 204 341 l 1,26,-1
 204 273 l 1,27,-1
 136 273 l 1,24,-1
273 409 m 1,28,-1
 273 477 l 1,29,-1
 341 477 l 1,30,-1
 341 409 l 1,31,-1
 273 409 l 1,28,-1
409 546 m 1,32,-1
 409 614 l 1,33,-1
 477 614 l 1,34,-1
 477 546 l 1,35,-1
 409 546 l 1,32,-1
546 682 m 1,36,-1
 546 750 l 1,37,-1
 614 750 l 1,38,-1
 614 682 l 1,39,-1
 546 682 l 1,36,-1
0 819 m 1,40,-1
 0 887 l 1,41,-1
 68 887 l 1,42,-1
 68 819 l 1,43,-1
 0 819 l 1,40,-1
136 819 m 1,44,-1
 136 887 l 1,45,-1
 204 887 l 1,46,-1
 204 819 l 1,47,-1
 136 819 l 1,44,-1
273 819 m 1,48,-1
 273 887 l 1,49,-1
 341 887 l 1,50,-1
 341 819 l 1,51,-1
 273 819 l 1,48,-1
409 819 m 1,52,-1
 409 887 l 1,53,-1
 477 887 l 1,54,-1
 477 819 l 1,55,-1
 409 819 l 1,52,-1
546 819 m 1,56,-1
 546 887 l 1,57,-1
 614 887 l 1,58,-1
 614 819 l 1,59,-1
 546 819 l 1,56,-1
EndSplineSet
Validated: 1
EndChar

StartChar: braceleft
Encoding: 123 123 92
Width: 546
Flags: W
LayerCount: 2
Fore
SplineSet
273 0 m 1,0,-1
 273 68 l 1,1,-1
 341 68 l 1,2,-1
 341 0 l 1,3,-1
 273 0 l 1,0,-1
136 136 m 1,4,-1
 136 204 l 1,5,-1
 204 204 l 1,6,-1
 204 136 l 1,7,-1
 136 136 l 1,4,-1
136 273 m 1,8,-1
 136 341 l 1,9,-1
 204 341 l 1,10,-1
 204 273 l 1,11,-1
 136 273 l 1,8,-1
136 409 m 1,12,-1
 136 477 l 1,13,-1
 204 477 l 1,14,-1
 204 409 l 1,15,-1
 136 409 l 1,12,-1
0 546 m 1,16,-1
 0 614 l 1,17,-1
 68 614 l 1,18,-1
 68 546 l 1,19,-1
 0 546 l 1,16,-1
136 682 m 1,20,-1
 136 750 l 1,21,-1
 204 750 l 1,22,-1
 204 682 l 1,23,-1
 136 682 l 1,20,-1
136 819 m 1,24,-1
 136 887 l 1,25,-1
 204 887 l 1,26,-1
 204 819 l 1,27,-1
 136 819 l 1,24,-1
136 955 m 1,28,-1
 136 1024 l 1,29,-1
 204 1024 l 1,30,-1
 204 955 l 1,31,-1
 136 955 l 1,28,-1
273 1092 m 1,32,-1
 273 1160 l 1,33,-1
 341 1160 l 1,34,-1
 341 1092 l 1,35,-1
 273 1092 l 1,32,-1
EndSplineSet
Validated: 1
EndChar

StartChar: bar
Encoding: 124 124 93
Width: 273
Flags: W
LayerCount: 2
Fore
SplineSet
0 -273 m 1,0,-1
 0 -204 l 1,1,-1
 68 -204 l 1,2,-1
 68 -273 l 1,3,-1
 0 -273 l 1,0,-1
0 -136 m 1,4,-1
 0 -68 l 1,5,-1
 68 -68 l 1,6,-1
 68 -136 l 1,7,-1
 0 -136 l 1,4,-1
0 0 m 1,8,-1
 0 68 l 1,9,-1
 68 68 l 1,10,-1
 68 0 l 1,11,-1
 0 0 l 1,8,-1
0 136 m 1,12,-1
 0 204 l 1,13,-1
 68 204 l 1,14,-1
 68 136 l 1,15,-1
 0 136 l 1,12,-1
0 273 m 1,16,-1
 0 341 l 1,17,-1
 68 341 l 1,18,-1
 68 273 l 1,19,-1
 0 273 l 1,16,-1
0 409 m 1,20,-1
 0 477 l 1,21,-1
 68 477 l 1,22,-1
 68 409 l 1,23,-1
 0 409 l 1,20,-1
0 546 m 1,24,-1
 0 614 l 1,25,-1
 68 614 l 1,26,-1
 68 546 l 1,27,-1
 0 546 l 1,24,-1
0 682 m 1,28,-1
 0 750 l 1,29,-1
 68 750 l 1,30,-1
 68 682 l 1,31,-1
 0 682 l 1,28,-1
0 819 m 1,32,-1
 0 887 l 1,33,-1
 68 887 l 1,34,-1
 68 819 l 1,35,-1
 0 819 l 1,32,-1
0 955 m 1,36,-1
 0 1024 l 1,37,-1
 68 1024 l 1,38,-1
 68 955 l 1,39,-1
 0 955 l 1,36,-1
0 1092 m 1,40,-1
 0 1160 l 1,41,-1
 68 1160 l 1,42,-1
 68 1092 l 1,43,-1
 0 1092 l 1,40,-1
EndSplineSet
Validated: 1
EndChar

StartChar: braceright
Encoding: 125 125 94
Width: 546
Flags: W
LayerCount: 2
Fore
SplineSet
0 0 m 1,0,-1
 0 68 l 1,1,-1
 68 68 l 1,2,-1
 68 0 l 1,3,-1
 0 0 l 1,0,-1
136 136 m 1,4,-1
 136 204 l 1,5,-1
 204 204 l 1,6,-1
 204 136 l 1,7,-1
 136 136 l 1,4,-1
136 273 m 1,8,-1
 136 341 l 1,9,-1
 204 341 l 1,10,-1
 204 273 l 1,11,-1
 136 273 l 1,8,-1
136 409 m 1,12,-1
 136 477 l 1,13,-1
 204 477 l 1,14,-1
 204 409 l 1,15,-1
 136 409 l 1,12,-1
273 546 m 1,16,-1
 273 614 l 1,17,-1
 341 614 l 1,18,-1
 341 546 l 1,19,-1
 273 546 l 1,16,-1
136 682 m 1,20,-1
 136 750 l 1,21,-1
 204 750 l 1,22,-1
 204 682 l 1,23,-1
 136 682 l 1,20,-1
136 819 m 1,24,-1
 136 887 l 1,25,-1
 204 887 l 1,26,-1
 204 819 l 1,27,-1
 136 819 l 1,24,-1
136 955 m 1,28,-1
 136 1024 l 1,29,-1
 204 1024 l 1,30,-1
 204 955 l 1,31,-1
 136 955 l 1,28,-1
0 1092 m 1,32,-1
 0 1160 l 1,33,-1
 68 1160 l 1,34,-1
 68 1092 l 1,35,-1
 0 1092 l 1,32,-1
EndSplineSet
Validated: 1
EndChar

StartChar: asciitilde
Encoding: 126 126 95
Width: 955
Flags: W
LayerCount: 2
Fore
SplineSet
0 546 m 1,0,-1
 0 614 l 1,1,-1
 68 614 l 1,2,-1
 68 546 l 1,3,-1
 0 546 l 1,0,-1
409 546 m 1,4,-1
 409 614 l 1,5,-1
 477 614 l 1,6,-1
 477 546 l 1,7,-1
 409 546 l 1,4,-1
546 546 m 1,8,-1
 546 614 l 1,9,-1
 614 614 l 1,10,-1
 614 546 l 1,11,-1
 546 546 l 1,8,-1
136 682 m 1,12,-1
 136 750 l 1,13,-1
 204 750 l 1,14,-1
 204 682 l 1,15,-1
 136 682 l 1,12,-1
273 682 m 1,16,-1
 273 750 l 1,17,-1
 341 750 l 1,18,-1
 341 682 l 1,19,-1
 273 682 l 1,16,-1
682 682 m 1,20,-1
 682 750 l 1,21,-1
 750 750 l 1,22,-1
 750 682 l 1,23,-1
 682 682 l 1,20,-1
EndSplineSet
Validated: 1
EndChar

StartChar: exclamdown
Encoding: 161 161 96
Width: 273
Flags: W
LayerCount: 2
Fore
SplineSet
0 -273 m 1,0,-1
 0 -204 l 1,1,-1
 68 -204 l 1,2,-1
 68 -273 l 1,3,-1
 0 -273 l 1,0,-1
0 -136 m 1,4,-1
 0 -68 l 1,5,-1
 68 -68 l 1,6,-1
 68 -136 l 1,7,-1
 0 -136 l 1,4,-1
0 0 m 1,8,-1
 0 68 l 1,9,-1
 68 68 l 1,10,-1
 68 0 l 1,11,-1
 0 0 l 1,8,-1
0 136 m 1,12,-1
 0 204 l 1,13,-1
 68 204 l 1,14,-1
 68 136 l 1,15,-1
 0 136 l 1,12,-1
0 273 m 1,16,-1
 0 341 l 1,17,-1
 68 341 l 1,18,-1
 68 273 l 1,19,-1
 0 273 l 1,16,-1
0 409 m 1,20,-1
 0 477 l 1,21,-1
 68 477 l 1,22,-1
 68 409 l 1,23,-1
 0 409 l 1,20,-1
0 546 m 1,24,-1
 0 614 l 1,25,-1
 68 614 l 1,26,-1
 68 546 l 1,27,-1
 0 546 l 1,24,-1
0 819 m 1,28,-1
 0 887 l 1,29,-1
 68 887 l 1,30,-1
 68 819 l 1,31,-1
 0 819 l 1,28,-1
EndSplineSet
Validated: 1
EndChar

StartChar: cent
Encoding: 162 162 97
Width: 819
Flags: W
LayerCount: 2
Fore
SplineSet
273 -136 m 1,0,-1
 273 -68 l 1,1,-1
 341 -68 l 1,2,-1
 341 -136 l 1,3,-1
 273 -136 l 1,0,-1
273 0 m 1,4,-1
 273 68 l 1,5,-1
 341 68 l 1,6,-1
 341 0 l 1,7,-1
 273 0 l 1,4,-1
136 136 m 1,8,-1
 136 204 l 1,9,-1
 204 204 l 1,10,-1
 204 136 l 1,11,-1
 136 136 l 1,8,-1
273 136 m 1,12,-1
 273 204 l 1,13,-1
 341 204 l 1,14,-1
 341 136 l 1,15,-1
 273 136 l 1,12,-1
409 136 m 1,16,-1
 409 204 l 1,17,-1
 477 204 l 1,18,-1
 477 136 l 1,19,-1
 409 136 l 1,16,-1
0 273 m 1,20,-1
 0 341 l 1,21,-1
 68 341 l 1,22,-1
 68 273 l 1,23,-1
 0 273 l 1,20,-1
546 273 m 1,24,-1
 546 341 l 1,25,-1
 614 341 l 1,26,-1
 614 273 l 1,27,-1
 546 273 l 1,24,-1
0 409 m 1,28,-1
 0 477 l 1,29,-1
 68 477 l 1,30,-1
 68 409 l 1,31,-1
 0 409 l 1,28,-1
0 546 m 1,32,-1
 0 614 l 1,33,-1
 68 614 l 1,34,-1
 68 546 l 1,35,-1
 0 546 l 1,32,-1
546 546 m 1,36,-1
 546 614 l 1,37,-1
 614 614 l 1,38,-1
 614 546 l 1,39,-1
 546 546 l 1,36,-1
0 682 m 1,40,-1
 0 750 l 1,41,-1
 68 750 l 1,42,-1
 68 682 l 1,43,-1
 0 682 l 1,40,-1
546 682 m 1,44,-1
 546 750 l 1,45,-1
 614 750 l 1,46,-1
 614 682 l 1,47,-1
 546 682 l 1,44,-1
136 819 m 1,48,-1
 136 887 l 1,49,-1
 204 887 l 1,50,-1
 204 819 l 1,51,-1
 136 819 l 1,48,-1
273 819 m 1,52,-1
 273 887 l 1,53,-1
 341 887 l 1,54,-1
 341 819 l 1,55,-1
 273 819 l 1,52,-1
409 819 m 1,56,-1
 409 887 l 1,57,-1
 477 887 l 1,58,-1
 477 819 l 1,59,-1
 409 819 l 1,56,-1
273 955 m 1,60,-1
 273 1024 l 1,61,-1
 341 1024 l 1,62,-1
 341 955 l 1,63,-1
 273 955 l 1,60,-1
273 1092 m 1,64,-1
 273 1160 l 1,65,-1
 341 1160 l 1,66,-1
 341 1092 l 1,67,-1
 273 1092 l 1,64,-1
EndSplineSet
Validated: 1
EndChar

StartChar: sterling
Encoding: 163 163 98
Width: 819
Flags: W
LayerCount: 2
Fore
SplineSet
0 0 m 1,0,-1
 0 68 l 1,1,-1
 68 68 l 1,2,-1
 68 0 l 1,3,-1
 0 0 l 1,0,-1
136 0 m 1,4,-1
 136 68 l 1,5,-1
 204 68 l 1,6,-1
 204 0 l 1,7,-1
 136 0 l 1,4,-1
273 0 m 1,8,-1
 273 68 l 1,9,-1
 341 68 l 1,10,-1
 341 0 l 1,11,-1
 273 0 l 1,8,-1
409 0 m 1,12,-1
 409 68 l 1,13,-1
 477 68 l 1,14,-1
 477 0 l 1,15,-1
 409 0 l 1,12,-1
546 0 m 1,16,-1
 546 68 l 1,17,-1
 614 68 l 1,18,-1
 614 0 l 1,19,-1
 546 0 l 1,16,-1
136 136 m 1,20,-1
 136 204 l 1,21,-1
 204 204 l 1,22,-1
 204 136 l 1,23,-1
 136 136 l 1,20,-1
136 273 m 1,24,-1
 136 341 l 1,25,-1
 204 341 l 1,26,-1
 204 273 l 1,27,-1
 136 273 l 1,24,-1
136 409 m 1,28,-1
 136 477 l 1,29,-1
 204 477 l 1,30,-1
 204 409 l 1,31,-1
 136 409 l 1,28,-1
0 546 m 1,32,-1
 0 614 l 1,33,-1
 68 614 l 1,34,-1
 68 546 l 1,35,-1
 0 546 l 1,32,-1
136 546 m 1,36,-1
 136 614 l 1,37,-1
 204 614 l 1,38,-1
 204 546 l 1,39,-1
 136 546 l 1,36,-1
273 546 m 1,40,-1
 273 614 l 1,41,-1
 341 614 l 1,42,-1
 341 546 l 1,43,-1
 273 546 l 1,40,-1
409 546 m 1,44,-1
 409 614 l 1,45,-1
 477 614 l 1,46,-1
 477 546 l 1,47,-1
 409 546 l 1,44,-1
546 546 m 1,48,-1
 546 614 l 1,49,-1
 614 614 l 1,50,-1
 614 546 l 1,51,-1
 546 546 l 1,48,-1
136 682 m 1,52,-1
 136 750 l 1,53,-1
 204 750 l 1,54,-1
 204 682 l 1,55,-1
 136 682 l 1,52,-1
136 819 m 1,56,-1
 136 887 l 1,57,-1
 204 887 l 1,58,-1
 204 819 l 1,59,-1
 136 819 l 1,56,-1
136 955 m 1,60,-1
 136 1024 l 1,61,-1
 204 1024 l 1,62,-1
 204 955 l 1,63,-1
 136 955 l 1,60,-1
546 955 m 1,64,-1
 546 1024 l 1,65,-1
 614 1024 l 1,66,-1
 614 955 l 1,67,-1
 546 955 l 1,64,-1
273 1092 m 1,68,-1
 273 1160 l 1,69,-1
 341 1160 l 1,70,-1
 341 1092 l 1,71,-1
 273 1092 l 1,68,-1
409 1092 m 1,72,-1
 409 1160 l 1,73,-1
 477 1160 l 1,74,-1
 477 1092 l 1,75,-1
 409 1092 l 1,72,-1
EndSplineSet
Validated: 1
EndChar

StartChar: currency
Encoding: 164 164 99
Width: 955
Flags: W
LayerCount: 2
Fore
SplineSet
0 136 m 1,0,-1
 0 204 l 1,1,-1
 68 204 l 1,2,-1
 68 136 l 1,3,-1
 0 136 l 1,0,-1
682 136 m 1,4,-1
 682 204 l 1,5,-1
 750 204 l 1,6,-1
 750 136 l 1,7,-1
 682 136 l 1,4,-1
136 273 m 1,8,-1
 136 341 l 1,9,-1
 204 341 l 1,10,-1
 204 273 l 1,11,-1
 136 273 l 1,8,-1
273 273 m 1,12,-1
 273 341 l 1,13,-1
 341 341 l 1,14,-1
 341 273 l 1,15,-1
 273 273 l 1,12,-1
409 273 m 1,16,-1
 409 341 l 1,17,-1
 477 341 l 1,18,-1
 477 273 l 1,19,-1
 409 273 l 1,16,-1
546 273 m 1,20,-1
 546 341 l 1,21,-1
 614 341 l 1,22,-1
 614 273 l 1,23,-1
 546 273 l 1,20,-1
136 409 m 1,24,-1
 136 477 l 1,25,-1
 204 477 l 1,26,-1
 204 409 l 1,27,-1
 136 409 l 1,24,-1
546 409 m 1,28,-1
 546 477 l 1,29,-1
 614 477 l 1,30,-1
 614 409 l 1,31,-1
 546 409 l 1,28,-1
136 546 m 1,32,-1
 136 614 l 1,33,-1
 204 614 l 1,34,-1
 204 546 l 1,35,-1
 136 546 l 1,32,-1
546 546 m 1,36,-1
 546 614 l 1,37,-1
 614 614 l 1,38,-1
 614 546 l 1,39,-1
 546 546 l 1,36,-1
136 682 m 1,40,-1
 136 750 l 1,41,-1
 204 750 l 1,42,-1
 204 682 l 1,43,-1
 136 682 l 1,40,-1
273 682 m 1,44,-1
 273 750 l 1,45,-1
 341 750 l 1,46,-1
 341 682 l 1,47,-1
 273 682 l 1,44,-1
409 682 m 1,48,-1
 409 750 l 1,49,-1
 477 750 l 1,50,-1
 477 682 l 1,51,-1
 409 682 l 1,48,-1
546 682 m 1,52,-1
 546 750 l 1,53,-1
 614 750 l 1,54,-1
 614 682 l 1,55,-1
 546 682 l 1,52,-1
0 819 m 1,56,-1
 0 887 l 1,57,-1
 68 887 l 1,58,-1
 68 819 l 1,59,-1
 0 819 l 1,56,-1
682 819 m 1,60,-1
 682 887 l 1,61,-1
 750 887 l 1,62,-1
 750 819 l 1,63,-1
 682 819 l 1,60,-1
EndSplineSet
Validated: 1
EndChar

StartChar: yen
Encoding: 165 165 100
Width: 819
Flags: W
LayerCount: 2
Fore
SplineSet
273 0 m 1,0,-1
 273 68 l 1,1,-1
 341 68 l 1,2,-1
 341 0 l 1,3,-1
 273 0 l 1,0,-1
0 136 m 1,4,-1
 0 204 l 1,5,-1
 68 204 l 1,6,-1
 68 136 l 1,7,-1
 0 136 l 1,4,-1
136 136 m 1,8,-1
 136 204 l 1,9,-1
 204 204 l 1,10,-1
 204 136 l 1,11,-1
 136 136 l 1,8,-1
273 136 m 1,12,-1
 273 204 l 1,13,-1
 341 204 l 1,14,-1
 341 136 l 1,15,-1
 273 136 l 1,12,-1
409 136 m 1,16,-1
 409 204 l 1,17,-1
 477 204 l 1,18,-1
 477 136 l 1,19,-1
 409 136 l 1,16,-1
546 136 m 1,20,-1
 546 204 l 1,21,-1
 614 204 l 1,22,-1
 614 136 l 1,23,-1
 546 136 l 1,20,-1
273 273 m 1,24,-1
 273 341 l 1,25,-1
 341 341 l 1,26,-1
 341 273 l 1,27,-1
 273 273 l 1,24,-1
0 409 m 1,28,-1
 0 477 l 1,29,-1
 68 477 l 1,30,-1
 68 409 l 1,31,-1
 0 409 l 1,28,-1
136 409 m 1,32,-1
 136 477 l 1,33,-1
 204 477 l 1,34,-1
 204 409 l 1,35,-1
 136 409 l 1,32,-1
273 409 m 1,36,-1
 273 477 l 1,37,-1
 341 477 l 1,38,-1
 341 409 l 1,39,-1
 273 409 l 1,36,-1
409 409 m 1,40,-1
 409 477 l 1,41,-1
 477 477 l 1,42,-1
 477 409 l 1,43,-1
 409 409 l 1,40,-1
546 409 m 1,44,-1
 546 477 l 1,45,-1
 614 477 l 1,46,-1
 614 409 l 1,47,-1
 546 409 l 1,44,-1
273 546 m 1,48,-1
 273 614 l 1,49,-1
 341 614 l 1,50,-1
 341 546 l 1,51,-1
 273 546 l 1,48,-1
136 682 m 1,52,-1
 136 750 l 1,53,-1
 204 750 l 1,54,-1
 204 682 l 1,55,-1
 136 682 l 1,52,-1
409 682 m 1,56,-1
 409 750 l 1,57,-1
 477 750 l 1,58,-1
 477 682 l 1,59,-1
 409 682 l 1,56,-1
0 819 m 1,60,-1
 0 887 l 1,61,-1
 68 887 l 1,62,-1
 68 819 l 1,63,-1
 0 819 l 1,60,-1
546 819 m 1,64,-1
 546 887 l 1,65,-1
 614 887 l 1,66,-1
 614 819 l 1,67,-1
 546 819 l 1,64,-1
0 955 m 1,68,-1
 0 1024 l 1,69,-1
 68 1024 l 1,70,-1
 68 955 l 1,71,-1
 0 955 l 1,68,-1
546 955 m 1,72,-1
 546 1024 l 1,73,-1
 614 1024 l 1,74,-1
 614 955 l 1,75,-1
 546 955 l 1,72,-1
0 1092 m 1,76,-1
 0 1160 l 1,77,-1
 68 1160 l 1,78,-1
 68 1092 l 1,79,-1
 0 1092 l 1,76,-1
546 1092 m 1,80,-1
 546 1160 l 1,81,-1
 614 1160 l 1,82,-1
 614 1092 l 1,83,-1
 546 1092 l 1,80,-1
EndSplineSet
Validated: 1
EndChar

StartChar: brokenbar
Encoding: 166 166 101
Width: 273
Flags: W
LayerCount: 2
Fore
SplineSet
0 -273 m 1,0,-1
 0 -204 l 1,1,-1
 68 -204 l 1,2,-1
 68 -273 l 1,3,-1
 0 -273 l 1,0,-1
0 -136 m 1,4,-1
 0 -68 l 1,5,-1
 68 -68 l 1,6,-1
 68 -136 l 1,7,-1
 0 -136 l 1,4,-1
0 0 m 1,8,-1
 0 68 l 1,9,-1
 68 68 l 1,10,-1
 68 0 l 1,11,-1
 0 0 l 1,8,-1
0 136 m 1,12,-1
 0 204 l 1,13,-1
 68 204 l 1,14,-1
 68 136 l 1,15,-1
 0 136 l 1,12,-1
0 273 m 1,16,-1
 0 341 l 1,17,-1
 68 341 l 1,18,-1
 68 273 l 1,19,-1
 0 273 l 1,16,-1
0 546 m 1,20,-1
 0 614 l 1,21,-1
 68 614 l 1,22,-1
 68 546 l 1,23,-1
 0 546 l 1,20,-1
0 682 m 1,24,-1
 0 750 l 1,25,-1
 68 750 l 1,26,-1
 68 682 l 1,27,-1
 0 682 l 1,24,-1
0 819 m 1,28,-1
 0 887 l 1,29,-1
 68 887 l 1,30,-1
 68 819 l 1,31,-1
 0 819 l 1,28,-1
0 955 m 1,32,-1
 0 1024 l 1,33,-1
 68 1024 l 1,34,-1
 68 955 l 1,35,-1
 0 955 l 1,32,-1
0 1092 m 1,36,-1
 0 1160 l 1,37,-1
 68 1160 l 1,38,-1
 68 1092 l 1,39,-1
 0 1092 l 1,36,-1
EndSplineSet
Validated: 1
EndChar

StartChar: section
Encoding: 167 167 102
Width: 955
Flags: W
LayerCount: 2
Fore
SplineSet
136 -273 m 1,0,-1
 136 -204 l 1,1,-1
 204 -204 l 1,2,-1
 204 -273 l 1,3,-1
 136 -273 l 1,0,-1
273 -273 m 1,4,-1
 273 -204 l 1,5,-1
 341 -204 l 1,6,-1
 341 -273 l 1,7,-1
 273 -273 l 1,4,-1
409 -273 m 1,8,-1
 409 -204 l 1,9,-1
 477 -204 l 1,10,-1
 477 -273 l 1,11,-1
 409 -273 l 1,8,-1
546 -273 m 1,12,-1
 546 -204 l 1,13,-1
 614 -204 l 1,14,-1
 614 -273 l 1,15,-1
 546 -273 l 1,12,-1
0 -136 m 1,16,-1
 0 -68 l 1,17,-1
 68 -68 l 1,18,-1
 68 -136 l 1,19,-1
 0 -136 l 1,16,-1
682 -136 m 1,20,-1
 682 -68 l 1,21,-1
 750 -68 l 1,22,-1
 750 -136 l 1,23,-1
 682 -136 l 1,20,-1
682 0 m 1,24,-1
 682 68 l 1,25,-1
 750 68 l 1,26,-1
 750 0 l 1,27,-1
 682 0 l 1,24,-1
273 136 m 1,28,-1
 273 204 l 1,29,-1
 341 204 l 1,30,-1
 341 136 l 1,31,-1
 273 136 l 1,28,-1
409 136 m 1,32,-1
 409 204 l 1,33,-1
 477 204 l 1,34,-1
 477 136 l 1,35,-1
 409 136 l 1,32,-1
546 136 m 1,36,-1
 546 204 l 1,37,-1
 614 204 l 1,38,-1
 614 136 l 1,39,-1
 546 136 l 1,36,-1
136 273 m 1,40,-1
 136 341 l 1,41,-1
 204 341 l 1,42,-1
 204 273 l 1,43,-1
 136 273 l 1,40,-1
682 273 m 1,44,-1
 682 341 l 1,45,-1
 750 341 l 1,46,-1
 750 273 l 1,47,-1
 682 273 l 1,44,-1
0 409 m 1,48,-1
 0 477 l 1,49,-1
 68 477 l 1,50,-1
 68 409 l 1,51,-1
 0 409 l 1,48,-1
682 409 m 1,52,-1
 682 477 l 1,53,-1
 750 477 l 1,54,-1
 750 409 l 1,55,-1
 682 409 l 1,52,-1
0 546 m 1,56,-1
 0 614 l 1,57,-1
 68 614 l 1,58,-1
 68 546 l 1,59,-1
 0 546 l 1,56,-1
546 546 m 1,60,-1
 546 614 l 1,61,-1
 614 614 l 1,62,-1
 614 546 l 1,63,-1
 546 546 l 1,60,-1
136 682 m 1,64,-1
 136 750 l 1,65,-1
 204 750 l 1,66,-1
 204 682 l 1,67,-1
 136 682 l 1,64,-1
273 682 m 1,68,-1
 273 750 l 1,69,-1
 341 750 l 1,70,-1
 341 682 l 1,71,-1
 273 682 l 1,68,-1
409 682 m 1,72,-1
 409 750 l 1,73,-1
 477 750 l 1,74,-1
 477 682 l 1,75,-1
 409 682 l 1,72,-1
0 819 m 1,76,-1
 0 887 l 1,77,-1
 68 887 l 1,78,-1
 68 819 l 1,79,-1
 0 819 l 1,76,-1
0 955 m 1,80,-1
 0 1024 l 1,81,-1
 68 1024 l 1,82,-1
 68 955 l 1,83,-1
 0 955 l 1,80,-1
682 955 m 1,84,-1
 682 1024 l 1,85,-1
 750 1024 l 1,86,-1
 750 955 l 1,87,-1
 682 955 l 1,84,-1
136 1092 m 1,88,-1
 136 1160 l 1,89,-1
 204 1160 l 1,90,-1
 204 1092 l 1,91,-1
 136 1092 l 1,88,-1
273 1092 m 1,92,-1
 273 1160 l 1,93,-1
 341 1160 l 1,94,-1
 341 1092 l 1,95,-1
 273 1092 l 1,92,-1
409 1092 m 1,96,-1
 409 1160 l 1,97,-1
 477 1160 l 1,98,-1
 477 1092 l 1,99,-1
 409 1092 l 1,96,-1
546 1092 m 1,100,-1
 546 1160 l 1,101,-1
 614 1160 l 1,102,-1
 614 1092 l 1,103,-1
 546 1092 l 1,100,-1
EndSplineSet
Validated: 1
EndChar

StartChar: dieresis
Encoding: 168 168 103
Width: 546
Flags: W
LayerCount: 2
Fore
SplineSet
0 1092 m 1,0,-1
 0 1160 l 1,1,-1
 68 1160 l 1,2,-1
 68 1092 l 1,3,-1
 0 1092 l 1,0,-1
273 1092 m 1,4,-1
 273 1160 l 1,5,-1
 341 1160 l 1,6,-1
 341 1092 l 1,7,-1
 273 1092 l 1,4,-1
EndSplineSet
Validated: 1
EndChar

StartChar: copyright
Encoding: 169 169 104
Width: 1228
Flags: W
LayerCount: 2
Fore
SplineSet
273 0 m 1,0,-1
 273 68 l 1,1,-1
 341 68 l 1,2,-1
 341 0 l 1,3,-1
 273 0 l 1,0,-1
409 0 m 1,4,-1
 409 68 l 1,5,-1
 477 68 l 1,6,-1
 477 0 l 1,7,-1
 409 0 l 1,4,-1
546 0 m 1,8,-1
 546 68 l 1,9,-1
 614 68 l 1,10,-1
 614 0 l 1,11,-1
 546 0 l 1,8,-1
682 0 m 1,12,-1
 682 68 l 1,13,-1
 750 68 l 1,14,-1
 750 0 l 1,15,-1
 682 0 l 1,12,-1
136 136 m 1,16,-1
 136 204 l 1,17,-1
 204 204 l 1,18,-1
 204 136 l 1,19,-1
 136 136 l 1,16,-1
819 136 m 1,20,-1
 819 204 l 1,21,-1
 887 204 l 1,22,-1
 887 136 l 1,23,-1
 819 136 l 1,20,-1
0 273 m 1,24,-1
 0 341 l 1,25,-1
 68 341 l 1,26,-1
 68 273 l 1,27,-1
 0 273 l 1,24,-1
409 273 m 1,28,-1
 409 341 l 1,29,-1
 477 341 l 1,30,-1
 477 273 l 1,31,-1
 409 273 l 1,28,-1
546 273 m 1,32,-1
 546 341 l 1,33,-1
 614 341 l 1,34,-1
 614 273 l 1,35,-1
 546 273 l 1,32,-1
955 273 m 1,36,-1
 955 341 l 1,37,-1
 1024 341 l 1,38,-1
 1024 273 l 1,39,-1
 955 273 l 1,36,-1
0 409 m 1,40,-1
 0 477 l 1,41,-1
 68 477 l 1,42,-1
 68 409 l 1,43,-1
 0 409 l 1,40,-1
273 409 m 1,44,-1
 273 477 l 1,45,-1
 341 477 l 1,46,-1
 341 409 l 1,47,-1
 273 409 l 1,44,-1
955 409 m 1,48,-1
 955 477 l 1,49,-1
 1024 477 l 1,50,-1
 1024 409 l 1,51,-1
 955 409 l 1,48,-1
0 546 m 1,52,-1
 0 614 l 1,53,-1
 68 614 l 1,54,-1
 68 546 l 1,55,-1
 0 546 l 1,52,-1
273 546 m 1,56,-1
 273 614 l 1,57,-1
 341 614 l 1,58,-1
 341 546 l 1,59,-1
 273 546 l 1,56,-1
682 546 m 1,60,-1
 682 614 l 1,61,-1
 750 614 l 1,62,-1
 750 546 l 1,63,-1
 682 546 l 1,60,-1
955 546 m 1,64,-1
 955 614 l 1,65,-1
 1024 614 l 1,66,-1
 1024 546 l 1,67,-1
 955 546 l 1,64,-1
0 682 m 1,68,-1
 0 750 l 1,69,-1
 68 750 l 1,70,-1
 68 682 l 1,71,-1
 0 682 l 1,68,-1
409 682 m 1,72,-1
 409 750 l 1,73,-1
 477 750 l 1,74,-1
 477 682 l 1,75,-1
 409 682 l 1,72,-1
546 682 m 1,76,-1
 546 750 l 1,77,-1
 614 750 l 1,78,-1
 614 682 l 1,79,-1
 546 682 l 1,76,-1
955 682 m 1,80,-1
 955 750 l 1,81,-1
 1024 750 l 1,82,-1
 1024 682 l 1,83,-1
 955 682 l 1,80,-1
136 819 m 1,84,-1
 136 887 l 1,85,-1
 204 887 l 1,86,-1
 204 819 l 1,87,-1
 136 819 l 1,84,-1
819 819 m 1,88,-1
 819 887 l 1,89,-1
 887 887 l 1,90,-1
 887 819 l 1,91,-1
 819 819 l 1,88,-1
273 955 m 1,92,-1
 273 1024 l 1,93,-1
 341 1024 l 1,94,-1
 341 955 l 1,95,-1
 273 955 l 1,92,-1
409 955 m 1,96,-1
 409 1024 l 1,97,-1
 477 1024 l 1,98,-1
 477 955 l 1,99,-1
 409 955 l 1,96,-1
546 955 m 1,100,-1
 546 1024 l 1,101,-1
 614 1024 l 1,102,-1
 614 955 l 1,103,-1
 546 955 l 1,100,-1
682 955 m 1,104,-1
 682 1024 l 1,105,-1
 750 1024 l 1,106,-1
 750 955 l 1,107,-1
 682 955 l 1,104,-1
EndSplineSet
Validated: 1
EndChar

StartChar: ordfeminine
Encoding: 170 170 105
Width: 682
Flags: W
LayerCount: 2
Fore
SplineSet
136 546 m 1,0,-1
 136 614 l 1,1,-1
 204 614 l 1,2,-1
 204 546 l 1,3,-1
 136 546 l 1,0,-1
409 546 m 1,4,-1
 409 614 l 1,5,-1
 477 614 l 1,6,-1
 477 546 l 1,7,-1
 409 546 l 1,4,-1
0 682 m 1,8,-1
 0 750 l 1,9,-1
 68 750 l 1,10,-1
 68 682 l 1,11,-1
 0 682 l 1,8,-1
273 682 m 1,12,-1
 273 750 l 1,13,-1
 341 750 l 1,14,-1
 341 682 l 1,15,-1
 273 682 l 1,12,-1
136 819 m 1,16,-1
 136 887 l 1,17,-1
 204 887 l 1,18,-1
 204 819 l 1,19,-1
 136 819 l 1,16,-1
273 819 m 1,20,-1
 273 887 l 1,21,-1
 341 887 l 1,22,-1
 341 819 l 1,23,-1
 273 819 l 1,20,-1
273 955 m 1,24,-1
 273 1024 l 1,25,-1
 341 1024 l 1,26,-1
 341 955 l 1,27,-1
 273 955 l 1,24,-1
0 1092 m 1,28,-1
 0 1160 l 1,29,-1
 68 1160 l 1,30,-1
 68 1092 l 1,31,-1
 0 1092 l 1,28,-1
136 1092 m 1,32,-1
 136 1160 l 1,33,-1
 204 1160 l 1,34,-1
 204 1092 l 1,35,-1
 136 1092 l 1,32,-1
EndSplineSet
Validated: 1
EndChar

StartChar: guillemotleft
Encoding: 171 171 106
Width: 955
Flags: W
LayerCount: 2
Fore
SplineSet
273 136 m 1,0,-1
 273 204 l 1,1,-1
 341 204 l 1,2,-1
 341 136 l 1,3,-1
 273 136 l 1,0,-1
682 136 m 1,4,-1
 682 204 l 1,5,-1
 750 204 l 1,6,-1
 750 136 l 1,7,-1
 682 136 l 1,4,-1
136 273 m 1,8,-1
 136 341 l 1,9,-1
 204 341 l 1,10,-1
 204 273 l 1,11,-1
 136 273 l 1,8,-1
546 273 m 1,12,-1
 546 341 l 1,13,-1
 614 341 l 1,14,-1
 614 273 l 1,15,-1
 546 273 l 1,12,-1
0 409 m 1,16,-1
 0 477 l 1,17,-1
 68 477 l 1,18,-1
 68 409 l 1,19,-1
 0 409 l 1,16,-1
409 409 m 1,20,-1
 409 477 l 1,21,-1
 477 477 l 1,22,-1
 477 409 l 1,23,-1
 409 409 l 1,20,-1
136 546 m 1,24,-1
 136 614 l 1,25,-1
 204 614 l 1,26,-1
 204 546 l 1,27,-1
 136 546 l 1,24,-1
546 546 m 1,28,-1
 546 614 l 1,29,-1
 614 614 l 1,30,-1
 614 546 l 1,31,-1
 546 546 l 1,28,-1
273 682 m 1,32,-1
 273 750 l 1,33,-1
 341 750 l 1,34,-1
 341 682 l 1,35,-1
 273 682 l 1,32,-1
682 682 m 1,36,-1
 682 750 l 1,37,-1
 750 750 l 1,38,-1
 750 682 l 1,39,-1
 682 682 l 1,36,-1
EndSplineSet
Validated: 1
EndChar

StartChar: logicalnot
Encoding: 172 172 107
Width: 1092
Flags: W
LayerCount: 2
Fore
SplineSet
819 409 m 1,0,-1
 819 477 l 1,1,-1
 887 477 l 1,2,-1
 887 409 l 1,3,-1
 819 409 l 1,0,-1
0 546 m 1,4,-1
 0 614 l 1,5,-1
 68 614 l 1,6,-1
 68 546 l 1,7,-1
 0 546 l 1,4,-1
136 546 m 1,8,-1
 136 614 l 1,9,-1
 204 614 l 1,10,-1
 204 546 l 1,11,-1
 136 546 l 1,8,-1
273 546 m 1,12,-1
 273 614 l 1,13,-1
 341 614 l 1,14,-1
 341 546 l 1,15,-1
 273 546 l 1,12,-1
409 546 m 1,16,-1
 409 614 l 1,17,-1
 477 614 l 1,18,-1
 477 546 l 1,19,-1
 409 546 l 1,16,-1
546 546 m 1,20,-1
 546 614 l 1,21,-1
 614 614 l 1,22,-1
 614 546 l 1,23,-1
 546 546 l 1,20,-1
682 546 m 1,24,-1
 682 614 l 1,25,-1
 750 614 l 1,26,-1
 750 546 l 1,27,-1
 682 546 l 1,24,-1
819 546 m 1,28,-1
 819 614 l 1,29,-1
 887 614 l 1,30,-1
 887 546 l 1,31,-1
 819 546 l 1,28,-1
EndSplineSet
Validated: 1
EndChar

StartChar: uni00AD
Encoding: 173 173 108
Width: 546
Flags: W
LayerCount: 2
Fore
SplineSet
0 409 m 1,0,-1
 0 477 l 1,1,-1
 68 477 l 1,2,-1
 68 409 l 1,3,-1
 0 409 l 1,0,-1
136 409 m 1,4,-1
 136 477 l 1,5,-1
 204 477 l 1,6,-1
 204 409 l 1,7,-1
 136 409 l 1,4,-1
273 409 m 1,8,-1
 273 477 l 1,9,-1
 341 477 l 1,10,-1
 341 409 l 1,11,-1
 273 409 l 1,8,-1
EndSplineSet
Validated: 1
EndChar

StartChar: registered
Encoding: 174 174 109
Width: 1228
Flags: W
LayerCount: 2
Fore
SplineSet
273 0 m 1,0,-1
 273 68 l 1,1,-1
 341 68 l 1,2,-1
 341 0 l 1,3,-1
 273 0 l 1,0,-1
409 0 m 1,4,-1
 409 68 l 1,5,-1
 477 68 l 1,6,-1
 477 0 l 1,7,-1
 409 0 l 1,4,-1
546 0 m 1,8,-1
 546 68 l 1,9,-1
 614 68 l 1,10,-1
 614 0 l 1,11,-1
 546 0 l 1,8,-1
682 0 m 1,12,-1
 682 68 l 1,13,-1
 750 68 l 1,14,-1
 750 0 l 1,15,-1
 682 0 l 1,12,-1
136 136 m 1,16,-1
 136 204 l 1,17,-1
 204 204 l 1,18,-1
 204 136 l 1,19,-1
 136 136 l 1,16,-1
819 136 m 1,20,-1
 819 204 l 1,21,-1
 887 204 l 1,22,-1
 887 136 l 1,23,-1
 819 136 l 1,20,-1
0 273 m 1,24,-1
 0 341 l 1,25,-1
 68 341 l 1,26,-1
 68 273 l 1,27,-1
 0 273 l 1,24,-1
273 273 m 1,28,-1
 273 341 l 1,29,-1
 341 341 l 1,30,-1
 341 273 l 1,31,-1
 273 273 l 1,28,-1
682 273 m 1,32,-1
 682 341 l 1,33,-1
 750 341 l 1,34,-1
 750 273 l 1,35,-1
 682 273 l 1,32,-1
955 273 m 1,36,-1
 955 341 l 1,37,-1
 1024 341 l 1,38,-1
 1024 273 l 1,39,-1
 955 273 l 1,36,-1
0 409 m 1,40,-1
 0 477 l 1,41,-1
 68 477 l 1,42,-1
 68 409 l 1,43,-1
 0 409 l 1,40,-1
273 409 m 1,44,-1
 273 477 l 1,45,-1
 341 477 l 1,46,-1
 341 409 l 1,47,-1
 273 409 l 1,44,-1
409 409 m 1,48,-1
 409 477 l 1,49,-1
 477 477 l 1,50,-1
 477 409 l 1,51,-1
 409 409 l 1,48,-1
546 409 m 1,52,-1
 546 477 l 1,53,-1
 614 477 l 1,54,-1
 614 409 l 1,55,-1
 546 409 l 1,52,-1
955 409 m 1,56,-1
 955 477 l 1,57,-1
 1024 477 l 1,58,-1
 1024 409 l 1,59,-1
 955 409 l 1,56,-1
0 546 m 1,60,-1
 0 614 l 1,61,-1
 68 614 l 1,62,-1
 68 546 l 1,63,-1
 0 546 l 1,60,-1
273 546 m 1,64,-1
 273 614 l 1,65,-1
 341 614 l 1,66,-1
 341 546 l 1,67,-1
 273 546 l 1,64,-1
682 546 m 1,68,-1
 682 614 l 1,69,-1
 750 614 l 1,70,-1
 750 546 l 1,71,-1
 682 546 l 1,68,-1
955 546 m 1,72,-1
 955 614 l 1,73,-1
 1024 614 l 1,74,-1
 1024 546 l 1,75,-1
 955 546 l 1,72,-1
0 682 m 1,76,-1
 0 750 l 1,77,-1
 68 750 l 1,78,-1
 68 682 l 1,79,-1
 0 682 l 1,76,-1
273 682 m 1,80,-1
 273 750 l 1,81,-1
 341 750 l 1,82,-1
 341 682 l 1,83,-1
 273 682 l 1,80,-1
409 682 m 1,84,-1
 409 750 l 1,85,-1
 477 750 l 1,86,-1
 477 682 l 1,87,-1
 409 682 l 1,84,-1
546 682 m 1,88,-1
 546 750 l 1,89,-1
 614 750 l 1,90,-1
 614 682 l 1,91,-1
 546 682 l 1,88,-1
955 682 m 1,92,-1
 955 750 l 1,93,-1
 1024 750 l 1,94,-1
 1024 682 l 1,95,-1
 955 682 l 1,92,-1
136 819 m 1,96,-1
 136 887 l 1,97,-1
 204 887 l 1,98,-1
 204 819 l 1,99,-1
 136 819 l 1,96,-1
819 819 m 1,100,-1
 819 887 l 1,101,-1
 887 887 l 1,102,-1
 887 819 l 1,103,-1
 819 819 l 1,100,-1
273 955 m 1,104,-1
 273 1024 l 1,105,-1
 341 1024 l 1,106,-1
 341 955 l 1,107,-1
 273 955 l 1,104,-1
409 955 m 1,108,-1
 409 1024 l 1,109,-1
 477 1024 l 1,110,-1
 477 955 l 1,111,-1
 409 955 l 1,108,-1
546 955 m 1,112,-1
 546 1024 l 1,113,-1
 614 1024 l 1,114,-1
 614 955 l 1,115,-1
 546 955 l 1,112,-1
682 955 m 1,116,-1
 682 1024 l 1,117,-1
 750 1024 l 1,118,-1
 750 955 l 1,119,-1
 682 955 l 1,116,-1
EndSplineSet
Validated: 1
EndChar

StartChar: macron
Encoding: 175 175 110
Width: 682
Flags: W
LayerCount: 2
Fore
SplineSet
0 955 m 1,0,-1
 0 1024 l 1,1,-1
 68 1024 l 1,2,-1
 68 955 l 1,3,-1
 0 955 l 1,0,-1
136 955 m 1,4,-1
 136 1024 l 1,5,-1
 204 1024 l 1,6,-1
 204 955 l 1,7,-1
 136 955 l 1,4,-1
273 955 m 1,8,-1
 273 1024 l 1,9,-1
 341 1024 l 1,10,-1
 341 955 l 1,11,-1
 273 955 l 1,8,-1
409 955 m 1,12,-1
 409 1024 l 1,13,-1
 477 1024 l 1,14,-1
 477 955 l 1,15,-1
 409 955 l 1,12,-1
EndSplineSet
Validated: 1
EndChar

StartChar: degree
Encoding: 176 176 111
Width: 682
Flags: W
LayerCount: 2
Fore
SplineSet
136 682 m 1,0,-1
 136 750 l 1,1,-1
 204 750 l 1,2,-1
 204 682 l 1,3,-1
 136 682 l 1,0,-1
273 682 m 1,4,-1
 273 750 l 1,5,-1
 341 750 l 1,6,-1
 341 682 l 1,7,-1
 273 682 l 1,4,-1
0 819 m 1,8,-1
 0 887 l 1,9,-1
 68 887 l 1,10,-1
 68 819 l 1,11,-1
 0 819 l 1,8,-1
409 819 m 1,12,-1
 409 887 l 1,13,-1
 477 887 l 1,14,-1
 477 819 l 1,15,-1
 409 819 l 1,12,-1
0 955 m 1,16,-1
 0 1024 l 1,17,-1
 68 1024 l 1,18,-1
 68 955 l 1,19,-1
 0 955 l 1,16,-1
409 955 m 1,20,-1
 409 1024 l 1,21,-1
 477 1024 l 1,22,-1
 477 955 l 1,23,-1
 409 955 l 1,20,-1
136 1092 m 1,24,-1
 136 1160 l 1,25,-1
 204 1160 l 1,26,-1
 204 1092 l 1,27,-1
 136 1092 l 1,24,-1
273 1092 m 1,28,-1
 273 1160 l 1,29,-1
 341 1160 l 1,30,-1
 341 1092 l 1,31,-1
 273 1092 l 1,28,-1
EndSplineSet
Validated: 1
EndChar

StartChar: plusminus
Encoding: 177 177 112
Width: 819
Flags: W
LayerCount: 2
Fore
SplineSet
0 -136 m 1,0,-1
 0 -68 l 1,1,-1
 68 -68 l 1,2,-1
 68 -136 l 1,3,-1
 0 -136 l 1,0,-1
136 -136 m 1,4,-1
 136 -68 l 1,5,-1
 204 -68 l 1,6,-1
 204 -136 l 1,7,-1
 136 -136 l 1,4,-1
273 -136 m 1,8,-1
 273 -68 l 1,9,-1
 341 -68 l 1,10,-1
 341 -136 l 1,11,-1
 273 -136 l 1,8,-1
409 -136 m 1,12,-1
 409 -68 l 1,13,-1
 477 -68 l 1,14,-1
 477 -136 l 1,15,-1
 409 -136 l 1,12,-1
546 -136 m 1,16,-1
 546 -68 l 1,17,-1
 614 -68 l 1,18,-1
 614 -136 l 1,19,-1
 546 -136 l 1,16,-1
273 136 m 1,20,-1
 273 204 l 1,21,-1
 341 204 l 1,22,-1
 341 136 l 1,23,-1
 273 136 l 1,20,-1
273 273 m 1,24,-1
 273 341 l 1,25,-1
 341 341 l 1,26,-1
 341 273 l 1,27,-1
 273 273 l 1,24,-1
0 409 m 1,28,-1
 0 477 l 1,29,-1
 68 477 l 1,30,-1
 68 409 l 1,31,-1
 0 409 l 1,28,-1
136 409 m 1,32,-1
 136 477 l 1,33,-1
 204 477 l 1,34,-1
 204 409 l 1,35,-1
 136 409 l 1,32,-1
273 409 m 1,36,-1
 273 477 l 1,37,-1
 341 477 l 1,38,-1
 341 409 l 1,39,-1
 273 409 l 1,36,-1
409 409 m 1,40,-1
 409 477 l 1,41,-1
 477 477 l 1,42,-1
 477 409 l 1,43,-1
 409 409 l 1,40,-1
546 409 m 1,44,-1
 546 477 l 1,45,-1
 614 477 l 1,46,-1
 614 409 l 1,47,-1
 546 409 l 1,44,-1
273 546 m 1,48,-1
 273 614 l 1,49,-1
 341 614 l 1,50,-1
 341 546 l 1,51,-1
 273 546 l 1,48,-1
273 682 m 1,52,-1
 273 750 l 1,53,-1
 341 750 l 1,54,-1
 341 682 l 1,55,-1
 273 682 l 1,52,-1
EndSplineSet
Validated: 1
EndChar

StartChar: uni00B2
Encoding: 178 178 113
Width: 546
Flags: W
LayerCount: 2
Fore
SplineSet
0 546 m 1,0,-1
 0 614 l 1,1,-1
 68 614 l 1,2,-1
 68 546 l 1,3,-1
 0 546 l 1,0,-1
136 546 m 1,4,-1
 136 614 l 1,5,-1
 204 614 l 1,6,-1
 204 546 l 1,7,-1
 136 546 l 1,4,-1
273 546 m 1,8,-1
 273 614 l 1,9,-1
 341 614 l 1,10,-1
 341 546 l 1,11,-1
 273 546 l 1,8,-1
0 682 m 1,12,-1
 0 750 l 1,13,-1
 68 750 l 1,14,-1
 68 682 l 1,15,-1
 0 682 l 1,12,-1
136 819 m 1,16,-1
 136 887 l 1,17,-1
 204 887 l 1,18,-1
 204 819 l 1,19,-1
 136 819 l 1,16,-1
273 955 m 1,20,-1
 273 1024 l 1,21,-1
 341 1024 l 1,22,-1
 341 955 l 1,23,-1
 273 955 l 1,20,-1
0 1092 m 1,24,-1
 0 1160 l 1,25,-1
 68 1160 l 1,26,-1
 68 1092 l 1,27,-1
 0 1092 l 1,24,-1
136 1092 m 1,28,-1
 136 1160 l 1,29,-1
 204 1160 l 1,30,-1
 204 1092 l 1,31,-1
 136 1092 l 1,28,-1
EndSplineSet
Validated: 1
EndChar

StartChar: uni00B3
Encoding: 179 179 114
Width: 546
Flags: W
LayerCount: 2
Fore
SplineSet
0 546 m 1,0,-1
 0 614 l 1,1,-1
 68 614 l 1,2,-1
 68 546 l 1,3,-1
 0 546 l 1,0,-1
136 546 m 1,4,-1
 136 614 l 1,5,-1
 204 614 l 1,6,-1
 204 546 l 1,7,-1
 136 546 l 1,4,-1
273 682 m 1,8,-1
 273 750 l 1,9,-1
 341 750 l 1,10,-1
 341 682 l 1,11,-1
 273 682 l 1,8,-1
136 819 m 1,12,-1
 136 887 l 1,13,-1
 204 887 l 1,14,-1
 204 819 l 1,15,-1
 136 819 l 1,12,-1
273 955 m 1,16,-1
 273 1024 l 1,17,-1
 341 1024 l 1,18,-1
 341 955 l 1,19,-1
 273 955 l 1,16,-1
0 1092 m 1,20,-1
 0 1160 l 1,21,-1
 68 1160 l 1,22,-1
 68 1092 l 1,23,-1
 0 1092 l 1,20,-1
136 1092 m 1,24,-1
 136 1160 l 1,25,-1
 204 1160 l 1,26,-1
 204 1092 l 1,27,-1
 136 1092 l 1,24,-1
EndSplineSet
Validated: 1
EndChar

StartChar: acute
Encoding: 180 180 115
Width: 409
Flags: W
LayerCount: 2
Fore
SplineSet
0 955 m 1,0,-1
 0 1024 l 1,1,-1
 68 1024 l 1,2,-1
 68 955 l 1,3,-1
 0 955 l 1,0,-1
136 1092 m 1,4,-1
 136 1160 l 1,5,-1
 204 1160 l 1,6,-1
 204 1092 l 1,7,-1
 136 1092 l 1,4,-1
EndSplineSet
Validated: 1
EndChar

StartChar: mu
Encoding: 181 181 116
Width: 819
Flags: W
LayerCount: 2
Fore
SplineSet
0 -273 m 1,0,-1
 0 -204 l 1,1,-1
 68 -204 l 1,2,-1
 68 -273 l 1,3,-1
 0 -273 l 1,0,-1
0 -136 m 1,4,-1
 0 -68 l 1,5,-1
 68 -68 l 1,6,-1
 68 -136 l 1,7,-1
 0 -136 l 1,4,-1
0 0 m 1,8,-1
 0 68 l 1,9,-1
 68 68 l 1,10,-1
 68 0 l 1,11,-1
 0 0 l 1,8,-1
136 0 m 1,12,-1
 136 68 l 1,13,-1
 204 68 l 1,14,-1
 204 0 l 1,15,-1
 136 0 l 1,12,-1
273 0 m 1,16,-1
 273 68 l 1,17,-1
 341 68 l 1,18,-1
 341 0 l 1,19,-1
 273 0 l 1,16,-1
546 0 m 1,20,-1
 546 68 l 1,21,-1
 614 68 l 1,22,-1
 614 0 l 1,23,-1
 546 0 l 1,20,-1
0 136 m 1,24,-1
 0 204 l 1,25,-1
 68 204 l 1,26,-1
 68 136 l 1,27,-1
 0 136 l 1,24,-1
409 136 m 1,28,-1
 409 204 l 1,29,-1
 477 204 l 1,30,-1
 477 136 l 1,31,-1
 409 136 l 1,28,-1
546 136 m 1,32,-1
 546 204 l 1,33,-1
 614 204 l 1,34,-1
 614 136 l 1,35,-1
 546 136 l 1,32,-1
0 273 m 1,36,-1
 0 341 l 1,37,-1
 68 341 l 1,38,-1
 68 273 l 1,39,-1
 0 273 l 1,36,-1
546 273 m 1,40,-1
 546 341 l 1,41,-1
 614 341 l 1,42,-1
 614 273 l 1,43,-1
 546 273 l 1,40,-1
0 409 m 1,44,-1
 0 477 l 1,45,-1
 68 477 l 1,46,-1
 68 409 l 1,47,-1
 0 409 l 1,44,-1
546 409 m 1,48,-1
 546 477 l 1,49,-1
 614 477 l 1,50,-1
 614 409 l 1,51,-1
 546 409 l 1,48,-1
0 546 m 1,52,-1
 0 614 l 1,53,-1
 68 614 l 1,54,-1
 68 546 l 1,55,-1
 0 546 l 1,52,-1
546 546 m 1,56,-1
 546 614 l 1,57,-1
 614 614 l 1,58,-1
 614 546 l 1,59,-1
 546 546 l 1,56,-1
0 682 m 1,60,-1
 0 750 l 1,61,-1
 68 750 l 1,62,-1
 68 682 l 1,63,-1
 0 682 l 1,60,-1
546 682 m 1,64,-1
 546 750 l 1,65,-1
 614 750 l 1,66,-1
 614 682 l 1,67,-1
 546 682 l 1,64,-1
0 819 m 1,68,-1
 0 887 l 1,69,-1
 68 887 l 1,70,-1
 68 819 l 1,71,-1
 0 819 l 1,68,-1
546 819 m 1,72,-1
 546 887 l 1,73,-1
 614 887 l 1,74,-1
 614 819 l 1,75,-1
 546 819 l 1,72,-1
EndSplineSet
Validated: 1
EndChar

StartChar: paragraph
Encoding: 182 182 117
Width: 819
Flags: W
LayerCount: 2
Fore
SplineSet
273 0 m 1,0,-1
 273 68 l 1,1,-1
 341 68 l 1,2,-1
 341 0 l 1,3,-1
 273 0 l 1,0,-1
546 0 m 1,4,-1
 546 68 l 1,5,-1
 614 68 l 1,6,-1
 614 0 l 1,7,-1
 546 0 l 1,4,-1
273 136 m 1,8,-1
 273 204 l 1,9,-1
 341 204 l 1,10,-1
 341 136 l 1,11,-1
 273 136 l 1,8,-1
546 136 m 1,12,-1
 546 204 l 1,13,-1
 614 204 l 1,14,-1
 614 136 l 1,15,-1
 546 136 l 1,12,-1
273 273 m 1,16,-1
 273 341 l 1,17,-1
 341 341 l 1,18,-1
 341 273 l 1,19,-1
 273 273 l 1,16,-1
546 273 m 1,20,-1
 546 341 l 1,21,-1
 614 341 l 1,22,-1
 614 273 l 1,23,-1
 546 273 l 1,20,-1
273 409 m 1,24,-1
 273 477 l 1,25,-1
 341 477 l 1,26,-1
 341 409 l 1,27,-1
 273 409 l 1,24,-1
546 409 m 1,28,-1
 546 477 l 1,29,-1
 614 477 l 1,30,-1
 614 409 l 1,31,-1
 546 409 l 1,28,-1
136 546 m 1,32,-1
 136 614 l 1,33,-1
 204 614 l 1,34,-1
 204 546 l 1,35,-1
 136 546 l 1,32,-1
273 546 m 1,36,-1
 273 614 l 1,37,-1
 341 614 l 1,38,-1
 341 546 l 1,39,-1
 273 546 l 1,36,-1
546 546 m 1,40,-1
 546 614 l 1,41,-1
 614 614 l 1,42,-1
 614 546 l 1,43,-1
 546 546 l 1,40,-1
0 682 m 1,44,-1
 0 750 l 1,45,-1
 68 750 l 1,46,-1
 68 682 l 1,47,-1
 0 682 l 1,44,-1
136 682 m 1,48,-1
 136 750 l 1,49,-1
 204 750 l 1,50,-1
 204 682 l 1,51,-1
 136 682 l 1,48,-1
273 682 m 1,52,-1
 273 750 l 1,53,-1
 341 750 l 1,54,-1
 341 682 l 1,55,-1
 273 682 l 1,52,-1
546 682 m 1,56,-1
 546 750 l 1,57,-1
 614 750 l 1,58,-1
 614 682 l 1,59,-1
 546 682 l 1,56,-1
0 819 m 1,60,-1
 0 887 l 1,61,-1
 68 887 l 1,62,-1
 68 819 l 1,63,-1
 0 819 l 1,60,-1
136 819 m 1,64,-1
 136 887 l 1,65,-1
 204 887 l 1,66,-1
 204 819 l 1,67,-1
 136 819 l 1,64,-1
273 819 m 1,68,-1
 273 887 l 1,69,-1
 341 887 l 1,70,-1
 341 819 l 1,71,-1
 273 819 l 1,68,-1
546 819 m 1,72,-1
 546 887 l 1,73,-1
 614 887 l 1,74,-1
 614 819 l 1,75,-1
 546 819 l 1,72,-1
0 955 m 1,76,-1
 0 1024 l 1,77,-1
 68 1024 l 1,78,-1
 68 955 l 1,79,-1
 0 955 l 1,76,-1
136 955 m 1,80,-1
 136 1024 l 1,81,-1
 204 1024 l 1,82,-1
 204 955 l 1,83,-1
 136 955 l 1,80,-1
273 955 m 1,84,-1
 273 1024 l 1,85,-1
 341 1024 l 1,86,-1
 341 955 l 1,87,-1
 273 955 l 1,84,-1
546 955 m 1,88,-1
 546 1024 l 1,89,-1
 614 1024 l 1,90,-1
 614 955 l 1,91,-1
 546 955 l 1,88,-1
136 1092 m 1,92,-1
 136 1160 l 1,93,-1
 204 1160 l 1,94,-1
 204 1092 l 1,95,-1
 136 1092 l 1,92,-1
273 1092 m 1,96,-1
 273 1160 l 1,97,-1
 341 1160 l 1,98,-1
 341 1092 l 1,99,-1
 273 1092 l 1,96,-1
409 1092 m 1,100,-1
 409 1160 l 1,101,-1
 477 1160 l 1,102,-1
 477 1092 l 1,103,-1
 409 1092 l 1,100,-1
546 1092 m 1,104,-1
 546 1160 l 1,105,-1
 614 1160 l 1,106,-1
 614 1092 l 1,107,-1
 546 1092 l 1,104,-1
EndSplineSet
Validated: 1
EndChar

StartChar: periodcentered
Encoding: 183 183 118
Width: 273
Flags: W
LayerCount: 2
Fore
SplineSet
0 409 m 1,0,-1
 0 477 l 1,1,-1
 68 477 l 1,2,-1
 68 409 l 1,3,-1
 0 409 l 1,0,-1
EndSplineSet
Validated: 1
EndChar

StartChar: cedilla
Encoding: 184 184 119
Width: 409
Flags: W
LayerCount: 2
Fore
SplineSet
0 -409 m 1,0,-1
 0 -341 l 1,1,-1
 68 -341 l 1,2,-1
 68 -409 l 1,3,-1
 0 -409 l 1,0,-1
136 -273 m 1,4,-1
 136 -204 l 1,5,-1
 204 -204 l 1,6,-1
 204 -273 l 1,7,-1
 136 -273 l 1,4,-1
0 -136 m 1,8,-1
 0 -68 l 1,9,-1
 68 -68 l 1,10,-1
 68 -136 l 1,11,-1
 0 -136 l 1,8,-1
EndSplineSet
Validated: 1
EndChar

StartChar: uni00B9
Encoding: 185 185 120
Width: 546
Flags: W
LayerCount: 2
Fore
SplineSet
0 546 m 1,0,-1
 0 614 l 1,1,-1
 68 614 l 1,2,-1
 68 546 l 1,3,-1
 0 546 l 1,0,-1
136 546 m 1,4,-1
 136 614 l 1,5,-1
 204 614 l 1,6,-1
 204 546 l 1,7,-1
 136 546 l 1,4,-1
273 546 m 1,8,-1
 273 614 l 1,9,-1
 341 614 l 1,10,-1
 341 546 l 1,11,-1
 273 546 l 1,8,-1
136 682 m 1,12,-1
 136 750 l 1,13,-1
 204 750 l 1,14,-1
 204 682 l 1,15,-1
 136 682 l 1,12,-1
136 819 m 1,16,-1
 136 887 l 1,17,-1
 204 887 l 1,18,-1
 204 819 l 1,19,-1
 136 819 l 1,16,-1
136 955 m 1,20,-1
 136 1024 l 1,21,-1
 204 1024 l 1,22,-1
 204 955 l 1,23,-1
 136 955 l 1,20,-1
0 1092 m 1,24,-1
 0 1160 l 1,25,-1
 68 1160 l 1,26,-1
 68 1092 l 1,27,-1
 0 1092 l 1,24,-1
136 1092 m 1,28,-1
 136 1160 l 1,29,-1
 204 1160 l 1,30,-1
 204 1092 l 1,31,-1
 136 1092 l 1,28,-1
EndSplineSet
Validated: 1
EndChar

StartChar: ordmasculine
Encoding: 186 186 121
Width: 682
Flags: W
LayerCount: 2
Fore
SplineSet
136 546 m 1,0,-1
 136 614 l 1,1,-1
 204 614 l 1,2,-1
 204 546 l 1,3,-1
 136 546 l 1,0,-1
273 546 m 1,4,-1
 273 614 l 1,5,-1
 341 614 l 1,6,-1
 341 546 l 1,7,-1
 273 546 l 1,4,-1
0 682 m 1,8,-1
 0 750 l 1,9,-1
 68 750 l 1,10,-1
 68 682 l 1,11,-1
 0 682 l 1,8,-1
409 682 m 1,12,-1
 409 750 l 1,13,-1
 477 750 l 1,14,-1
 477 682 l 1,15,-1
 409 682 l 1,12,-1
0 819 m 1,16,-1
 0 887 l 1,17,-1
 68 887 l 1,18,-1
 68 819 l 1,19,-1
 0 819 l 1,16,-1
409 819 m 1,20,-1
 409 887 l 1,21,-1
 477 887 l 1,22,-1
 477 819 l 1,23,-1
 409 819 l 1,20,-1
0 955 m 1,24,-1
 0 1024 l 1,25,-1
 68 1024 l 1,26,-1
 68 955 l 1,27,-1
 0 955 l 1,24,-1
409 955 m 1,28,-1
 409 1024 l 1,29,-1
 477 1024 l 1,30,-1
 477 955 l 1,31,-1
 409 955 l 1,28,-1
136 1092 m 1,32,-1
 136 1160 l 1,33,-1
 204 1160 l 1,34,-1
 204 1092 l 1,35,-1
 136 1092 l 1,32,-1
273 1092 m 1,36,-1
 273 1160 l 1,37,-1
 341 1160 l 1,38,-1
 341 1092 l 1,39,-1
 273 1092 l 1,36,-1
EndSplineSet
Validated: 1
EndChar

StartChar: guillemotright
Encoding: 187 187 122
Width: 955
Flags: W
LayerCount: 2
Fore
SplineSet
0 136 m 1,0,-1
 0 204 l 1,1,-1
 68 204 l 1,2,-1
 68 136 l 1,3,-1
 0 136 l 1,0,-1
409 136 m 1,4,-1
 409 204 l 1,5,-1
 477 204 l 1,6,-1
 477 136 l 1,7,-1
 409 136 l 1,4,-1
136 273 m 1,8,-1
 136 341 l 1,9,-1
 204 341 l 1,10,-1
 204 273 l 1,11,-1
 136 273 l 1,8,-1
546 273 m 1,12,-1
 546 341 l 1,13,-1
 614 341 l 1,14,-1
 614 273 l 1,15,-1
 546 273 l 1,12,-1
273 409 m 1,16,-1
 273 477 l 1,17,-1
 341 477 l 1,18,-1
 341 409 l 1,19,-1
 273 409 l 1,16,-1
682 409 m 1,20,-1
 682 477 l 1,21,-1
 750 477 l 1,22,-1
 750 409 l 1,23,-1
 682 409 l 1,20,-1
136 546 m 1,24,-1
 136 614 l 1,25,-1
 204 614 l 1,26,-1
 204 546 l 1,27,-1
 136 546 l 1,24,-1
546 546 m 1,28,-1
 546 614 l 1,29,-1
 614 614 l 1,30,-1
 614 546 l 1,31,-1
 546 546 l 1,28,-1
0 682 m 1,32,-1
 0 750 l 1,33,-1
 68 750 l 1,34,-1
 68 682 l 1,35,-1
 0 682 l 1,32,-1
409 682 m 1,36,-1
 409 750 l 1,37,-1
 477 750 l 1,38,-1
 477 682 l 1,39,-1
 409 682 l 1,36,-1
EndSplineSet
Validated: 1
EndChar

StartChar: onequarter
Encoding: 188 188 123
Width: 1092
Flags: W
LayerCount: 2
Fore
SplineSet
136 0 m 1,0,-1
 136 68 l 1,1,-1
 204 68 l 1,2,-1
 204 0 l 1,3,-1
 136 0 l 1,0,-1
819 0 m 1,4,-1
 819 68 l 1,5,-1
 887 68 l 1,6,-1
 887 0 l 1,7,-1
 819 0 l 1,4,-1
136 136 m 1,8,-1
 136 204 l 1,9,-1
 204 204 l 1,10,-1
 204 136 l 1,11,-1
 136 136 l 1,8,-1
546 136 m 1,12,-1
 546 204 l 1,13,-1
 614 204 l 1,14,-1
 614 136 l 1,15,-1
 546 136 l 1,12,-1
682 136 m 1,16,-1
 682 204 l 1,17,-1
 750 204 l 1,18,-1
 750 136 l 1,19,-1
 682 136 l 1,16,-1
819 136 m 1,20,-1
 819 204 l 1,21,-1
 887 204 l 1,22,-1
 887 136 l 1,23,-1
 819 136 l 1,20,-1
273 273 m 1,24,-1
 273 341 l 1,25,-1
 341 341 l 1,26,-1
 341 273 l 1,27,-1
 273 273 l 1,24,-1
546 273 m 1,28,-1
 546 341 l 1,29,-1
 614 341 l 1,30,-1
 614 273 l 1,31,-1
 546 273 l 1,28,-1
819 273 m 1,32,-1
 819 341 l 1,33,-1
 887 341 l 1,34,-1
 887 273 l 1,35,-1
 819 273 l 1,32,-1
273 409 m 1,36,-1
 273 477 l 1,37,-1
 341 477 l 1,38,-1
 341 409 l 1,39,-1
 273 409 l 1,36,-1
546 409 m 1,40,-1
 546 477 l 1,41,-1
 614 477 l 1,42,-1
 614 409 l 1,43,-1
 546 409 l 1,40,-1
819 409 m 1,44,-1
 819 477 l 1,45,-1
 887 477 l 1,46,-1
 887 409 l 1,47,-1
 819 409 l 1,44,-1
409 546 m 1,48,-1
 409 614 l 1,49,-1
 477 614 l 1,50,-1
 477 546 l 1,51,-1
 409 546 l 1,48,-1
0 682 m 1,52,-1
 0 750 l 1,53,-1
 68 750 l 1,54,-1
 68 682 l 1,55,-1
 0 682 l 1,52,-1
136 682 m 1,56,-1
 136 750 l 1,57,-1
 204 750 l 1,58,-1
 204 682 l 1,59,-1
 136 682 l 1,56,-1
273 682 m 1,60,-1
 273 750 l 1,61,-1
 341 750 l 1,62,-1
 341 682 l 1,63,-1
 273 682 l 1,60,-1
546 682 m 1,64,-1
 546 750 l 1,65,-1
 614 750 l 1,66,-1
 614 682 l 1,67,-1
 546 682 l 1,64,-1
136 819 m 1,68,-1
 136 887 l 1,69,-1
 204 887 l 1,70,-1
 204 819 l 1,71,-1
 136 819 l 1,68,-1
546 819 m 1,72,-1
 546 887 l 1,73,-1
 614 887 l 1,74,-1
 614 819 l 1,75,-1
 546 819 l 1,72,-1
136 955 m 1,76,-1
 136 1024 l 1,77,-1
 204 1024 l 1,78,-1
 204 955 l 1,79,-1
 136 955 l 1,76,-1
682 955 m 1,80,-1
 682 1024 l 1,81,-1
 750 1024 l 1,82,-1
 750 955 l 1,83,-1
 682 955 l 1,80,-1
0 1092 m 1,84,-1
 0 1160 l 1,85,-1
 68 1160 l 1,86,-1
 68 1092 l 1,87,-1
 0 1092 l 1,84,-1
136 1092 m 1,88,-1
 136 1160 l 1,89,-1
 204 1160 l 1,90,-1
 204 1092 l 1,91,-1
 136 1092 l 1,88,-1
682 1092 m 1,92,-1
 682 1160 l 1,93,-1
 750 1160 l 1,94,-1
 750 1092 l 1,95,-1
 682 1092 l 1,92,-1
EndSplineSet
Validated: 1
EndChar

StartChar: onehalf
Encoding: 189 189 124
Width: 1092
Flags: W
LayerCount: 2
Fore
SplineSet
136 0 m 1,0,-1
 136 68 l 1,1,-1
 204 68 l 1,2,-1
 204 0 l 1,3,-1
 136 0 l 1,0,-1
546 0 m 1,4,-1
 546 68 l 1,5,-1
 614 68 l 1,6,-1
 614 0 l 1,7,-1
 546 0 l 1,4,-1
682 0 m 1,8,-1
 682 68 l 1,9,-1
 750 68 l 1,10,-1
 750 0 l 1,11,-1
 682 0 l 1,8,-1
819 0 m 1,12,-1
 819 68 l 1,13,-1
 887 68 l 1,14,-1
 887 0 l 1,15,-1
 819 0 l 1,12,-1
136 136 m 1,16,-1
 136 204 l 1,17,-1
 204 204 l 1,18,-1
 204 136 l 1,19,-1
 136 136 l 1,16,-1
682 136 m 1,20,-1
 682 204 l 1,21,-1
 750 204 l 1,22,-1
 750 136 l 1,23,-1
 682 136 l 1,20,-1
273 273 m 1,24,-1
 273 341 l 1,25,-1
 341 341 l 1,26,-1
 341 273 l 1,27,-1
 273 273 l 1,24,-1
819 273 m 1,28,-1
 819 341 l 1,29,-1
 887 341 l 1,30,-1
 887 273 l 1,31,-1
 819 273 l 1,28,-1
273 409 m 1,32,-1
 273 477 l 1,33,-1
 341 477 l 1,34,-1
 341 409 l 1,35,-1
 273 409 l 1,32,-1
546 409 m 1,36,-1
 546 477 l 1,37,-1
 614 477 l 1,38,-1
 614 409 l 1,39,-1
 546 409 l 1,36,-1
682 409 m 1,40,-1
 682 477 l 1,41,-1
 750 477 l 1,42,-1
 750 409 l 1,43,-1
 682 409 l 1,40,-1
409 546 m 1,44,-1
 409 614 l 1,45,-1
 477 614 l 1,46,-1
 477 546 l 1,47,-1
 409 546 l 1,44,-1
0 682 m 1,48,-1
 0 750 l 1,49,-1
 68 750 l 1,50,-1
 68 682 l 1,51,-1
 0 682 l 1,48,-1
136 682 m 1,52,-1
 136 750 l 1,53,-1
 204 750 l 1,54,-1
 204 682 l 1,55,-1
 136 682 l 1,52,-1
273 682 m 1,56,-1
 273 750 l 1,57,-1
 341 750 l 1,58,-1
 341 682 l 1,59,-1
 273 682 l 1,56,-1
546 682 m 1,60,-1
 546 750 l 1,61,-1
 614 750 l 1,62,-1
 614 682 l 1,63,-1
 546 682 l 1,60,-1
136 819 m 1,64,-1
 136 887 l 1,65,-1
 204 887 l 1,66,-1
 204 819 l 1,67,-1
 136 819 l 1,64,-1
546 819 m 1,68,-1
 546 887 l 1,69,-1
 614 887 l 1,70,-1
 614 819 l 1,71,-1
 546 819 l 1,68,-1
136 955 m 1,72,-1
 136 1024 l 1,73,-1
 204 1024 l 1,74,-1
 204 955 l 1,75,-1
 136 955 l 1,72,-1
682 955 m 1,76,-1
 682 1024 l 1,77,-1
 750 1024 l 1,78,-1
 750 955 l 1,79,-1
 682 955 l 1,76,-1
0 1092 m 1,80,-1
 0 1160 l 1,81,-1
 68 1160 l 1,82,-1
 68 1092 l 1,83,-1
 0 1092 l 1,80,-1
136 1092 m 1,84,-1
 136 1160 l 1,85,-1
 204 1160 l 1,86,-1
 204 1092 l 1,87,-1
 136 1092 l 1,84,-1
682 1092 m 1,88,-1
 682 1160 l 1,89,-1
 750 1160 l 1,90,-1
 750 1092 l 1,91,-1
 682 1092 l 1,88,-1
EndSplineSet
Validated: 1
EndChar

StartChar: threequarters
Encoding: 190 190 125
Width: 1092
Flags: W
LayerCount: 2
Fore
SplineSet
136 0 m 1,0,-1
 136 68 l 1,1,-1
 204 68 l 1,2,-1
 204 0 l 1,3,-1
 136 0 l 1,0,-1
819 0 m 1,4,-1
 819 68 l 1,5,-1
 887 68 l 1,6,-1
 887 0 l 1,7,-1
 819 0 l 1,4,-1
136 136 m 1,8,-1
 136 204 l 1,9,-1
 204 204 l 1,10,-1
 204 136 l 1,11,-1
 136 136 l 1,8,-1
546 136 m 1,12,-1
 546 204 l 1,13,-1
 614 204 l 1,14,-1
 614 136 l 1,15,-1
 546 136 l 1,12,-1
682 136 m 1,16,-1
 682 204 l 1,17,-1
 750 204 l 1,18,-1
 750 136 l 1,19,-1
 682 136 l 1,16,-1
819 136 m 1,20,-1
 819 204 l 1,21,-1
 887 204 l 1,22,-1
 887 136 l 1,23,-1
 819 136 l 1,20,-1
273 273 m 1,24,-1
 273 341 l 1,25,-1
 341 341 l 1,26,-1
 341 273 l 1,27,-1
 273 273 l 1,24,-1
546 273 m 1,28,-1
 546 341 l 1,29,-1
 614 341 l 1,30,-1
 614 273 l 1,31,-1
 546 273 l 1,28,-1
819 273 m 1,32,-1
 819 341 l 1,33,-1
 887 341 l 1,34,-1
 887 273 l 1,35,-1
 819 273 l 1,32,-1
273 409 m 1,36,-1
 273 477 l 1,37,-1
 341 477 l 1,38,-1
 341 409 l 1,39,-1
 273 409 l 1,36,-1
546 409 m 1,40,-1
 546 477 l 1,41,-1
 614 477 l 1,42,-1
 614 409 l 1,43,-1
 546 409 l 1,40,-1
819 409 m 1,44,-1
 819 477 l 1,45,-1
 887 477 l 1,46,-1
 887 409 l 1,47,-1
 819 409 l 1,44,-1
409 546 m 1,48,-1
 409 614 l 1,49,-1
 477 614 l 1,50,-1
 477 546 l 1,51,-1
 409 546 l 1,48,-1
0 682 m 1,52,-1
 0 750 l 1,53,-1
 68 750 l 1,54,-1
 68 682 l 1,55,-1
 0 682 l 1,52,-1
136 682 m 1,56,-1
 136 750 l 1,57,-1
 204 750 l 1,58,-1
 204 682 l 1,59,-1
 136 682 l 1,56,-1
546 682 m 1,60,-1
 546 750 l 1,61,-1
 614 750 l 1,62,-1
 614 682 l 1,63,-1
 546 682 l 1,60,-1
273 819 m 1,64,-1
 273 887 l 1,65,-1
 341 887 l 1,66,-1
 341 819 l 1,67,-1
 273 819 l 1,64,-1
546 819 m 1,68,-1
 546 887 l 1,69,-1
 614 887 l 1,70,-1
 614 819 l 1,71,-1
 546 819 l 1,68,-1
136 955 m 1,72,-1
 136 1024 l 1,73,-1
 204 1024 l 1,74,-1
 204 955 l 1,75,-1
 136 955 l 1,72,-1
273 955 m 1,76,-1
 273 1024 l 1,77,-1
 341 1024 l 1,78,-1
 341 955 l 1,79,-1
 273 955 l 1,76,-1
682 955 m 1,80,-1
 682 1024 l 1,81,-1
 750 1024 l 1,82,-1
 750 955 l 1,83,-1
 682 955 l 1,80,-1
0 1092 m 1,84,-1
 0 1160 l 1,85,-1
 68 1160 l 1,86,-1
 68 1092 l 1,87,-1
 0 1092 l 1,84,-1
136 1092 m 1,88,-1
 136 1160 l 1,89,-1
 204 1160 l 1,90,-1
 204 1092 l 1,91,-1
 136 1092 l 1,88,-1
273 1092 m 1,92,-1
 273 1160 l 1,93,-1
 341 1160 l 1,94,-1
 341 1092 l 1,95,-1
 273 1092 l 1,92,-1
682 1092 m 1,96,-1
 682 1160 l 1,97,-1
 750 1160 l 1,98,-1
 750 1092 l 1,99,-1
 682 1092 l 1,96,-1
EndSplineSet
Validated: 1
EndChar

StartChar: questiondown
Encoding: 191 191 126
Width: 819
Flags: W
LayerCount: 2
Fore
SplineSet
136 -273 m 1,0,-1
 136 -204 l 1,1,-1
 204 -204 l 1,2,-1
 204 -273 l 1,3,-1
 136 -273 l 1,0,-1
273 -273 m 1,4,-1
 273 -204 l 1,5,-1
 341 -204 l 1,6,-1
 341 -273 l 1,7,-1
 273 -273 l 1,4,-1
409 -273 m 1,8,-1
 409 -204 l 1,9,-1
 477 -204 l 1,10,-1
 477 -273 l 1,11,-1
 409 -273 l 1,8,-1
0 -136 m 1,12,-1
 0 -68 l 1,13,-1
 68 -68 l 1,14,-1
 68 -136 l 1,15,-1
 0 -136 l 1,12,-1
546 -136 m 1,16,-1
 546 -68 l 1,17,-1
 614 -68 l 1,18,-1
 614 -136 l 1,19,-1
 546 -136 l 1,16,-1
0 0 m 1,20,-1
 0 68 l 1,21,-1
 68 68 l 1,22,-1
 68 0 l 1,23,-1
 0 0 l 1,20,-1
546 0 m 1,24,-1
 546 68 l 1,25,-1
 614 68 l 1,26,-1
 614 0 l 1,27,-1
 546 0 l 1,24,-1
0 136 m 1,28,-1
 0 204 l 1,29,-1
 68 204 l 1,30,-1
 68 136 l 1,31,-1
 0 136 l 1,28,-1
409 136 m 1,32,-1
 409 204 l 1,33,-1
 477 204 l 1,34,-1
 477 136 l 1,35,-1
 409 136 l 1,32,-1
136 273 m 1,36,-1
 136 341 l 1,37,-1
 204 341 l 1,38,-1
 204 273 l 1,39,-1
 136 273 l 1,36,-1
273 409 m 1,40,-1
 273 477 l 1,41,-1
 341 477 l 1,42,-1
 341 409 l 1,43,-1
 273 409 l 1,40,-1
273 546 m 1,44,-1
 273 614 l 1,45,-1
 341 614 l 1,46,-1
 341 546 l 1,47,-1
 273 546 l 1,44,-1
273 819 m 1,48,-1
 273 887 l 1,49,-1
 341 887 l 1,50,-1
 341 819 l 1,51,-1
 273 819 l 1,48,-1
EndSplineSet
Validated: 1
EndChar

StartChar: Agrave
Encoding: 192 192 127
Width: 1092
Flags: W
LayerCount: 2
Fore
SplineSet
0 0 m 1,0,-1
 0 68 l 1,1,-1
 68 68 l 1,2,-1
 68 0 l 1,3,-1
 0 0 l 1,0,-1
819 0 m 1,4,-1
 819 68 l 1,5,-1
 887 68 l 1,6,-1
 887 0 l 1,7,-1
 819 0 l 1,4,-1
0 136 m 1,8,-1
 0 204 l 1,9,-1
 68 204 l 1,10,-1
 68 136 l 1,11,-1
 0 136 l 1,8,-1
819 136 m 1,12,-1
 819 204 l 1,13,-1
 887 204 l 1,14,-1
 887 136 l 1,15,-1
 819 136 l 1,12,-1
0 273 m 1,16,-1
 0 341 l 1,17,-1
 68 341 l 1,18,-1
 68 273 l 1,19,-1
 0 273 l 1,16,-1
819 273 m 1,20,-1
 819 341 l 1,21,-1
 887 341 l 1,22,-1
 887 273 l 1,23,-1
 819 273 l 1,20,-1
136 409 m 1,24,-1
 136 477 l 1,25,-1
 204 477 l 1,26,-1
 204 409 l 1,27,-1
 136 409 l 1,24,-1
273 409 m 1,28,-1
 273 477 l 1,29,-1
 341 477 l 1,30,-1
 341 409 l 1,31,-1
 273 409 l 1,28,-1
409 409 m 1,32,-1
 409 477 l 1,33,-1
 477 477 l 1,34,-1
 477 409 l 1,35,-1
 409 409 l 1,32,-1
546 409 m 1,36,-1
 546 477 l 1,37,-1
 614 477 l 1,38,-1
 614 409 l 1,39,-1
 546 409 l 1,36,-1
682 409 m 1,40,-1
 682 477 l 1,41,-1
 750 477 l 1,42,-1
 750 409 l 1,43,-1
 682 409 l 1,40,-1
136 546 m 1,44,-1
 136 614 l 1,45,-1
 204 614 l 1,46,-1
 204 546 l 1,47,-1
 136 546 l 1,44,-1
682 546 m 1,48,-1
 682 614 l 1,49,-1
 750 614 l 1,50,-1
 750 546 l 1,51,-1
 682 546 l 1,48,-1
136 682 m 1,52,-1
 136 750 l 1,53,-1
 204 750 l 1,54,-1
 204 682 l 1,55,-1
 136 682 l 1,52,-1
682 682 m 1,56,-1
 682 750 l 1,57,-1
 750 750 l 1,58,-1
 750 682 l 1,59,-1
 682 682 l 1,56,-1
273 819 m 1,60,-1
 273 887 l 1,61,-1
 341 887 l 1,62,-1
 341 819 l 1,63,-1
 273 819 l 1,60,-1
546 819 m 1,64,-1
 546 887 l 1,65,-1
 614 887 l 1,66,-1
 614 819 l 1,67,-1
 546 819 l 1,64,-1
273 955 m 1,68,-1
 273 1024 l 1,69,-1
 341 1024 l 1,70,-1
 341 955 l 1,71,-1
 273 955 l 1,68,-1
546 955 m 1,72,-1
 546 1024 l 1,73,-1
 614 1024 l 1,74,-1
 614 955 l 1,75,-1
 546 955 l 1,72,-1
409 1092 m 1,76,-1
 409 1160 l 1,77,-1
 477 1160 l 1,78,-1
 477 1092 l 1,79,-1
 409 1092 l 1,76,-1
409 1365 m 1,80,-1
 409 1433 l 1,81,-1
 477 1433 l 1,82,-1
 477 1365 l 1,83,-1
 409 1365 l 1,80,-1
273 1501 m 1,84,-1
 273 1570 l 1,85,-1
 341 1570 l 1,86,-1
 341 1501 l 1,87,-1
 273 1501 l 1,84,-1
EndSplineSet
Validated: 1
EndChar

StartChar: Aacute
Encoding: 193 193 128
Width: 1092
Flags: W
LayerCount: 2
Fore
SplineSet
0 0 m 1,0,-1
 0 68 l 1,1,-1
 68 68 l 1,2,-1
 68 0 l 1,3,-1
 0 0 l 1,0,-1
819 0 m 1,4,-1
 819 68 l 1,5,-1
 887 68 l 1,6,-1
 887 0 l 1,7,-1
 819 0 l 1,4,-1
0 136 m 1,8,-1
 0 204 l 1,9,-1
 68 204 l 1,10,-1
 68 136 l 1,11,-1
 0 136 l 1,8,-1
819 136 m 1,12,-1
 819 204 l 1,13,-1
 887 204 l 1,14,-1
 887 136 l 1,15,-1
 819 136 l 1,12,-1
0 273 m 1,16,-1
 0 341 l 1,17,-1
 68 341 l 1,18,-1
 68 273 l 1,19,-1
 0 273 l 1,16,-1
819 273 m 1,20,-1
 819 341 l 1,21,-1
 887 341 l 1,22,-1
 887 273 l 1,23,-1
 819 273 l 1,20,-1
136 409 m 1,24,-1
 136 477 l 1,25,-1
 204 477 l 1,26,-1
 204 409 l 1,27,-1
 136 409 l 1,24,-1
273 409 m 1,28,-1
 273 477 l 1,29,-1
 341 477 l 1,30,-1
 341 409 l 1,31,-1
 273 409 l 1,28,-1
409 409 m 1,32,-1
 409 477 l 1,33,-1
 477 477 l 1,34,-1
 477 409 l 1,35,-1
 409 409 l 1,32,-1
546 409 m 1,36,-1
 546 477 l 1,37,-1
 614 477 l 1,38,-1
 614 409 l 1,39,-1
 546 409 l 1,36,-1
682 409 m 1,40,-1
 682 477 l 1,41,-1
 750 477 l 1,42,-1
 750 409 l 1,43,-1
 682 409 l 1,40,-1
136 546 m 1,44,-1
 136 614 l 1,45,-1
 204 614 l 1,46,-1
 204 546 l 1,47,-1
 136 546 l 1,44,-1
682 546 m 1,48,-1
 682 614 l 1,49,-1
 750 614 l 1,50,-1
 750 546 l 1,51,-1
 682 546 l 1,48,-1
136 682 m 1,52,-1
 136 750 l 1,53,-1
 204 750 l 1,54,-1
 204 682 l 1,55,-1
 136 682 l 1,52,-1
682 682 m 1,56,-1
 682 750 l 1,57,-1
 750 750 l 1,58,-1
 750 682 l 1,59,-1
 682 682 l 1,56,-1
273 819 m 1,60,-1
 273 887 l 1,61,-1
 341 887 l 1,62,-1
 341 819 l 1,63,-1
 273 819 l 1,60,-1
546 819 m 1,64,-1
 546 887 l 1,65,-1
 614 887 l 1,66,-1
 614 819 l 1,67,-1
 546 819 l 1,64,-1
273 955 m 1,68,-1
 273 1024 l 1,69,-1
 341 1024 l 1,70,-1
 341 955 l 1,71,-1
 273 955 l 1,68,-1
546 955 m 1,72,-1
 546 1024 l 1,73,-1
 614 1024 l 1,74,-1
 614 955 l 1,75,-1
 546 955 l 1,72,-1
409 1092 m 1,76,-1
 409 1160 l 1,77,-1
 477 1160 l 1,78,-1
 477 1092 l 1,79,-1
 409 1092 l 1,76,-1
409 1365 m 1,80,-1
 409 1433 l 1,81,-1
 477 1433 l 1,82,-1
 477 1365 l 1,83,-1
 409 1365 l 1,80,-1
546 1501 m 1,84,-1
 546 1570 l 1,85,-1
 614 1570 l 1,86,-1
 614 1501 l 1,87,-1
 546 1501 l 1,84,-1
EndSplineSet
Validated: 1
EndChar

StartChar: Acircumflex
Encoding: 194 194 129
Width: 1092
Flags: W
LayerCount: 2
Fore
SplineSet
0 0 m 1,0,-1
 0 68 l 1,1,-1
 68 68 l 1,2,-1
 68 0 l 1,3,-1
 0 0 l 1,0,-1
819 0 m 1,4,-1
 819 68 l 1,5,-1
 887 68 l 1,6,-1
 887 0 l 1,7,-1
 819 0 l 1,4,-1
0 136 m 1,8,-1
 0 204 l 1,9,-1
 68 204 l 1,10,-1
 68 136 l 1,11,-1
 0 136 l 1,8,-1
819 136 m 1,12,-1
 819 204 l 1,13,-1
 887 204 l 1,14,-1
 887 136 l 1,15,-1
 819 136 l 1,12,-1
0 273 m 1,16,-1
 0 341 l 1,17,-1
 68 341 l 1,18,-1
 68 273 l 1,19,-1
 0 273 l 1,16,-1
819 273 m 1,20,-1
 819 341 l 1,21,-1
 887 341 l 1,22,-1
 887 273 l 1,23,-1
 819 273 l 1,20,-1
136 409 m 1,24,-1
 136 477 l 1,25,-1
 204 477 l 1,26,-1
 204 409 l 1,27,-1
 136 409 l 1,24,-1
273 409 m 1,28,-1
 273 477 l 1,29,-1
 341 477 l 1,30,-1
 341 409 l 1,31,-1
 273 409 l 1,28,-1
409 409 m 1,32,-1
 409 477 l 1,33,-1
 477 477 l 1,34,-1
 477 409 l 1,35,-1
 409 409 l 1,32,-1
546 409 m 1,36,-1
 546 477 l 1,37,-1
 614 477 l 1,38,-1
 614 409 l 1,39,-1
 546 409 l 1,36,-1
682 409 m 1,40,-1
 682 477 l 1,41,-1
 750 477 l 1,42,-1
 750 409 l 1,43,-1
 682 409 l 1,40,-1
136 546 m 1,44,-1
 136 614 l 1,45,-1
 204 614 l 1,46,-1
 204 546 l 1,47,-1
 136 546 l 1,44,-1
682 546 m 1,48,-1
 682 614 l 1,49,-1
 750 614 l 1,50,-1
 750 546 l 1,51,-1
 682 546 l 1,48,-1
136 682 m 1,52,-1
 136 750 l 1,53,-1
 204 750 l 1,54,-1
 204 682 l 1,55,-1
 136 682 l 1,52,-1
682 682 m 1,56,-1
 682 750 l 1,57,-1
 750 750 l 1,58,-1
 750 682 l 1,59,-1
 682 682 l 1,56,-1
273 819 m 1,60,-1
 273 887 l 1,61,-1
 341 887 l 1,62,-1
 341 819 l 1,63,-1
 273 819 l 1,60,-1
546 819 m 1,64,-1
 546 887 l 1,65,-1
 614 887 l 1,66,-1
 614 819 l 1,67,-1
 546 819 l 1,64,-1
273 955 m 1,68,-1
 273 1024 l 1,69,-1
 341 1024 l 1,70,-1
 341 955 l 1,71,-1
 273 955 l 1,68,-1
546 955 m 1,72,-1
 546 1024 l 1,73,-1
 614 1024 l 1,74,-1
 614 955 l 1,75,-1
 546 955 l 1,72,-1
409 1092 m 1,76,-1
 409 1160 l 1,77,-1
 477 1160 l 1,78,-1
 477 1092 l 1,79,-1
 409 1092 l 1,76,-1
273 1365 m 1,80,-1
 273 1433 l 1,81,-1
 341 1433 l 1,82,-1
 341 1365 l 1,83,-1
 273 1365 l 1,80,-1
546 1365 m 1,84,-1
 546 1433 l 1,85,-1
 614 1433 l 1,86,-1
 614 1365 l 1,87,-1
 546 1365 l 1,84,-1
409 1501 m 1,88,-1
 409 1570 l 1,89,-1
 477 1570 l 1,90,-1
 477 1501 l 1,91,-1
 409 1501 l 1,88,-1
EndSplineSet
Validated: 1
EndChar

StartChar: Atilde
Encoding: 195 195 130
Width: 1092
Flags: W
LayerCount: 2
Fore
SplineSet
0 0 m 1,0,-1
 0 68 l 1,1,-1
 68 68 l 1,2,-1
 68 0 l 1,3,-1
 0 0 l 1,0,-1
819 0 m 1,4,-1
 819 68 l 1,5,-1
 887 68 l 1,6,-1
 887 0 l 1,7,-1
 819 0 l 1,4,-1
0 136 m 1,8,-1
 0 204 l 1,9,-1
 68 204 l 1,10,-1
 68 136 l 1,11,-1
 0 136 l 1,8,-1
819 136 m 1,12,-1
 819 204 l 1,13,-1
 887 204 l 1,14,-1
 887 136 l 1,15,-1
 819 136 l 1,12,-1
0 273 m 1,16,-1
 0 341 l 1,17,-1
 68 341 l 1,18,-1
 68 273 l 1,19,-1
 0 273 l 1,16,-1
819 273 m 1,20,-1
 819 341 l 1,21,-1
 887 341 l 1,22,-1
 887 273 l 1,23,-1
 819 273 l 1,20,-1
136 409 m 1,24,-1
 136 477 l 1,25,-1
 204 477 l 1,26,-1
 204 409 l 1,27,-1
 136 409 l 1,24,-1
273 409 m 1,28,-1
 273 477 l 1,29,-1
 341 477 l 1,30,-1
 341 409 l 1,31,-1
 273 409 l 1,28,-1
409 409 m 1,32,-1
 409 477 l 1,33,-1
 477 477 l 1,34,-1
 477 409 l 1,35,-1
 409 409 l 1,32,-1
546 409 m 1,36,-1
 546 477 l 1,37,-1
 614 477 l 1,38,-1
 614 409 l 1,39,-1
 546 409 l 1,36,-1
682 409 m 1,40,-1
 682 477 l 1,41,-1
 750 477 l 1,42,-1
 750 409 l 1,43,-1
 682 409 l 1,40,-1
136 546 m 1,44,-1
 136 614 l 1,45,-1
 204 614 l 1,46,-1
 204 546 l 1,47,-1
 136 546 l 1,44,-1
682 546 m 1,48,-1
 682 614 l 1,49,-1
 750 614 l 1,50,-1
 750 546 l 1,51,-1
 682 546 l 1,48,-1
136 682 m 1,52,-1
 136 750 l 1,53,-1
 204 750 l 1,54,-1
 204 682 l 1,55,-1
 136 682 l 1,52,-1
682 682 m 1,56,-1
 682 750 l 1,57,-1
 750 750 l 1,58,-1
 750 682 l 1,59,-1
 682 682 l 1,56,-1
273 819 m 1,60,-1
 273 887 l 1,61,-1
 341 887 l 1,62,-1
 341 819 l 1,63,-1
 273 819 l 1,60,-1
546 819 m 1,64,-1
 546 887 l 1,65,-1
 614 887 l 1,66,-1
 614 819 l 1,67,-1
 546 819 l 1,64,-1
273 955 m 1,68,-1
 273 1024 l 1,69,-1
 341 1024 l 1,70,-1
 341 955 l 1,71,-1
 273 955 l 1,68,-1
546 955 m 1,72,-1
 546 1024 l 1,73,-1
 614 1024 l 1,74,-1
 614 955 l 1,75,-1
 546 955 l 1,72,-1
409 1092 m 1,76,-1
 409 1160 l 1,77,-1
 477 1160 l 1,78,-1
 477 1092 l 1,79,-1
 409 1092 l 1,76,-1
136 1365 m 1,80,-1
 136 1433 l 1,81,-1
 204 1433 l 1,82,-1
 204 1365 l 1,83,-1
 136 1365 l 1,80,-1
409 1365 m 1,84,-1
 409 1433 l 1,85,-1
 477 1433 l 1,86,-1
 477 1365 l 1,87,-1
 409 1365 l 1,84,-1
546 1365 m 1,88,-1
 546 1433 l 1,89,-1
 614 1433 l 1,90,-1
 614 1365 l 1,91,-1
 546 1365 l 1,88,-1
273 1501 m 1,92,-1
 273 1570 l 1,93,-1
 341 1570 l 1,94,-1
 341 1501 l 1,95,-1
 273 1501 l 1,92,-1
682 1501 m 1,96,-1
 682 1570 l 1,97,-1
 750 1570 l 1,98,-1
 750 1501 l 1,99,-1
 682 1501 l 1,96,-1
EndSplineSet
Validated: 1
EndChar

StartChar: Adieresis
Encoding: 196 196 131
Width: 1092
Flags: W
LayerCount: 2
Fore
SplineSet
0 0 m 1,0,-1
 0 68 l 1,1,-1
 68 68 l 1,2,-1
 68 0 l 1,3,-1
 0 0 l 1,0,-1
819 0 m 1,4,-1
 819 68 l 1,5,-1
 887 68 l 1,6,-1
 887 0 l 1,7,-1
 819 0 l 1,4,-1
0 136 m 1,8,-1
 0 204 l 1,9,-1
 68 204 l 1,10,-1
 68 136 l 1,11,-1
 0 136 l 1,8,-1
819 136 m 1,12,-1
 819 204 l 1,13,-1
 887 204 l 1,14,-1
 887 136 l 1,15,-1
 819 136 l 1,12,-1
0 273 m 1,16,-1
 0 341 l 1,17,-1
 68 341 l 1,18,-1
 68 273 l 1,19,-1
 0 273 l 1,16,-1
819 273 m 1,20,-1
 819 341 l 1,21,-1
 887 341 l 1,22,-1
 887 273 l 1,23,-1
 819 273 l 1,20,-1
136 409 m 1,24,-1
 136 477 l 1,25,-1
 204 477 l 1,26,-1
 204 409 l 1,27,-1
 136 409 l 1,24,-1
273 409 m 1,28,-1
 273 477 l 1,29,-1
 341 477 l 1,30,-1
 341 409 l 1,31,-1
 273 409 l 1,28,-1
409 409 m 1,32,-1
 409 477 l 1,33,-1
 477 477 l 1,34,-1
 477 409 l 1,35,-1
 409 409 l 1,32,-1
546 409 m 1,36,-1
 546 477 l 1,37,-1
 614 477 l 1,38,-1
 614 409 l 1,39,-1
 546 409 l 1,36,-1
682 409 m 1,40,-1
 682 477 l 1,41,-1
 750 477 l 1,42,-1
 750 409 l 1,43,-1
 682 409 l 1,40,-1
136 546 m 1,44,-1
 136 614 l 1,45,-1
 204 614 l 1,46,-1
 204 546 l 1,47,-1
 136 546 l 1,44,-1
682 546 m 1,48,-1
 682 614 l 1,49,-1
 750 614 l 1,50,-1
 750 546 l 1,51,-1
 682 546 l 1,48,-1
136 682 m 1,52,-1
 136 750 l 1,53,-1
 204 750 l 1,54,-1
 204 682 l 1,55,-1
 136 682 l 1,52,-1
682 682 m 1,56,-1
 682 750 l 1,57,-1
 750 750 l 1,58,-1
 750 682 l 1,59,-1
 682 682 l 1,56,-1
273 819 m 1,60,-1
 273 887 l 1,61,-1
 341 887 l 1,62,-1
 341 819 l 1,63,-1
 273 819 l 1,60,-1
546 819 m 1,64,-1
 546 887 l 1,65,-1
 614 887 l 1,66,-1
 614 819 l 1,67,-1
 546 819 l 1,64,-1
273 955 m 1,68,-1
 273 1024 l 1,69,-1
 341 1024 l 1,70,-1
 341 955 l 1,71,-1
 273 955 l 1,68,-1
546 955 m 1,72,-1
 546 1024 l 1,73,-1
 614 1024 l 1,74,-1
 614 955 l 1,75,-1
 546 955 l 1,72,-1
409 1092 m 1,76,-1
 409 1160 l 1,77,-1
 477 1160 l 1,78,-1
 477 1092 l 1,79,-1
 409 1092 l 1,76,-1
273 1365 m 1,80,-1
 273 1433 l 1,81,-1
 341 1433 l 1,82,-1
 341 1365 l 1,83,-1
 273 1365 l 1,80,-1
546 1365 m 1,84,-1
 546 1433 l 1,85,-1
 614 1433 l 1,86,-1
 614 1365 l 1,87,-1
 546 1365 l 1,84,-1
EndSplineSet
Validated: 1
EndChar

